<svg width="89" height="11" viewBox="0 0 89 11" fill="none" xmlns="http://www.w3.org/2000/svg">
<path d="M87.9644 10.324H89V0.718362H87.7958V8.26454C87.4667 7.86464 87.1697 7.46473 86.8566 7.02884C85.1627 4.91735 83.4488 2.82985 81.7911 0.702366H80.8398V10.324H82.0439V2.92583C83.9184 5.45722 85.9615 7.86864 87.9444 10.324H87.9644ZM78.6723 0.702366H77.4681V10.324H78.6723V0.702366ZM67.9552 10.324H75.7341V9.2403H69.6089C71.6158 6.70492 73.5907 4.18552 75.6056 1.64214V0.702366H68.192V1.7861H74.0402L67.9471 9.38427L67.9552 10.324ZM60.8104 6.55695L62.5244 2.206L64.2223 6.55695H60.8104ZM57.9807 10.324H59.3534L60.4572 7.5967H64.5634L65.6793 10.308H67.0641L63.0944 0.702366H61.9544L57.9807 10.324ZM57.4789 6.365C57.5229 5.99736 57.5457 5.62751 57.5472 5.25727H53.3847V6.365H56.1945C56.1795 6.77699 56.0831 7.182 55.911 7.55691C55.7389 7.93181 55.4943 8.26927 55.1913 8.55C54.8883 8.83074 54.5327 9.04926 54.1449 9.19309C53.7571 9.33692 53.3447 9.40324 52.9312 9.38827C50.7155 9.38827 49.122 7.70867 49.122 5.48521C49.122 3.26175 50.7276 1.61015 52.8108 1.61015C53.4684 1.59675 54.1183 1.75325 54.6972 2.06441C55.2761 2.37557 55.7643 2.83078 56.1142 3.38572C56.4393 3.14178 56.7805 2.89784 57.1056 2.6419C56.6283 1.97408 55.9964 1.43087 55.2633 1.0584C54.5303 0.685935 53.7179 0.495207 52.8951 0.502414C52.2353 0.481659 51.5782 0.594894 50.9637 0.835224C50.3493 1.07555 49.7904 1.43795 49.321 1.90036C48.8516 2.36276 48.4816 2.9155 48.2335 3.52492C47.9853 4.13435 47.8643 4.7877 47.8777 5.44522C47.8777 8.33252 49.9448 10.5 52.8148 10.5C55.1107 10.5 57.1096 9.21231 57.4789 6.365V6.365ZM41.3431 6.55695L43.057 2.206L44.7428 6.55695H41.3431ZM38.5334 10.324H39.8981L40.9979 7.5967H45.1041L46.22 10.308H47.6047L43.635 0.702366H42.4951L38.5334 10.324ZM37.2449 10.324V0.702366H35.9524L32.4443 6.94886L28.9522 0.702366H27.6597V10.324H28.8639V2.88584L32.075 8.58846H32.7694L35.9805 2.88584V10.324H37.2449ZM26.2709 0.702366H18.3836V1.7861H21.7151V10.324H22.9193V1.7861H26.2508L26.2709 0.702366ZM11.6001 1.7861H13.9804C15.2688 1.7861 16.0877 2.50593 16.0877 3.61766C16.0877 4.79338 15.2849 5.5252 13.9924 5.5252H11.5841L11.6001 1.7861ZM11.6001 10.324V6.60894H13.7476L16.0556 10.324H17.5086L15.0641 6.50097C15.7303 6.37913 16.3287 6.01864 16.7465 5.48749C17.1643 4.95635 17.3725 4.29126 17.332 3.61766C17.336 1.85409 16.0556 0.702366 14.0888 0.702366H10.3759V10.324H11.6001ZM2.82979 6.55695L4.54372 2.206L6.22956 6.55695H2.82979ZM0 10.324H1.37275L2.47657 7.5967H6.58278L7.69463 10.308H9.08343L5.1137 0.702366H3.96974L0 10.324Z" fill="white"/>
</svg>
