<svg xmlns="http://www.w3.org/2000/svg" viewBox="0 0 2230.16 1986.47"><defs><style>.cls-1{fill:#fff;}.cls-1,.cls-2,.cls-3{stroke:#2600b1;stroke-miterlimit:10;}.cls-1,.cls-2{stroke-width:2px;}.cls-2,.cls-3{fill:none;}.cls-4,.cls-5,.cls-6{fill:#2600b1;}.cls-5{font-size:72px;}.cls-5,.cls-6{font-family:HelveticaNeue, Helvetica Neue;}.cls-6{font-size:36px;}</style></defs><title>Asset 3</title><g id="Layer_2" data-name="Layer 2"><g id="Layer_1-2" data-name="Layer 1"><g id="T-Shirts"><path class="cls-1" d="M822.81,1.21,413.45,157.09,1.36,648.08,292.85,930.21,445.6,805.51l1.56,1180H1776.75V808.63l151.19,107.55,300.84-286.8-410-470.73L1401.1,1.21s-57.68,85.73-286,82.62S822.81,1.21,822.81,1.21Z"/><path class="cls-2" d="M1401.1,1.21c0,119.27-106.7,238.88-295.3,235.76S821.25,105.65,822.81,1.21"/><path class="cls-3" d="M413.45,157.09C516.69,294,501.82,635.93,445.6,805.51"/><path class="cls-2" d="M1818.83,158.65c-84.19,126.85-129.41,205.55-42.08,650"/><line class="cls-3" x1="1899.83" y1="896.18" x2="2204.27" y2="601.24"/><line class="cls-3" x1="322.34" y1="906.14" x2="22.84" y2="622.5"/><path class="cls-3" d="M832.16,61.41c202.26,84.05,435.7,62.37,559.82,0"/><path class="cls-3" d="M1430.5,12.29C1410,147.58,1301,272.77,1122.09,274.89S790.65,150.73,793.71,12.29"/><line class="cls-3" x1="447.11" y1="1949.62" x2="1776.75" y2="1949.62"/></g><g id="DMN_Logo" data-name="DMN Logo"><path class="cls-4" d="M1454.38,1700.44v-27.19l8.38-2.22c7-1.87,10.11,2.26,10.11,10.48,0,9.42-4.11,15.11-10.51,16.81Zm7.25-26.9v22.76l.45-.12c2-.54,3.1-1.83,3.1-13.31,0-8-.53-10.13-3.1-9.45Z"/><path class="cls-4" d="M1495.67,1678.27v-15l-4.91,16.29-5.4,1.44-5-13v14.33l-2.21.59v-27.18l4.67-1.25,7.37,18.79,6.57-22.49,5.8-1.54v27.18Z"/><path class="cls-4" d="M1521.13,1661.44,1511,1646.85v17.27l-2.22.59v-27.18l5-1.34,10.15,15.3v-18l2.21-.59v27.19Z"/><polygon class="cls-4" points="1447.96 1656.75 1447.93 1652.96 1532.94 1630.16 1532.97 1633.94 1447.96 1656.75"/><polygon class="cls-4" points="1447.96 1703.88 1447.93 1700.1 1532.94 1677.29 1532.97 1681.07 1447.96 1703.88"/></g><text class="cls-5" transform="translate(691.34 575.46)">ET66</text><text class="cls-6" transform="translate(688.06 1136.63)">Pocket calculator 1:1<tspan x="0" y="43.2">1987</tspan></text><g id="ET_66_calculator_1987" data-name="ET 66 calculator 1987"><path class="cls-2" d="M701.07,657.35H908.41a9.7,9.7,0,0,1,9.7,9.7v352.5a35.17,35.17,0,0,1-35.17,35.17H726.51a35.17,35.17,0,0,1-35.17-35.17h0V667.05a9.7,9.7,0,0,1,9.7-9.7Z"/><path class="cls-2" d="M700.43,661.62H909.16a4.87,4.87,0,0,1,4.87,4.87v352.36a30.92,30.92,0,0,1-30.88,31H726.49a30.93,30.93,0,0,1-30.93-30.93V666.5a4.86,4.86,0,0,1,4.86-4.88Z"/><rect class="cls-2" x="713.41" y="713.75" width="182.63" height="62.1" rx="4.12" ry="4.12"/><rect class="cls-2" x="724.13" y="720.32" width="161.2" height="39.2" rx="3.3" ry="3.3"/><circle class="cls-2" cx="728.15" cy="801.96" r="8.05"/><circle class="cls-4" cx="728.15" cy="814.15" r="1.51"/><circle class="cls-4" cx="766.54" cy="814.15" r="1.51"/><circle class="cls-2" cx="766.54" cy="823.91" r="3.79"/><circle class="cls-4" cx="728.15" cy="823.91" r="3.79"/><circle class="cls-2" cx="766.54" cy="801.96" r="8.05"/><circle class="cls-2" cx="728.15" cy="859.4" r="13.89"/><path class="cls-4" d="M719,864.35V855h1.71l3.09,6.48h.06L727,855h1.67v9.37h-1.51V857.9H727l-2.57,5.4h-1.2l-2.57-5.4h-.09v6.45Z"/><path class="cls-4" d="M734.45,863.07h-1.39v-3h-3v-1.35h3v-2.83h1.39v2.83h3v1.35h-3Z"/><circle class="cls-2" cx="728.15" cy="974.22" r="13.89"/><path class="cls-4" d="M721.61,975.36c0,1.82.86,2.84,2.44,2.84a2,2,0,0,0,2.18-1.66h1.64v.13c-.12,1.72-1.71,2.93-3.83,2.93-2.64,0-4.13-1.57-4.13-4.28v-1.23c0-2.65,1.51-4.28,4.13-4.28,2.13,0,3.72,1.25,3.83,3V973h-1.64a2,2,0,0,0-2.18-1.76c-1.54,0-2.44,1-2.44,2.88Z"/><path class="cls-4" d="M735.78,979.42h-6.32v-9.37h6.32v1.37h-4.64V974h4.37v1.3h-4.37V978h4.64Z"/><circle class="cls-2" cx="728.15" cy="1012.5" r="13.89"/><path class="cls-4" d="M725.63,1013.3c0,1.81.86,2.83,2.44,2.83a2,2,0,0,0,2.19-1.65h1.63v.13c-.13,1.71-1.71,2.93-3.82,2.93-2.66,0-4.14-1.58-4.14-4.24v-1.23c0-2.65,1.52-4.29,4.14-4.29,2.12,0,3.7,1.25,3.82,3.05v.13h-1.63a2,2,0,0,0-2.19-1.76c-1.54,0-2.44,1-2.44,2.87Z"/><circle class="cls-2" cx="728.15" cy="897.68" r="13.89"/><path class="cls-4" d="M724.77,897.46l1.4,4.61h.09l2.79-9.53h3.6v1.33h-2.32l-3,9.78h-2.13l-2.05-6.19Z"/><circle class="cls-2" cx="728.15" cy="935.96" r="13.89"/><path class="cls-4" d="M722.37,933.61a2.27,2.27,0,1,1,2.27,2.32,2.19,2.19,0,0,1-2.27-2.09Zm4.76,2.37,3.18-4.5H732l-3.77,4.95-3.08,4.41h-1.65Zm-1.57-2.37c0-.79-.35-1.26-.92-1.26s-.91.48-.91,1.26.35,1.26.91,1.26S725.56,934.41,725.56,933.61Zm2.88,5.08a2.26,2.26,0,1,1,2.25,2.32,2.17,2.17,0,0,1-2.25-2.09Zm3.17,0c0-.79-.35-1.25-.92-1.25s-.9.48-.9,1.25.36,1.26.9,1.26S731.61,939.46,731.61,938.69Z"/><circle class="cls-2" cx="766.54" cy="897.68" r="13.89"/><path class="cls-4" d="M770.24,892.7v1.4l-4.13,8h-1.76l4.19-7.93v-.08h-5V892.7Z"/><circle class="cls-2" cx="804.94" cy="897.68" r="13.89"/><path class="cls-4" d="M801,899.5a2.42,2.42,0,0,1,2.08-2.34v-.07a2.19,2.19,0,0,1-1.71-2.09c0-1.43,1.38-2.48,3.37-2.48s3.36,1.05,3.36,2.48a2.19,2.19,0,0,1-1.71,2.09v.07a2.42,2.42,0,0,1,2.09,2.33c0,1.63-1.55,2.77-3.79,2.77S801,901.14,801,899.5Zm5.86-.09c0-1-.9-1.64-2.1-1.64s-2.1.67-2.1,1.64.91,1.62,2.1,1.62S806.9,900.37,806.9,899.41Zm-.35-4.28c0-.86-.74-1.41-1.71-1.41a1.54,1.54,0,0,0-1.72,1.41,1.55,1.55,0,0,0,1.65,1.44h.07a1.48,1.48,0,0,0,1.71-1.4Z"/><circle class="cls-2" cx="843.33" cy="897.68" r="13.89"/><path class="cls-4" d="M842.15,900.09a1.54,1.54,0,0,0,1.58.86c1.71,0,2.38-1.55,2.32-3.43H846a2.47,2.47,0,0,1-2.44,1.37,3,3,0,0,1-3.24-2.81c0-.11,0-.21,0-.31,0-2,1.58-3.2,3.63-3.2s3.76,1,3.76,4.7c0,3.31-1.28,5-3.95,5-2,0-3.07-1.07-3.19-2.15Zm1.72-6.28a1.82,1.82,0,0,0-1.93,1.71v.18a2,2,0,0,0,3.9,0,1.85,1.85,0,0,0-1.77-1.9h-.2Z"/><circle class="cls-2" cx="766.54" cy="935.96" r="13.89"/><path class="cls-4" d="M769.52,931.48v6.21h1.28V939h-1.28v1.8h-1.6V939H763v-1.36c1.22-2.08,2.66-4.15,4.05-6.2Zm-1.6,6.21v-4.93h-.08c-1.09,1.54-2.26,3.24-3.23,4.87v.06Z"/><circle class="cls-2" cx="804.94" cy="935.96" r="13.89"/><path class="cls-4" d="M802.92,938.52a1.8,1.8,0,0,0,1.93,1.19,1.92,1.92,0,0,0,2-1.83v0a1.85,1.85,0,0,0-1.9-1.81h-.11A2.11,2.11,0,0,0,803,937h-1.45l.44-5.43h6v1.34h-4.55l-.24,2.68h.08a2.59,2.59,0,0,1,2-.79,3,3,0,0,1,3.23,2.76,2.43,2.43,0,0,1,0,.27c0,2-1.49,3.29-3.69,3.29-2,0-3.36-1.07-3.43-2.5Z"/><circle class="cls-2" cx="843.33" cy="935.96" r="13.89"/><path class="cls-4" d="M845.87,933.55a1.6,1.6,0,0,0-1.66-.93c-1.36,0-2.3,1.29-2.28,3.48h.1a2.57,2.57,0,0,1,2.51-1.33,3,3,0,0,1,3.16,2.78,1.41,1.41,0,0,1,0,.2c0,2.08-1.54,3.27-3.6,3.27a3.43,3.43,0,0,1-3-1.48,5.5,5.5,0,0,1-.76-3.1c0-3.5,1.59-5.13,3.95-5.13,2,0,3.17,1.18,3.25,2.25Zm-1.76,6.15a1.8,1.8,0,0,0,2-1.58,1.31,1.31,0,0,0,0-.28,2,2,0,0,0-3.93,0,1.84,1.84,0,0,0,1.81,1.87h.15Z"/><circle class="cls-2" cx="881.72" cy="935.96" r="13.89"/><path class="cls-4" d="M881.94,936.91,879.65,939l-1-1,2.28-2.11-2.28-2.11,1-1,2.29,2.12,2.28-2.12,1,1L882.93,936l2.27,2.11-1,1Z"/><circle class="cls-2" cx="766.54" cy="974.22" r="13.89"/><path class="cls-4" d="M766.81,979.41v-7.7h-.08l-2.32,1.53v-1.55l2.4-1.61h1.67v9.37Z"/><circle class="cls-2" cx="766.54" cy="1012.5" r="13.89"/><path class="cls-4" d="M763.12,1012.75c0-2.82,1.38-4.67,3.75-4.67s3.7,1.83,3.7,4.67v.39c0,2.82-1.38,4.67-3.74,4.67s-3.71-1.84-3.71-4.67Zm1.71.39c0,2.07.79,3.32,2.06,3.32s2.06-1.25,2.06-3.32v-.39c0-2.07-.79-3.32-2.06-3.32s-2.06,1.25-2.06,3.32Z"/><circle class="cls-2" cx="804.94" cy="974.22" r="13.89"/><path class="cls-4" d="M801.48,972.77v-.07c0-1.43,1.11-2.84,3.33-2.84,2,0,3.3,1.12,3.3,2.57,0,1.25-.85,2-1.71,3L803.9,978v.08h4.43v1.35h-6.76v-1l3.76-3.81a3,3,0,0,0,1.14-2,1.49,1.49,0,0,0-1.55-1.42h-.11a1.54,1.54,0,0,0-1.7,1.35.61.61,0,0,0,0,.14v.08Z"/><circle class="cls-2" cx="804.94" cy="1012.5" r="13.89"/><path class="cls-4" d="M802.34,1013a2.46,2.46,0,1,1,2.61,2.3h-.15A2.39,2.39,0,0,1,802.34,1013Z"/><circle class="cls-2" cx="843.33" cy="974.22" r="13.89"/><path class="cls-4" d="M842.8,973.94h1.05a1.51,1.51,0,0,0,1.7-1.32.34.34,0,0,0,0-.1c0-.8-.71-1.36-1.71-1.36a1.53,1.53,0,0,0-1.71,1.22h-1.59c0-1.37,1.2-2.5,3.32-2.52s3.3,1,3.34,2.42a2.21,2.21,0,0,1-1.88,2.18v.1a2.34,2.34,0,0,1,2.2,2.24c0,1.71-1.62,2.81-3.71,2.81s-3.42-1.16-3.48-2.57h1.55c.08.69.85,1.23,2,1.23s2-.64,2-1.54-.78-1.51-1.94-1.51h-1.1Z"/><path class="cls-4" d="M843.33,998.62a13.9,13.9,0,1,0,13.89,13.91h0A13.89,13.89,0,0,0,843.33,998.62Zm3.28,15.92H840v-1.27h6.57Zm0-2.77H840v-1.28h6.57Z"/><circle class="cls-2" cx="881.72" cy="974.22" r="13.89"/><path class="cls-4" d="M877.37,975.5v-1.43h9.13v1.43Z"/><circle class="cls-2" cx="881.72" cy="897.68" r="13.89"/><path class="cls-4" d="M877.17,898.77v-1.71h10.14v1.71Zm5-6.21a1.45,1.45,0,0,1,1.55,1.34V894a1.53,1.53,0,1,1-1.63-1.43Zm0,7.81a1.46,1.46,0,0,1,1.55,1.36v.07a1.53,1.53,0,1,1-1.63-1.42Z"/><circle class="cls-2" cx="804.94" cy="859.4" r="13.89"/><path class="cls-4" d="M795.37,864.35V855h1.71l3.09,6.48h.06l3.09-6.48H805v9.37h-1.58V857.9h-.09l-2.57,5.4h-1.21L797,857.9h-.09v6.45Z"/><path class="cls-4" d="M814,857.89a2.7,2.7,0,0,1-1.86,2.62l2.05,3.84h-1.89l-1.82-3.57h-2.1v3.57h-1.66V855h3.87C812.75,855,814,856.13,814,857.89Zm-3.69,1.6c1.24,0,2-.52,2-1.55s-.74-1.63-1.92-1.63h-2v3.18Z"/><circle class="cls-2" cx="843.33" cy="859.4" r="13.89"/><path class="cls-4" d="M833.53,864.35V855h1.71l3.1,6.48h.06l3.09-6.48h1.71v9.37h-1.53V857.9h-.08L839,863.3H837.8l-2.56-5.4h-.1v6.45Z"/><path class="cls-4" d="M846.22,860.3c0,1.81.86,2.82,2.44,2.82a2,2,0,0,0,2.18-1.65h1.64v.14c-.12,1.71-1.71,2.93-3.83,2.93-2.64,0-4.13-1.59-4.13-4.28v-1.19c0-2.66,1.51-4.28,4.13-4.28,2.12,0,3.72,1.25,3.83,3V858h-1.64a2,2,0,0,0-2.18-1.76c-1.53,0-2.44,1-2.44,2.87Z"/><circle class="cls-2" cx="881.72" cy="859.4" r="13.89"/><path class="cls-4" d="M879,859.24h-1.4v-3h-3v-1.35h3v-2.82H879v2.82h3v1.35h-3Z"/><path class="cls-4" d="M876,865.35l10.87-11.06h1.5l-10.86,11.06Z"/><path class="cls-4" d="M882.92,864.52V863.1h7.58v1.42Z"/><circle class="cls-2" cx="766.54" cy="859.4" r="13.89"/><path class="cls-4" d="M757.32,864.35V855H759l3.09,6.48h.06l3.09-6.48H767v9.37H765.4V857.9h-.08l-2.57,5.4h-1.22L759,857.9h-.08v6.45Z"/><path class="cls-4" d="M768.46,860.26v-1.42H776v1.42Z"/><path class="cls-4" d="M868.23,727H741.52a6.12,6.12,0,0,0-6.11,6.11v13.39a6.11,6.11,0,0,0,6.11,6.1H868.23a6.11,6.11,0,0,0,6.11-6.1V733.08A6.12,6.12,0,0,0,868.23,727Zm-11.78,5H864l.56.53-1.13,1.07H857l-1.13-1.07Zm-1.94,1.82.57-.53,1.15,1v4.45l-1.15,1-.24.23h-.33Zm0,13.56v-6.25h.33l.24.22,1.15,1v4.45l-1.15,1.05Zm9.51,1.8h-7.53l-.55-.53,1.13-1.07h6.42l1.13,1.07Zm2-1.8-.57.51-1.16-1.05v-4.43l1.16-1.06.24-.22H866Zm0-7.32h-.33l-.24-.23-1.16-1v-4.45l1.16-1,.57.52Zm2.89,8.47a.89.89,0,0,1-.23.34,1.48,1.48,0,0,1-.38.23,1.28,1.28,0,0,1-.89,0,1.28,1.28,0,0,1-.37-.23,1,1,0,0,1-.24-.34,1,1,0,0,1-.09-.42,1,1,0,0,1,.09-.41,1.16,1.16,0,0,1,.24-.34,1.23,1.23,0,0,1,.86-.31,1.33,1.33,0,0,1,.85.31,1.12,1.12,0,0,1,.34.75A1.05,1.05,0,0,1,868.86,748.47Z"/><circle class="cls-2" cx="881.72" cy="1012.5" r="13.89"/><path class="cls-4" d="M882.42,1016.06H881v-2.95h-3v-1.35h3v-2.83h1.4v2.83h3v1.35h-3Z"/></g></g></g></svg>