<svg xmlns="http://www.w3.org/2000/svg" viewBox="0 0 2230.16 1986.47"><defs><style>.cls-1{fill:#2600b1;stroke:#2600b1;}.cls-1,.cls-2,.cls-3,.cls-6{stroke-miterlimit:10;}.cls-1,.cls-2,.cls-5,.cls-6{stroke-width:2px;}.cls-2,.cls-3,.cls-5,.cls-6{fill:none;}.cls-2,.cls-3{stroke:#fff;}.cls-4,.cls-7,.cls-8{fill:#ff7bac;}.cls-5,.cls-6{stroke:#ff7bac;}.cls-5{stroke-linecap:round;stroke-linejoin:round;}.cls-7{font-size:72px;}.cls-7,.cls-8{font-family:HelveticaNeue, Helvetica Neue;}.cls-8{font-size:36px;}</style></defs><title>Asset 4</title><g id="Layer_2" data-name="Layer 2"><g id="Layer_1-2" data-name="Layer 1"><g id="T-Shirts"><path class="cls-1" d="M822.81,1.21,413.45,157.09,1.36,648.08,292.85,930.21,445.6,805.51l1.56,1180H1776.75V808.63l151.19,107.55,300.84-286.8-410-470.73L1401.1,1.21s-57.68,85.73-286,82.62S822.81,1.21,822.81,1.21Z"/><path class="cls-2" d="M1401.1,1.21c0,119.27-106.7,238.88-295.3,235.76S821.25,105.65,822.81,1.21"/><path class="cls-3" d="M413.45,157.09C516.69,294,501.82,635.93,445.6,805.51"/><path class="cls-2" d="M1818.83,158.65c-84.19,126.85-129.41,205.55-42.08,650"/><line class="cls-3" x1="1899.83" y1="896.18" x2="2204.27" y2="601.24"/><line class="cls-3" x1="322.34" y1="906.14" x2="22.84" y2="622.5"/><path class="cls-3" d="M832.16,61.41c202.26,84.05,435.7,62.37,559.82,0"/><path class="cls-3" d="M1430.5,12.29C1410,147.58,1301,272.77,1122.09,274.89S790.65,150.73,793.71,12.29"/><line class="cls-3" x1="447.11" y1="1949.62" x2="1776.75" y2="1949.62"/></g><g id="T3_pocket_transistor_radio_phono_combination_1958" data-name="T3 pocket transistor radio phono combination 1958"><circle class="cls-4" cx="719.98" cy="689.66" r="4.41"/><circle class="cls-4" cx="719.98" cy="706.87" r="4.41"/><circle class="cls-4" cx="719.98" cy="724.08" r="4.41"/><circle class="cls-4" cx="719.98" cy="741.29" r="4.41"/><circle class="cls-4" cx="719.98" cy="758.5" r="4.41"/><circle class="cls-4" cx="719.98" cy="775.71" r="4.41"/><circle class="cls-4" cx="719.98" cy="792.92" r="4.41"/><circle class="cls-4" cx="719.98" cy="810.13" r="4.41"/><circle class="cls-4" cx="719.98" cy="827.34" r="4.41"/><circle class="cls-4" cx="719.98" cy="844.55" r="4.41"/><circle class="cls-4" cx="719.98" cy="861.76" r="4.41"/><circle class="cls-4" cx="737.14" cy="689.66" r="4.41"/><circle class="cls-4" cx="737.14" cy="706.87" r="4.41"/><circle class="cls-4" cx="737.14" cy="724.08" r="4.41"/><circle class="cls-4" cx="737.14" cy="741.29" r="4.41"/><circle class="cls-4" cx="737.14" cy="758.5" r="4.41"/><circle class="cls-4" cx="737.14" cy="775.71" r="4.41"/><circle class="cls-4" cx="737.14" cy="792.92" r="4.41"/><circle class="cls-4" cx="737.14" cy="810.13" r="4.41"/><circle class="cls-4" cx="737.14" cy="827.34" r="4.41"/><circle class="cls-4" cx="737.14" cy="844.55" r="4.41"/><circle class="cls-4" cx="737.14" cy="861.76" r="4.41"/><circle class="cls-4" cx="754.26" cy="689.66" r="4.41"/><circle class="cls-4" cx="754.26" cy="706.87" r="4.41"/><circle class="cls-4" cx="754.26" cy="724.08" r="4.41"/><circle class="cls-4" cx="754.26" cy="741.29" r="4.41"/><circle class="cls-4" cx="754.26" cy="758.5" r="4.41"/><circle class="cls-4" cx="754.26" cy="775.71" r="4.41"/><circle class="cls-4" cx="754.26" cy="792.92" r="4.41"/><circle class="cls-4" cx="754.26" cy="810.13" r="4.41"/><circle class="cls-4" cx="754.26" cy="827.34" r="4.41"/><circle class="cls-4" cx="754.26" cy="844.55" r="4.41"/><circle class="cls-4" cx="754.26" cy="861.76" r="4.41"/><circle class="cls-4" cx="771.37" cy="689.66" r="4.41"/><circle class="cls-4" cx="771.37" cy="706.87" r="4.41"/><circle class="cls-4" cx="771.37" cy="724.08" r="4.41"/><circle class="cls-4" cx="771.37" cy="741.29" r="4.41"/><circle class="cls-4" cx="771.37" cy="758.5" r="4.41"/><circle class="cls-4" cx="771.37" cy="775.71" r="4.41"/><circle class="cls-4" cx="771.37" cy="792.92" r="4.41"/><circle class="cls-4" cx="771.37" cy="810.13" r="4.41"/><circle class="cls-4" cx="771.37" cy="827.34" r="4.41"/><circle class="cls-4" cx="771.37" cy="844.55" r="4.41"/><circle class="cls-4" cx="771.37" cy="861.76" r="4.41"/><circle class="cls-4" cx="788.48" cy="689.66" r="4.41"/><circle class="cls-4" cx="788.48" cy="706.87" r="4.41"/><circle class="cls-4" cx="788.48" cy="724.08" r="4.41"/><circle class="cls-4" cx="788.48" cy="741.29" r="4.41"/><circle class="cls-4" cx="788.48" cy="758.5" r="4.41"/><circle class="cls-4" cx="788.48" cy="775.71" r="4.41"/><circle class="cls-4" cx="788.48" cy="792.92" r="4.41"/><circle class="cls-4" cx="788.48" cy="810.13" r="4.41"/><circle class="cls-4" cx="788.48" cy="827.34" r="4.41"/><circle class="cls-4" cx="788.48" cy="844.55" r="4.41"/><circle class="cls-4" cx="788.48" cy="861.76" r="4.41"/><circle class="cls-4" cx="805.6" cy="689.66" r="4.41"/><circle class="cls-4" cx="805.6" cy="706.87" r="4.41"/><circle class="cls-4" cx="805.6" cy="724.08" r="4.41"/><circle class="cls-4" cx="805.6" cy="741.29" r="4.41"/><circle class="cls-4" cx="805.6" cy="758.5" r="4.41"/><circle class="cls-4" cx="805.6" cy="775.71" r="4.41"/><circle class="cls-4" cx="805.6" cy="792.92" r="4.41"/><circle class="cls-4" cx="805.6" cy="810.13" r="4.41"/><circle class="cls-4" cx="805.6" cy="827.34" r="4.41"/><circle class="cls-4" cx="805.6" cy="844.55" r="4.41"/><circle class="cls-4" cx="805.6" cy="861.76" r="4.41"/><circle class="cls-4" cx="822.71" cy="689.66" r="4.41"/><circle class="cls-4" cx="822.71" cy="706.87" r="4.41"/><circle class="cls-4" cx="822.71" cy="724.08" r="4.41"/><circle class="cls-4" cx="822.71" cy="741.29" r="4.41"/><circle class="cls-4" cx="822.71" cy="758.5" r="4.41"/><circle class="cls-4" cx="822.71" cy="775.71" r="4.41"/><circle class="cls-4" cx="822.71" cy="792.92" r="4.41"/><circle class="cls-4" cx="822.71" cy="810.13" r="4.41"/><circle class="cls-4" cx="822.71" cy="827.34" r="4.41"/><circle class="cls-4" cx="822.71" cy="844.55" r="4.41"/><circle class="cls-4" cx="822.71" cy="861.76" r="4.41"/><circle class="cls-4" cx="839.82" cy="689.66" r="4.41"/><circle class="cls-4" cx="839.82" cy="706.87" r="4.41"/><circle class="cls-4" cx="839.82" cy="724.08" r="4.41"/><circle class="cls-4" cx="839.82" cy="741.29" r="4.41"/><circle class="cls-4" cx="839.82" cy="758.5" r="4.41"/><circle class="cls-4" cx="839.82" cy="775.71" r="4.41"/><circle class="cls-4" cx="839.82" cy="792.92" r="4.41"/><circle class="cls-4" cx="839.82" cy="810.13" r="4.41"/><circle class="cls-4" cx="839.82" cy="827.34" r="4.41"/><circle class="cls-4" cx="839.82" cy="844.55" r="4.41"/><circle class="cls-4" cx="839.82" cy="861.76" r="4.41"/><circle class="cls-4" cx="856.93" cy="689.66" r="4.41"/><circle class="cls-4" cx="856.93" cy="706.87" r="4.41"/><circle class="cls-4" cx="856.93" cy="724.08" r="4.41"/><circle class="cls-4" cx="856.93" cy="741.29" r="4.41"/><circle class="cls-4" cx="856.93" cy="758.5" r="4.41"/><circle class="cls-4" cx="856.93" cy="775.71" r="4.41"/><circle class="cls-4" cx="856.93" cy="792.92" r="4.41"/><circle class="cls-4" cx="856.93" cy="810.13" r="4.41"/><circle class="cls-4" cx="856.93" cy="827.34" r="4.41"/><circle class="cls-4" cx="856.93" cy="844.55" r="4.41"/><circle class="cls-4" cx="856.93" cy="861.76" r="4.41"/><circle class="cls-4" cx="874.04" cy="689.66" r="4.41"/><circle class="cls-4" cx="874.04" cy="706.87" r="4.41"/><circle class="cls-4" cx="874.04" cy="724.08" r="4.41"/><circle class="cls-4" cx="874.04" cy="741.29" r="4.41"/><circle class="cls-4" cx="874.04" cy="758.5" r="4.41"/><circle class="cls-4" cx="874.04" cy="775.71" r="4.41"/><circle class="cls-4" cx="874.04" cy="792.92" r="4.41"/><circle class="cls-4" cx="874.04" cy="810.13" r="4.41"/><circle class="cls-4" cx="874.04" cy="827.34" r="4.41"/><circle class="cls-4" cx="874.04" cy="844.55" r="4.41"/><circle class="cls-4" cx="874.04" cy="861.76" r="4.41"/><circle class="cls-4" cx="891.15" cy="689.66" r="4.41"/><circle class="cls-4" cx="891.15" cy="706.87" r="4.41"/><circle class="cls-4" cx="891.15" cy="724.08" r="4.41"/><circle class="cls-4" cx="891.15" cy="741.29" r="4.41"/><circle class="cls-4" cx="891.15" cy="758.5" r="4.41"/><circle class="cls-4" cx="891.15" cy="775.71" r="4.41"/><circle class="cls-4" cx="891.15" cy="792.92" r="4.41"/><circle class="cls-4" cx="891.15" cy="810.13" r="4.41"/><circle class="cls-4" cx="891.15" cy="827.34" r="4.41"/><circle class="cls-4" cx="891.15" cy="844.55" r="4.41"/><circle class="cls-4" cx="891.15" cy="861.76" r="4.41"/><circle class="cls-5" cx="1009.02" cy="776.17" r="67.56"/><circle class="cls-5" cx="1009.02" cy="776.17" r="20.56"/><circle class="cls-4" cx="1006.09" cy="769.56" r="2.2"/><circle class="cls-4" cx="1011.02" cy="784.3" r="2.2"/><path class="cls-5" d="M1029.06,816.25a1.85,1.85,0,0,0-.76,2.49l7.92,14.91a1.83,1.83,0,1,0,3.24-1.72L1031.54,817a1.83,1.83,0,0,0-2.47-.77Z"/><path class="cls-5" d="M963.94,776.33a1.83,1.83,0,0,0-1.81-1.85h0l-16.89-.14a1.84,1.84,0,0,0-1.85,1.82,1.82,1.82,0,0,0,1.8,1.85h0l16.88.15a1.83,1.83,0,0,0,1.85-1.82Z"/><path class="cls-4" d="M1038.38,723.2l-.09,8.77a.69.69,0,0,1-.67.71.64.64,0,0,1-.31-.06l-6.68-3.18a.7.7,0,0,1-.32-.92.68.68,0,0,1,.18-.23l6.76-5.59a.68.68,0,0,1,1,.08A.73.73,0,0,1,1038.38,723.2Z"/><path class="cls-4" d="M980.74,706.69l-.65.25-1.53-4.26a3.83,3.83,0,0,1-.47.69,4.53,4.53,0,0,1-.57.59l-.24-.64a4.63,4.63,0,0,0,.76-1,2.78,2.78,0,0,0,.32-.93l.43-.16Z"/><path class="cls-4" d="M984.4,705.38l-.64.24-1.53-4.26a3.65,3.65,0,0,1-.47.69,4.71,4.71,0,0,1-.58.6L981,702a4.61,4.61,0,0,0,.75-1,2.64,2.64,0,0,0,.33-.94l.43-.16Z"/><path class="cls-4" d="M985.14,702.08a5.34,5.34,0,0,1-.35-1.63,2,2,0,0,1,.26-1.11,1.59,1.59,0,0,1,.87-.68,1.84,1.84,0,0,1,.84-.1,1.72,1.72,0,0,1,.72.31,3.27,3.27,0,0,1,.65.69,6.18,6.18,0,0,1,.58,1.25,5.53,5.53,0,0,1,.36,1.61,2.14,2.14,0,0,1-.26,1.13,1.68,1.68,0,0,1-.88.67,1.6,1.6,0,0,1-1.44-.12A3.83,3.83,0,0,1,985.14,702.08Zm.69-.24a3.74,3.74,0,0,0,1,1.67,1,1,0,0,0,.93.16,1,1,0,0,0,.64-.72,5.46,5.46,0,0,0-1.28-3.57,1,1,0,0,0-.94-.16.92.92,0,0,0-.6.64,3.84,3.84,0,0,0,.29,2Z"/><path class="cls-4" d="M1042.51,707.54l.6.34a1.16,1.16,0,0,0-.14.75.88.88,0,0,0,.4.54,1,1,0,0,0,.55.22,1.19,1.19,0,0,0,.56-.1,2.47,2.47,0,0,0,.61-.4,3.26,3.26,0,0,0,.58-.65l.08-.11a1.64,1.64,0,0,1-.79.11,1.49,1.49,0,0,1-.78-.29,1.58,1.58,0,0,1-.69-1.12,2.16,2.16,0,0,1,1.62-2.27,1.76,1.76,0,0,1,1.37.31,1.78,1.78,0,0,1,.64.84,1.87,1.87,0,0,1,.09,1.12,4.5,4.5,0,0,1-.73,1.47,5.75,5.75,0,0,1-1.22,1.29,2.19,2.19,0,0,1-1.16.4,1.84,1.84,0,0,1-1.11-.36,1.57,1.57,0,0,1-.69-.94A1.59,1.59,0,0,1,1042.51,707.54Zm3.86-.42a1.44,1.44,0,0,0,.29-1,1.06,1.06,0,0,0-1.33-.9,1.39,1.39,0,0,0-.87.64,1.21,1.21,0,0,0-.24.92,1.1,1.1,0,0,0,.48.76,1,1,0,0,0,.86.18,1.41,1.41,0,0,0,.8-.62Z"/><path class="cls-4" d="M1047.41,709.12a5,5,0,0,1,1.12-1.22,2.1,2.1,0,0,1,1.07-.43,1.65,1.65,0,0,1,1.05.32,1.75,1.75,0,0,1,.56.65,1.47,1.47,0,0,1,.16.77,2.86,2.86,0,0,1-.2.91,6.1,6.1,0,0,1-.68,1.19,5,5,0,0,1-1.12,1.23,2,2,0,0,1-1.06.43,1.77,1.77,0,0,1-1.79-1.57A3.83,3.83,0,0,1,1047.41,709.12Zm.6.43a3.52,3.52,0,0,0-.82,1.74,1,1,0,0,0,.4.86,1,1,0,0,0,.94.08,5.51,5.51,0,0,0,2.18-3.1,1,1,0,0,0-.4-.86.9.9,0,0,0-.88-.11,3.52,3.52,0,0,0-1.42,1.39Z"/><path class="cls-4" d="M1087,758.58l.68-.06.32,3.73-.55,0a8.29,8.29,0,0,0-1.66-.95,9.31,9.31,0,0,0-2.06-.65,7.24,7.24,0,0,0-1.61-.13l-.06-.73a7.07,7.07,0,0,1,1.66.13,9.12,9.12,0,0,1,1.93.57,8.11,8.11,0,0,1,1.6.9Z"/><path class="cls-4" d="M1083.93,763.83l.13.74a1.43,1.43,0,0,0-.79.45,1.1,1.1,0,0,0-.21.75,1.19,1.19,0,0,0,.46.83,1.46,1.46,0,0,0,1,.27,1.32,1.32,0,0,0,.93-.42,1.14,1.14,0,0,0,.27-.92,1.3,1.3,0,0,0-.2-.61,1.53,1.53,0,0,0-.44-.4v-.64l3,.31.24,2.87-.67.05-.2-2.3-1.58-.18a1.92,1.92,0,0,1,.46,1.06A1.72,1.72,0,0,1,1086,767a1.83,1.83,0,0,1-1.28.64,2.16,2.16,0,0,1-1.4-.34,1.81,1.81,0,0,1-.82-1.45,1.87,1.87,0,0,1,.33-1.32A1.76,1.76,0,0,1,1083.93,763.83Z"/><path class="cls-4" d="M1087.12,793l.64.23-1.28,3.53-.52-.19a7.65,7.65,0,0,0-1.1-1.55,9.76,9.76,0,0,0-1.61-1.47,7.73,7.73,0,0,0-1.4-.79l.25-.69a6.89,6.89,0,0,1,1.45.81,8.27,8.27,0,0,1,1.51,1.32,7.73,7.73,0,0,1,1.08,1.47Z"/><path class="cls-4" d="M1083.39,796.94a4.88,4.88,0,0,1,1.49.76,2,2,0,0,1,.7.91,1.73,1.73,0,0,1,0,1.1,1.65,1.65,0,0,1-.46.7,1.49,1.49,0,0,1-.7.37,2.91,2.91,0,0,1-.93.05,5.53,5.53,0,0,1-1.33-.34,5.43,5.43,0,0,1-1.48-.75,2,2,0,0,1-.7-.91,1.63,1.63,0,0,1,0-1.11,1.57,1.57,0,0,1,1-1A3.74,3.74,0,0,1,1083.39,796.94Zm-.24.69a3.66,3.66,0,0,0-1.9-.33,1,1,0,0,0-.72.61,1,1,0,0,0,.17.94,3.63,3.63,0,0,0,1.67.95,3.47,3.47,0,0,0,1.93.32,1,1,0,0,0,.73-.64.91.91,0,0,0-.13-.87,3.72,3.72,0,0,0-1.75-1Z"/><path class="cls-4" d="M1062.56,834.74l.53-.47a1.41,1.41,0,0,0,.58.33,1,1,0,0,0,.75-.18,1,1,0,0,0,.36-.51,1.5,1.5,0,0,0,0-.89,3.44,3.44,0,0,0-.64-1.19,1.72,1.72,0,0,1-.15.84,1.67,1.67,0,0,1-.51.64,1.6,1.6,0,0,1-1.29.31,1.86,1.86,0,0,1-1.2-.78,2.09,2.09,0,0,1-.42-1,1.66,1.66,0,0,1,.08-1,1.85,1.85,0,0,1,.6-.76,1.83,1.83,0,0,1,1.55-.34,3.24,3.24,0,0,1,1.73,1.38,3.78,3.78,0,0,1,1,2.32,1.79,1.79,0,0,1-.76,1.41,1.7,1.7,0,0,1-1.13.36A1.57,1.57,0,0,1,1062.56,834.74Zm.82-3.73a1.52,1.52,0,0,0-.54-.47,1.22,1.22,0,0,0-.65-.15,1.2,1.2,0,0,0-.57.21,1,1,0,0,0-.43.76,1.49,1.49,0,0,0,.34,1,1.31,1.31,0,0,0,.82.55,1,1,0,0,0,.85-.2,1.09,1.09,0,0,0,.45-.77A1.23,1.23,0,0,0,1063.38,831Z"/><path class="cls-4" d="M1059.78,833.27l-.56.5a1.37,1.37,0,0,0-.8-.43,1,1,0,0,0-.74.22,1.14,1.14,0,0,0-.47.83,1.48,1.48,0,0,0,.33,1,1.27,1.27,0,0,0,.85.56,1.2,1.2,0,0,0,.93-.25,1.24,1.24,0,0,0,.4-.5,1.15,1.15,0,0,0,.1-.58l.59-.33,1.33,2.71-2.3,1.73-.4-.55,1.84-1.39-.68-1.42a1.83,1.83,0,0,1-.65.94,1.69,1.69,0,0,1-1.33.35,1.78,1.78,0,0,1-1.22-.76,2.11,2.11,0,0,1-.46-1.36,1.84,1.84,0,0,1,.8-1.48,1.87,1.87,0,0,1,1.28-.42A1.74,1.74,0,0,1,1059.78,833.27Z"/><path class="cls-4" d="M962.47,837.36l-.58-.48a1.33,1.33,0,0,0,.31-.85,1.07,1.07,0,0,0-.33-.71A1.12,1.12,0,0,0,961,835a1.46,1.46,0,0,0-1,.48,1.31,1.31,0,0,0-.43.92,1.17,1.17,0,0,0,.39.88,1.07,1.07,0,0,0,.54.32,1.22,1.22,0,0,0,.6,0l.41.54-2.5,1.73-2-2,.48-.48L959.1,839l1.32-.89a1.84,1.84,0,0,1-1-.51,1.72,1.72,0,0,1-.54-1.28,1.91,1.91,0,0,1,.58-1.33,2.18,2.18,0,0,1,1.29-.64,1.85,1.85,0,0,1,1.57.57,1.94,1.94,0,0,1,.61,1.22A1.81,1.81,0,0,1,962.47,837.36Z"/><path class="cls-4" d="M958.9,833.82l-.57-.48a1.38,1.38,0,0,0,.3-.85,1.06,1.06,0,0,0-.32-.71,1.16,1.16,0,0,0-.9-.34,1.48,1.48,0,0,0-1,.48,1.35,1.35,0,0,0-.43.92,1.17,1.17,0,0,0,.39.88,1.29,1.29,0,0,0,.55.33,1.47,1.47,0,0,0,.59,0l.41.53-2.49,1.71-2-2,.48-.48,1.64,1.62,1.28-.89a1.78,1.78,0,0,1-1-.51,1.69,1.69,0,0,1-.54-1.28,1.76,1.76,0,0,1,.61-1.3,2.11,2.11,0,0,1,1.28-.65,1.85,1.85,0,0,1,1.58.58,2,2,0,0,1,.6,1.22A1.76,1.76,0,0,1,958.9,833.82Z"/><path class="cls-4" d="M1020.06,854.88l.7-.09a1.33,1.33,0,0,0,.3.59.94.94,0,0,0,.73.27,1,1,0,0,0,.58-.21,1.77,1.77,0,0,0,.5-.74,3.61,3.61,0,0,0,.13-1.35,1.53,1.53,0,0,1-.6.61,1.57,1.57,0,0,1-.76.23,1.67,1.67,0,0,1-1.24-.46,2,2,0,0,1-.56-1.33,2.3,2.3,0,0,1,.19-1,1.69,1.69,0,0,1,1.52-1,1.82,1.82,0,0,1,1.48.58,3.39,3.39,0,0,1,.65,2.12,3.89,3.89,0,0,1-.51,2.47,1.78,1.78,0,0,1-1.42.73,1.58,1.58,0,0,1-1.13-.33A1.61,1.61,0,0,1,1020.06,854.88Zm2.78-2.63a1.7,1.7,0,0,0-.19-.69,1.09,1.09,0,0,0-.46-.49,1.05,1.05,0,0,0-.6-.15,1,1,0,0,0-.75.4,1.43,1.43,0,0,0-.27,1,1.36,1.36,0,0,0,.33,1,1.06,1.06,0,0,0,.82.3,1.11,1.11,0,0,0,.79-.38,1.22,1.22,0,0,0,.3-1Z"/><path class="cls-4" d="M1018.62,853.43a5.14,5.14,0,0,1-.14,1.66,2,2,0,0,1-.58,1,1.55,1.55,0,0,1-1,.41,1.7,1.7,0,0,1-.83-.15,1.56,1.56,0,0,1-.6-.51,3,3,0,0,1-.4-.84,5.72,5.72,0,0,1-.19-1.36A5.1,5.1,0,0,1,1015,852a2.05,2.05,0,0,1,.57-1,1.6,1.6,0,0,1,1-.39,1.58,1.58,0,0,1,1.34.54A3.8,3.8,0,0,1,1018.62,853.43Zm-.73,0a3.67,3.67,0,0,0-.42-1.87,1,1,0,0,0-.85-.43,1,1,0,0,0-.8.5,3.65,3.65,0,0,0-.24,1.93,3.59,3.59,0,0,0,.42,1.88,1,1,0,0,0,.85.43.93.93,0,0,0,.77-.45A3.77,3.77,0,0,0,1017.89,853.46Z"/><path class="cls-4" d="M931,777.05a5.16,5.16,0,0,1-1.64-.34,2,2,0,0,1-.91-.7,1.55,1.55,0,0,1-.25-1.07,1.64,1.64,0,0,1,.25-.8,1.62,1.62,0,0,1,.59-.54,3.25,3.25,0,0,1,.88-.29,6.27,6.27,0,0,1,1.37,0,5.33,5.33,0,0,1,1.62.34,2,2,0,0,1,.92.7,1.78,1.78,0,0,1-.45,2.36A3.77,3.77,0,0,1,931,777.05Zm0-.73a3.53,3.53,0,0,0,1.93-.18,1,1,0,0,0,.53-.78,1,1,0,0,0-.4-.86,3.69,3.69,0,0,0-1.86-.48,3.72,3.72,0,0,0-1.93.18,1,1,0,0,0-.54.79.92.92,0,0,0,.36.82A3.67,3.67,0,0,0,931,776.32Z"/><path class="cls-4" d="M938.1,749.17l-.34.64-4-2.14a3.24,3.24,0,0,1,.11.82,4.72,4.72,0,0,1,0,.84l-.61-.33a4.28,4.28,0,0,0-.09-1.24,2.78,2.78,0,0,0-.39-.92l.22-.41Z"/><path class="cls-4" d="M937.89,746.36l.29-.68a1.33,1.33,0,0,0,.9.05,1,1,0,0,0,.59-.51,1.13,1.13,0,0,0,.07-1,1.43,1.43,0,0,0-.73-.8,1.32,1.32,0,0,0-1-.15,1.19,1.19,0,0,0-.73.64,1.32,1.32,0,0,0-.16.64,1.13,1.13,0,0,0,.15.57l-.39.55-2.35-1.93,1.37-2.53.59.32-1.09,2,1.22,1a1.92,1.92,0,0,1,.2-1.13,1.67,1.67,0,0,1,1.07-.87,1.79,1.79,0,0,1,1.43.18,2.11,2.11,0,0,1,1,1,2,2,0,0,1-1.11,2.6A1.65,1.65,0,0,1,937.89,746.36Z"/><path class="cls-4" d="M939.09,741.31a5.39,5.39,0,0,1-1.35-1,2,2,0,0,1-.55-1,1.51,1.51,0,0,1,.2-1.08,1.73,1.73,0,0,1,.55-.65,1.67,1.67,0,0,1,.75-.25,2.91,2.91,0,0,1,.93.09,5.19,5.19,0,0,1,1.29.54,5.53,5.53,0,0,1,1.35,1,2.18,2.18,0,0,1,.55,1,1.55,1.55,0,0,1-.2,1.09,1.59,1.59,0,0,1-1.15.86A3.81,3.81,0,0,1,939.09,741.31Zm.35-.65a3.65,3.65,0,0,0,1.83.65,1,1,0,0,0,.8-.51,1,1,0,0,0,0-.95,3.75,3.75,0,0,0-1.51-1.19,3.7,3.7,0,0,0-1.83-.61,1.06,1.06,0,0,0-.81.51.94.94,0,0,0,0,.89A3.74,3.74,0,0,0,939.44,740.66Z"/><rect class="cls-6" x="691.34" y="657.35" width="425.2" height="237.2" rx="7.03" ry="7.03"/><path class="cls-4" d="M985.32,848.22l.65.3L984,852.61a3.73,3.73,0,0,1,.81-.15,3.84,3.84,0,0,1,.83,0l-.29.64a4.31,4.31,0,0,0-1.23.18,2.56,2.56,0,0,0-.9.42l-.41-.19Z"/><path class="cls-4" d="M978,849.59l.64.25a1.43,1.43,0,0,0,0,.65,1,1,0,0,0,.51.58,1.08,1.08,0,0,0,.64.08,1.47,1.47,0,0,0,.78-.43,3.66,3.66,0,0,0,.76-1.11,1.71,1.71,0,0,1-.82.25,1.61,1.61,0,0,1-.78-.16,1.58,1.58,0,0,1-.87-1,2,2,0,0,1,.12-1.44,2.4,2.4,0,0,1,.64-.81,1.84,1.84,0,0,1,.9-.37,1.71,1.71,0,0,1,.94.18,1.8,1.8,0,0,1,1,1.2,3.28,3.28,0,0,1-.41,2.19,3.93,3.93,0,0,1-1.6,1.93,1.8,1.8,0,0,1-1.6,0,1.59,1.59,0,0,1-.88-2Zm3.69-1a1.69,1.69,0,0,0,.15-.7,1.1,1.1,0,0,0-.17-.64,1.07,1.07,0,0,0-.46-.41,1,1,0,0,0-.85,0,1.48,1.48,0,0,0-.72.76,1.37,1.37,0,0,0-.11,1,1.05,1.05,0,0,0,.58.64,1.1,1.1,0,0,0,.89,0A1.31,1.31,0,0,0,981.69,848.57Z"/><path class="cls-4" d="M936.52,799.42l.13.7-4.44.86a3.15,3.15,0,0,1,.64.57,4.48,4.48,0,0,1,.51.64l-.68.13a4,4,0,0,0-.86-.89,2.9,2.9,0,0,0-.88-.48l-.09-.44Z"/><path class="cls-4" d="M934.6,797.4l-.21-.72a1.36,1.36,0,0,0,.73-.53,1.09,1.09,0,0,0,.14-.77,1.15,1.15,0,0,0-.56-.78,1.42,1.42,0,0,0-1.07-.15,1.35,1.35,0,0,0-.87.51,1.23,1.23,0,0,0-.18.95,1.4,1.4,0,0,0,.27.58,1.23,1.23,0,0,0,.49.35l0,.64h-3l-.54-2.82.64-.13.44,2.27h1.58a1.87,1.87,0,0,1-.55-1,1.66,1.66,0,0,1,.27-1.35,1.82,1.82,0,0,1,1.22-.77,2.12,2.12,0,0,1,1.42.19,2,2,0,0,1,.79,2.7A1.73,1.73,0,0,1,934.6,797.4Z"/><path class="cls-4" d="M1076.81,805.78l.37-.64,3.86,2.34a3.29,3.29,0,0,1-.07-.83,4.73,4.73,0,0,1,.07-.83l.59.36a4.28,4.28,0,0,0,0,1.24,2.57,2.57,0,0,0,.33.94l-.23.4Z"/><path class="cls-4" d="M1077.71,810.35a1.31,1.31,0,0,1,.73-.32,1.13,1.13,0,0,1,.74.19,1.44,1.44,0,0,1,.65.94,1.66,1.66,0,0,1-.26,1.28,1.71,1.71,0,0,1-1,.82,1.48,1.48,0,0,1-1.16-.16,1.22,1.22,0,0,1-.48-.55,1.3,1.3,0,0,1-.06-.78,1.62,1.62,0,0,1-.89.38,1.57,1.57,0,0,1-.94-.25,1.67,1.67,0,0,1-.79-1.09,2.15,2.15,0,0,1,1.44-2.36,1.66,1.66,0,0,1,1.35.21,1.57,1.57,0,0,1,.64.73A1.5,1.5,0,0,1,1077.71,810.35Zm-1.06-1.07a1.24,1.24,0,0,0-.58-.19,1,1,0,0,0-.6.14,1.35,1.35,0,0,0-.45.44,1.13,1.13,0,0,0-.15.89,1.08,1.08,0,0,0,.54.71,1.1,1.1,0,0,0,.9.15,1.24,1.24,0,0,0,.88-1.44,1.12,1.12,0,0,0-.54-.7Zm2.16,1.58a.93.93,0,0,0-.71-.12.92.92,0,0,0-.58.46,1,1,0,0,0-.13.7.84.84,0,0,0,.41.56.91.91,0,0,0,.7.11.92.92,0,0,0,.58-.44.93.93,0,0,0,.12-.71A.81.81,0,0,0,1078.81,810.86Z"/></g><g id="DMN_Logo" data-name="DMN Logo"><path class="cls-4" d="M1454.38,1700.44v-27.19l8.38-2.22c7-1.87,10.11,2.26,10.11,10.48,0,9.42-4.11,15.11-10.51,16.81Zm7.25-26.9v22.76l.45-.12c2-.54,3.1-1.83,3.1-13.31,0-8-.53-10.13-3.1-9.45Z"/><path class="cls-4" d="M1495.67,1678.27v-15l-4.91,16.29-5.4,1.44-5-13v14.33l-2.21.59v-27.18l4.67-1.25,7.37,18.79,6.57-22.49,5.8-1.54v27.18Z"/><path class="cls-4" d="M1521.13,1661.44,1511,1646.85v17.27l-2.22.59v-27.18l5-1.34,10.15,15.3v-18l2.21-.59v27.19Z"/><polygon class="cls-4" points="1447.96 1656.75 1447.93 1652.96 1532.94 1630.16 1532.97 1633.94 1447.96 1656.75"/><polygon class="cls-4" points="1447.96 1703.88 1447.93 1700.1 1532.94 1677.29 1532.97 1681.07 1447.96 1703.88"/></g><text class="cls-7" transform="translate(691.34 575.46)">T3</text><text class="cls-8" transform="translate(688.5 976.46)">Pocket transistor radio 1:1<tspan x="0" y="43.2">1958</tspan></text></g></g></svg>