<svg xmlns="http://www.w3.org/2000/svg" viewBox="0 0 2230.16 1986.47"><defs><style>.cls-1{fill:#ff7bac;}.cls-1,.cls-2,.cls-3{stroke:#2600b1;stroke-miterlimit:10;}.cls-1,.cls-2{stroke-width:2px;}.cls-2,.cls-3{fill:none;}.cls-4,.cls-5,.cls-6{fill:#2600b1;}.cls-5{font-size:72px;}.cls-5,.cls-6{font-family:HelveticaNeue, Helvetica Neue;}.cls-6{font-size:36px;}.cls-7{letter-spacing:-0.09em;}</style></defs><title>Asset 5</title><g id="Layer_2" data-name="Layer 2"><g id="Layer_1-2" data-name="Layer 1"><g id="T-Shirts"><path class="cls-1" d="M822.81,1.21,413.45,157.09,1.36,648.08,292.85,930.21,445.6,805.51l1.56,1180H1776.75V808.63l151.19,107.55,300.84-286.8-410-470.73L1401.1,1.21s-57.68,85.73-286,82.62S822.81,1.21,822.81,1.21Z"/><path class="cls-2" d="M1401.1,1.21c0,119.27-106.7,238.88-295.3,235.76S821.25,105.65,822.81,1.21"/><path class="cls-3" d="M413.45,157.09C516.69,294,501.82,635.93,445.6,805.51"/><path class="cls-2" d="M1818.83,158.65c-84.19,126.85-129.41,205.55-42.08,650"/><line class="cls-3" x1="1899.83" y1="896.18" x2="2204.27" y2="601.24"/><line class="cls-3" x1="322.34" y1="906.14" x2="22.84" y2="622.5"/><path class="cls-3" d="M832.16,61.41c202.26,84.05,435.7,62.37,559.82,0"/><path class="cls-3" d="M1430.5,12.29C1410,147.58,1301,272.77,1122.09,274.89S790.65,150.73,793.71,12.29"/><line class="cls-3" x1="447.11" y1="1949.62" x2="1776.75" y2="1949.62"/></g><g id="AB_20_20_travel_clock_1975" data-name="AB 20 20 travel clock 1975"><rect class="cls-2" x="691.34" y="657.35" width="243.78" height="178.1" rx="3.11" ry="3.11"/><circle class="cls-2" cx="805.69" cy="746.4" r="84.99"/><circle class="cls-4" cx="911.17" cy="697.02" r="3.62"/><circle class="cls-2" cx="911.17" cy="723.29" r="15.4"/><circle class="cls-2" cx="911.17" cy="771.94" r="15.4"/><line class="cls-2" x1="901.17" y1="734.85" x2="901.17" y2="760.1"/><line class="cls-2" x1="921.17" y1="734.85" x2="921.17" y2="760.1"/><circle class="cls-2" cx="805.69" cy="746.4" r="81.34"/><path class="cls-4" d="M812.56,744.15l45.3-33.86a2.43,2.43,0,0,0-2.85-3.94l-.07,0-45.3,33.85a7.75,7.75,0,1,0,2.9,3.9Z"/><path class="cls-4" d="M807.46,744.62l-44.09-28.75a2.43,2.43,0,0,0-2.65,4.08L804.8,748.7a2.44,2.44,0,1,0,2.66-4.08Zm-41.6-24.21a1.62,1.62,0,0,1-2.22.46l-2.11-1.37a1.61,1.61,0,0,1,1.55-2.82l.21.13,2.1,1.38A1.61,1.61,0,0,1,765.86,720.41Z"/><path class="cls-4" d="M810.07,747.88a4.72,4.72,0,0,0-2.55-5.26l2-8.5-2.31-.52-1.8,8.57a4.71,4.71,0,0,0-1.89,9L791.73,807l.86.19,12.87-55.6A4.72,4.72,0,0,0,810.07,747.88Z"/><rect class="cls-4" x="803.79" y="681.74" width="3.56" height="8.6"/><rect class="cls-4" x="830.73" y="691.91" width="8.6" height="3.56" transform="translate(-178.09 1083.66) rotate(-60.77)"/><rect class="cls-4" x="853.25" y="713.58" width="8.6" height="3.56" transform="translate(-245.38 540.19) rotate(-30.81)"/><rect class="cls-4" x="861.76" y="744.4" width="8.6" height="3.56" transform="translate(-1.3 1.51) rotate(-0.1)"/><rect class="cls-4" x="855.84" y="773.04" width="3.56" height="8.6" transform="translate(-249.7 1114.42) rotate(-59.12)"/><rect class="cls-4" x="833.21" y="794.95" width="3.56" height="8.6" transform="translate(-282.33 503.27) rotate(-28.91)"/><rect class="cls-4" x="801.28" y="804.94" width="8.6" height="3.56" transform="translate(-4.5 1608.91) rotate(-89.76)"/><rect class="cls-4" x="774.29" y="689.4" width="3.56" height="8.6" transform="translate(-239.92 467.3) rotate(-29.23)"/><rect class="cls-4" x="751.82" y="711.03" width="3.56" height="8.6" transform="translate(-246.77 996.19) rotate(-59.19)"/><rect class="cls-4" x="743.28" y="741.87" width="3.56" height="8.6" transform="translate(-2.41 1489.93) rotate(-89.9)"/><rect class="cls-4" x="749.19" y="775.52" width="8.6" height="3.56" transform="translate(-292.13 496.91) rotate(-30.88)"/><rect class="cls-4" x="771.79" y="797.45" width="8.6" height="3.56" transform="translate(-298.73 1092.23) rotate(-61.09)"/><path class="cls-4" d="M808.39,665.11a3.63,3.63,0,1,1-7.09,1.52,3.84,3.84,0,0,1-.08-.76,3.08,3.08,0,0,1,.07-.68c1.46-.08,2.93-.12,4.4-.12C806.59,665.07,807.49,665.09,808.39,665.11Z"/><rect class="cls-4" x="810.35" y="683.12" width="3.57" height="1.48" transform="matrix(0.1, -0.99, 0.99, 0.1, 47.14, 1420.07)"/><rect class="cls-4" x="816.85" y="684.14" width="3.57" height="1.48" transform="translate(-21.47 1343.23) rotate(-78)"/><rect class="cls-4" x="823.22" y="685.83" width="3.57" height="1.48" transform="translate(-82.9 1259.03) rotate(-72)"/><rect class="cls-4" x="829.36" y="688.17" width="3.57" height="1.48" transform="translate(-136.26 1168) rotate(-66)"/><rect class="cls-4" x="840.76" y="694.72" width="3.57" height="1.48" transform="translate(-215.33 968.31) rotate(-54)"/><rect class="cls-4" x="845.88" y="698.85" width="3.57" height="1.48" transform="translate(-239.43 861.42) rotate(-48)"/><rect class="cls-4" x="850.55" y="703.5" width="3.57" height="1.48" transform="translate(-252.3 751.21) rotate(-42)"/><rect class="cls-4" x="861.29" y="719.97" width="3.57" height="1.48" transform="translate(-218.52 413.36) rotate(-24)"/><rect class="cls-4" x="863.66" y="726.11" width="3.57" height="1.48" transform="matrix(0.95, -0.31, 0.31, 0.95, -182.25, 303.01)"/><rect class="cls-4" x="865.38" y="732.47" width="3.57" height="1.48" transform="translate(-133.49 196.32) rotate(-12)"/><rect class="cls-4" x="866.43" y="738.97" width="3.57" height="1.48" transform="translate(-72.56 94.81) rotate(-6)"/><rect class="cls-4" x="867.5" y="751.06" width="1.48" height="3.57" transform="matrix(0.1, -0.99, 0.99, 0.1, 28.76, 1537.64)"/><rect class="cls-4" x="866.48" y="757.57" width="1.48" height="3.57" transform="translate(-55.84 1449.75) rotate(-78)"/><rect class="cls-4" x="864.79" y="763.93" width="1.48" height="3.57" transform="translate(-130.17 1352.27) rotate(-72)"/><rect class="cls-4" x="862.45" y="770.07" width="1.48" height="3.57" transform="translate(-193.03 1246.48) rotate(-66)"/><rect class="cls-4" x="855.9" y="781.47" width="1.48" height="3.57" transform="translate(-280.55 1015.9) rotate(-54)"/><rect class="cls-4" x="851.77" y="786.6" width="1.48" height="3.57" transform="translate(-303.82 894.39) rotate(-48)"/><rect class="cls-4" x="847.12" y="791.26" width="1.48" height="3.57" transform="matrix(0.74, -0.67, 0.67, 0.74, -312.88, 771.03)"/><rect class="cls-4" x="842.01" y="795.41" width="1.48" height="3.57" transform="translate(-307.63 647.61) rotate(-36)"/><rect class="cls-4" x="830.64" y="802.01" width="1.48" height="3.57" transform="translate(-255.06 407.64) rotate(-24)"/><rect class="cls-4" x="824.5" y="804.38" width="1.48" height="3.57" transform="translate(-208.73 294.47) rotate(-18)"/><rect class="cls-4" x="818.15" y="806.09" width="1.48" height="3.57" transform="matrix(0.98, -0.21, 0.21, 0.98, -150.07, 187.91)"/><rect class="cls-4" x="811.65" y="807.14" width="1.48" height="3.57" transform="translate(-80.11 89.35) rotate(-6)"/><rect class="cls-4" x="797.46" y="808.21" width="3.57" height="1.48" transform="translate(-88.81 1519.26) rotate(-84)"/><rect class="cls-4" x="790.96" y="807.19" width="3.57" height="1.48" transform="translate(-162.35 1415.37) rotate(-78)"/><rect class="cls-4" x="784.6" y="805.5" width="3.57" height="1.48" transform="translate(-223.4 1304.99) rotate(-72)"/><rect class="cls-4" x="778.45" y="803.16" width="3.57" height="1.48" transform="translate(-271.51 1189.7) rotate(-66)"/><rect class="cls-4" x="767.05" y="796.61" width="3.57" height="1.48" transform="translate(-328.14 950.68) rotate(-54)"/><rect class="cls-4" x="761.93" y="792.48" width="3.57" height="1.48" transform="translate(-336.78 830) rotate(-48)"/><rect class="cls-4" x="757.26" y="787.83" width="3.57" height="1.48" transform="translate(-332.69 710.45) rotate(-42)"/><rect class="cls-4" x="753.11" y="782.73" width="3.57" height="1.48" transform="translate(-316.34 593.35) rotate(-36)"/><rect class="cls-4" x="746.52" y="771.35" width="3.57" height="1.48" transform="translate(-249.34 371.11) rotate(-24)"/><rect class="cls-4" x="744.15" y="765.22" width="3.57" height="1.48" transform="translate(-200.18 267.99) rotate(-18)"/><rect class="cls-4" x="742.43" y="758.86" width="3.57" height="1.48" transform="translate(-141.67 171.33) rotate(-12)"/><rect class="cls-4" x="741.39" y="752.37" width="3.57" height="1.48" transform="translate(-74.65 81.81) rotate(-6)"/><rect class="cls-4" x="742.41" y="738.17" width="1.48" height="3.57" transform="translate(-70.44 1401.69) rotate(-84)"/><rect class="cls-4" x="743.42" y="731.67" width="1.48" height="3.57" transform="translate(-127.99 1308.86) rotate(-78)"/><rect class="cls-4" x="745.12" y="725.31" width="1.48" height="3.57" transform="translate(-176.13 1211.76) rotate(-72)"/><rect class="cls-4" x="747.46" y="719.16" width="1.48" height="3.57" transform="translate(-214.73 1111.23) rotate(-66)"/><rect class="cls-4" x="754.01" y="707.76" width="1.48" height="3.57" transform="matrix(0.59, -0.81, 0.81, 0.59, -262.92, 903.09)"/><rect class="cls-4" x="758.14" y="702.64" width="1.48" height="3.57" transform="translate(-272.4 797.03) rotate(-48)"/><rect class="cls-4" x="762.79" y="697.97" width="1.48" height="3.57" transform="translate(-272.11 690.63) rotate(-42)"/><rect class="cls-4" x="767.9" y="693.82" width="1.48" height="3.57" transform="translate(-262.07 584.64) rotate(-36)"/><rect class="cls-4" x="779.26" y="687.23" width="1.48" height="3.57" transform="translate(-212.81 376.82) rotate(-24)"/><rect class="cls-4" x="785.4" y="684.86" width="1.48" height="3.57" transform="translate(-173.71 276.54) rotate(-18)"/><rect class="cls-4" x="791.76" y="683.14" width="1.48" height="3.57" transform="translate(-125.09 179.74) rotate(-12)"/><rect class="cls-4" x="798.26" y="682.09" width="1.48" height="3.57" transform="translate(-67.11 87.26) rotate(-6)"/><path class="cls-4" d="M841.82,780.27h0a1.24,1.24,0,0,1-1.75.06l-35.39-33.11a1.24,1.24,0,0,1-.06-1.75h0a1.22,1.22,0,0,1,1.74-.06h0l35.4,33.11A1.24,1.24,0,0,1,841.82,780.27Z"/><path class="cls-4" d="M802.16,700.53v-6.12h-.1l-1.76,1.24V694l1.86-1.29H804v7.88Z"/><path class="cls-4" d="M805.12,695.12V695a2.54,2.54,0,0,1,2.83-2.5c1.72,0,2.84,1,2.84,2.25a3.65,3.65,0,0,1-1.41,2.51l-1.59,1.66V699h3.12v1.53h-5.68v-1.19l2.83-2.9a2.37,2.37,0,0,0,.86-1.49,1,1,0,0,0-2,0v.13Z"/><path class="cls-4" d="M806.75,793.9a1,1,0,0,0-1-.63c-1,0-1.52,1.16-1.47,2.4h.12a1.87,1.87,0,0,1,1.83-1,2.39,2.39,0,0,1,2.48,2.3.74.74,0,0,1,0,.21,2.74,2.74,0,0,1-3,2.8,2.89,2.89,0,0,1-2.62-1.36,5,5,0,0,1-.6-2.59c0-2.79,1.25-4.19,3.29-4.19,1.85,0,2.74,1.15,2.79,2.1Zm-1.1,4.58a1.14,1.14,0,0,0,1.21-1.07,1.09,1.09,0,0,0,0-.18,1.15,1.15,0,0,0-1.07-1.23h-.13a1.24,1.24,0,0,0,0,2.48Z"/><path class="cls-4" d="M853.59,745.18h.85a.93.93,0,1,0,0-1.83,1,1,0,0,0-1.11.91H851.6c0-1.39,1.1-2.34,2.92-2.34s2.81.86,2.82,2.08a1.75,1.75,0,0,1-1.45,1.75v.1a1.82,1.82,0,0,1,1.68,1.86c0,1.59-1.49,2.37-3.11,2.37-1.93,0-3-1.1-3-2.36h1.72c0,.53.54.9,1.24.9s1.25-.41,1.25-1-.46-1-1.23-1h-.88Z"/><path class="cls-4" d="M753.71,748a1,1,0,0,0,1,.59c1,0,1.54-1,1.49-2.4h-.11a1.8,1.8,0,0,1-1.79,1,2.44,2.44,0,0,1-2.56-2.57,2.74,2.74,0,0,1,3-2.75c1.75,0,3.22,1.06,3.22,4,0,2.71-1.14,4.16-3.29,4.16-1.84,0-2.7-1.1-2.76-2.05Zm1.06-4.67a1.25,1.25,0,0,0-1.3,1.2,1.26,1.26,0,1,0,2.51.09v0a1.16,1.16,0,0,0-1.05-1.26Z"/><path class="cls-4" d="M838.62,687.79a.41.41,0,0,0,.44.29.44.44,0,0,0,.45-.42v0a.42.42,0,0,0-.42-.43s0,0,0,0a.43.43,0,0,0-.39.22h-.59l.11-1.64H840v.53h-1.27l-.05.64h0a.67.67,0,0,1,.56-.23.85.85,0,0,1,.9.81v.1a1,1,0,0,1-1.09,1c-.65,0-1-.35-1-.81Z"/><path class="cls-4" d="M864.15,713.72v-2.15h0l-.62.43v-.6l.64-.46h.65v2.78Z"/><path class="cls-4" d="M865.18,712.26c0-.83.42-1.37,1.1-1.37s1.1.53,1.1,1.37v.14c0,.82-.43,1.37-1.11,1.37s-1.09-.53-1.09-1.37Zm.67.14c0,.52.16.83.42.83s.44-.32.44-.83v-.14c0-.52-.16-.83-.44-.83s-.42.31-.42.83Z"/><path class="cls-4" d="M873,747.47v-2.16h0l-.63.44v-.6l.65-.46h.66v2.78Z"/><path class="cls-4" d="M874.62,746.71a.41.41,0,0,0,.44.29.44.44,0,0,0,.45-.42v0a.43.43,0,0,0-.42-.44h0a.43.43,0,0,0-.39.22h-.59l.11-1.64H876v.53h-1.27l-.05.65h0a.65.65,0,0,1,.56-.24.86.86,0,0,1,.9.82v.09a1,1,0,0,1-1,1h-.12c-.63,0-1-.36-1-.81Z"/><path class="cls-4" d="M862.64,780.55v0a.9.9,0,0,1,.91-.89h.09c.61,0,1,.35,1,.8a1.23,1.23,0,0,1-.49.88l-.56.59v0h1.1v.53h-2V782l1-1a.82.82,0,0,0,.32-.53.36.36,0,0,0-.71,0v0Z"/><path class="cls-4" d="M864.8,781c0-.82.42-1.37,1.11-1.37s1.09.53,1.09,1.37v.14c0,.83-.43,1.37-1.11,1.37s-1.09-.53-1.09-1.37Zm.67.14c0,.53.16.83.43.83s.43-.32.43-.83V781c0-.53-.16-.83-.43-.83s-.43.3-.43.83Z"/><path class="cls-4" d="M837.3,805.5v0a.9.9,0,0,1,.91-.88h.1c.6,0,1,.32,1,.79a1.28,1.28,0,0,1-.5.88l-.56.59v0h1.1v.54h-2V807l1-1a.81.81,0,0,0,.31-.53.36.36,0,1,0-.71,0v0Z"/><path class="cls-4" d="M840.1,806.65a.41.41,0,0,0,.44.29.43.43,0,0,0,.44-.43v0a.42.42,0,0,0-.42-.43h0a.44.44,0,0,0-.4.22h-.59l.11-1.64h1.8v.53h-1.29l0,.64h0a.65.65,0,0,1,.56-.23.86.86,0,0,1,.9.82v.09a1,1,0,0,1-1,1h-.12c-.62,0-1-.36-1-.81Z"/><path class="cls-4" d="M804.34,814.57h.29a.33.33,0,1,0,0-.65.36.36,0,0,0-.38.32h-.62c0-.49.39-.82,1-.82s1,.32,1,.73a.62.62,0,0,1-.52.62v0a.65.65,0,0,1,.6.65c0,.55-.53.83-1.1.83s-1-.39-1-.83h.61c0,.18.19.32.44.32s.44-.14.44-.35-.16-.36-.44-.36h-.32Z"/><path class="cls-4" d="M805.85,814.79c0-.83.43-1.37,1.11-1.37s1.1.53,1.1,1.37v.14c0,.82-.43,1.37-1.11,1.37s-1.1-.53-1.1-1.37Zm.68.14c0,.52.16.83.42.83s.44-.32.44-.83v-.14c0-.52-.16-.83-.44-.83s-.42.31-.42.83Z"/><path class="cls-4" d="M769.77,805.73h.3a.32.32,0,0,0,0-.64.35.35,0,0,0-.39.32h-.61c0-.5.39-.83,1-.83s1,.3,1,.74a.6.6,0,0,1-.51.61v0a.65.65,0,0,1,.59.64c0,.56-.52.84-1.09.84s-1.05-.39-1.06-.83h.61c0,.18.2.32.44.32a.39.39,0,0,0,.44-.36c0-.22-.16-.36-.43-.36h-.32Z"/><path class="cls-4" d="M771.93,806.65a.41.41,0,0,0,.44.29.43.43,0,0,0,.44-.43v0a.42.42,0,0,0-.41-.43h0a.45.45,0,0,0-.4.22h-.58l.11-1.64h1.79v.53H772l0,.64h0a.65.65,0,0,1,.56-.23.87.87,0,0,1,.9.82.28.28,0,0,1,0,.09,1,1,0,0,1-1,1h-.12c-.62,0-1-.36-1-.81Z"/><path class="cls-4" d="M735.55,745.15v1.78h.32v.53h-.32v.47h-.63v-.47h-1.35v-.54c.32-.6.67-1.19,1-1.77Zm-.63,1.78v-1.29h0c-.25.41-.5.83-.73,1.29h.76Z"/><path class="cls-4" d="M736.58,747.17a.4.4,0,0,0,.43.29.44.44,0,0,0,.45-.42v0a.43.43,0,0,0-.41-.44h0a.43.43,0,0,0-.39.22H736l.11-1.64h1.79v.53h-1.27l0,.64h0a.67.67,0,0,1,.56-.23.86.86,0,0,1,.9.82V747a1,1,0,0,1-1,1H737c-.63,0-1-.36-1-.81Z"/><path class="cls-4" d="M743.53,713.26a.4.4,0,0,0,.43.29.44.44,0,0,0,.45-.42v0a.42.42,0,0,0-.42-.43h0a.43.43,0,0,0-.4.22H743l.11-1.64h1.79v.53h-1.26l-.06.65h0a.65.65,0,0,1,.56-.24.85.85,0,0,1,.9.82v.09a1,1,0,0,1-1,1H744a.92.92,0,0,1-1-.82Z"/><path class="cls-4" d="M745.15,712.56c0-.83.43-1.37,1.11-1.37s1.1.53,1.1,1.37v.14c0,.83-.43,1.37-1.11,1.37s-1.1-.53-1.1-1.37Zm.67.14c0,.52.16.83.44.83s.43-.32.43-.83v-.14c0-.52-.16-.82-.43-.82s-.44.3-.44.82Z"/><path class="cls-4" d="M768.48,687.79a.41.41,0,0,0,.44.29.45.45,0,0,0,.45-.43v0a.42.42,0,0,0-.42-.43s0,0,0,0a.43.43,0,0,0-.39.22h-.59l.11-1.64h1.79v.53h-1.27l-.05.64h0a.67.67,0,0,1,.56-.23.86.86,0,0,1,.9.82v.09a1,1,0,0,1-1.1,1c-.65,0-1-.35-1-.81Z"/><path class="cls-4" d="M770.75,687.79a.4.4,0,0,0,.43.29.44.44,0,0,0,.45-.43v0a.42.42,0,0,0-.41-.43s0,0,0,0a.44.44,0,0,0-.4.22h-.59l.11-1.64h1.79v.53h-1.26l-.06.64h0a.65.65,0,0,1,.56-.23.85.85,0,0,1,.89.82v.09a1,1,0,0,1-1,1h-.12c-.62,0-1-.35-1-.81Z"/><path class="cls-4" d="M804.92,676.9a.37.37,0,0,0-.37-.22c-.35,0-.53.41-.52.85h0a.67.67,0,0,1,.65-.37.84.84,0,0,1,.88.81v.08a1,1,0,0,1-.94,1h-.13a1,1,0,0,1-.93-.47,1.83,1.83,0,0,1-.21-.92c0-1,.44-1.48,1.16-1.48a.89.89,0,0,1,1,.74Zm-.39,1.61a.44.44,0,1,0,0-.88.44.44,0,0,0,0,.88Z"/><path class="cls-4" d="M805.65,677.53c0-.83.42-1.38,1.11-1.38s1.09.53,1.09,1.38v.13c0,.83-.43,1.37-1.11,1.37s-1.09-.53-1.09-1.37Zm.67.13c0,.53.16.83.43.83s.43-.32.43-.83v-.13c0-.53-.16-.83-.43-.83s-.43.3-.43.83Z"/><path class="cls-4" d="M745.18,779.67v1.78h.32V782h-.32v.47h-.63V782h-1.33v-.54c.33-.6.67-1.18,1-1.77Zm-.63,1.78v-1.29h0c-.25.41-.5.84-.73,1.29h.77Z"/><path class="cls-4" d="M745.9,781c0-.82.43-1.37,1.11-1.37s1.1.53,1.1,1.37v.14c0,.83-.44,1.37-1.11,1.37s-1.1-.53-1.1-1.37Zm.67.14c0,.53.16.83.43.83s.44-.32.44-.83V781c0-.53-.16-.83-.44-.83s-.43.3-.43.83Z"/></g><g id="DMN_Logo" data-name="DMN Logo"><path class="cls-4" d="M1454.38,1700.44v-27.19l8.38-2.22c7-1.87,10.11,2.26,10.11,10.48,0,9.42-4.11,15.11-10.51,16.81Zm7.25-26.9v22.76l.45-.12c2-.54,3.1-1.83,3.1-13.31,0-8-.53-10.13-3.1-9.45Z"/><path class="cls-4" d="M1495.67,1678.27v-15l-4.91,16.29-5.4,1.44-5-13v14.33l-2.21.59v-27.18l4.67-1.25,7.37,18.79,6.57-22.49,5.8-1.54v27.18Z"/><path class="cls-4" d="M1521.13,1661.44,1511,1646.85v17.27l-2.22.59v-27.18l5-1.34,10.15,15.3v-18l2.21-.59v27.19Z"/><polygon class="cls-4" points="1447.96 1656.75 1447.93 1652.96 1532.94 1630.16 1532.97 1633.94 1447.96 1656.75"/><polygon class="cls-4" points="1447.96 1703.88 1447.93 1700.1 1532.94 1677.29 1532.97 1681.07 1447.96 1703.88"/></g><text class="cls-5" transform="translate(691.34 575.46)">AB 20 20</text><text class="cls-6" transform="translate(691.34 917.37)"><tspan class="cls-7">T</tspan><tspan x="17.35" y="0">ravel clock 1:1</tspan><tspan x="0" y="43.2">1975</tspan></text></g></g></svg>