<svg xmlns="http://www.w3.org/2000/svg" viewBox="0 0 1440 96"><defs><style>.cls-1{fill:#2600b1;}.cls-2{fill:#3fa9f5;}.cls-3{fill:#ff7bac;}</style></defs><title>Asset 6</title><g id="Layer_2" data-name="Layer 2"><g id="Layer_1-2" data-name="Layer 1"><path class="cls-1" d="M206,80a4,4,0,0,1,4-4V68a4,4,0,0,1,0-8V52a4,4,0,0,1,0-8V36a4,4,0,0,1,0-8V20a4,4,0,0,1,0-8V4a4,4,0,0,1-3.86-4H198a4,4,0,0,1-8,0h-8.18a4,4,0,0,1-8,0H165.6a4,4,0,0,1-8,0h-8.18a4,4,0,0,1-8,0h-8.18a4,4,0,1,1-8,0h-8.18a4,4,0,0,1-8,0h-8.18a4,4,0,0,1-8,0H84.7a4,4,0,0,1-8,0H68.52a4,4,0,0,1-8,0H52.34a4,4,0,0,1-8,0H36.16a4,4,0,0,1-8,0H20a4,4,0,0,1-8,0H3.8A4,4,0,0,1,0,4V92a4,4,0,0,1,3.8,4H12a4,4,0,0,1,8,0h8.18a4,4,0,0,1,8,0h8.18a4,4,0,0,1,8,0h8.18a4,4,0,0,1,8,0H76.7a4,4,0,0,1,8,0h8.18a4,4,0,0,1,8,0h8.18a4,4,0,0,1,8,0h8.18a4,4,0,1,1,8,0h8.18a4,4,0,0,1,8,0h8.18a4,4,0,0,1,8,0h8.18a4,4,0,1,1,8,0H190a4,4,0,0,1,8,0h8.18A4,4,0,0,1,210,92V84A4,4,0,0,1,206,80Z"/><path class="cls-2" d="M1229,12V4a4,4,0,0,1-4-4h-7.72a4,4,0,0,1-8,0h-8.18a4,4,0,0,1-8,0h-8.18a4,4,0,0,1-8,0h-8.18a4,4,0,0,1-8,0h-8.18a4,4,0,0,1-8,0h-8.18a4,4,0,0,1-4,4,4,4,0,0,1-4-4h-8.18a4,4,0,0,1-4,4,4,4,0,0,1-4-4H1104a4,4,0,0,1-4,4,4,4,0,0,1-4-4h-8.18a4,4,0,0,1-4,4,4,4,0,0,1-4-4h-8.17a4,4,0,0,1-4,4,4,4,0,0,1-4-4h-8.18a4,4,0,0,1-4,4,4,4,0,0,1-4-4h-8.18a4,4,0,0,1-4,4,4,4,0,0,1-4-4H1024a4,4,0,0,1-4,4c-.15,0-.29,0-.44,0s-.28,0-.43,0a4,4,0,0,1-4-4H1007a4,4,0,0,1-8,0h-8.18a4,4,0,0,1-8,0h-8.18a4,4,0,0,1-8,0h-8.18a4,4,0,0,1-8,0h-8.18a4,4,0,0,1-8,0h-8.18a4,4,0,0,1-8,0h-8.18a4,4,0,0,1-8,0h-8.18a4,4,0,0,1-8,0h-8.18a4,4,0,0,1-8,0h-8.18a4,4,0,0,1-8,0h-8.18a4,4,0,0,1-8,0H829a4,4,0,0,1-8,0h-8.18a4,4,0,0,1-8,0h-8.18a4,4,0,0,1-8,0h-8.18a4,4,0,0,1-8,0h-8.18a4,4,0,0,1-8,0h-8.18a4,4,0,0,1-8,0h-8.18a4,4,0,0,1-8,0h-8.18a4,4,0,0,1-8,0h-8.18a4,4,0,0,1-8,0h-8.18a4,4,0,0,1-8,0h-8.18a4,4,0,0,1-8,0H651a4,4,0,0,1-8,0h-8.18a4,4,0,0,1-8,0h-8.18a4,4,0,0,1-8,0h-8.18a4,4,0,0,1-8,0h-8.18a4,4,0,0,1-8,0h-8.18a4,4,0,0,1-8,0h-8.18a4,4,0,0,1-8,0h-8.18a4,4,0,0,1-8,0h-8.18a4,4,0,0,1-8,0h-8.18a4,4,0,0,1-8,0h-8.18a4,4,0,0,1-8,0H473a4,4,0,0,1-8,0h-8.18a4,4,0,0,1-8,0h-8.18a4,4,0,0,1-8,0h-8.18a4,4,0,0,1-4,4,4,4,0,0,1-4-4h-8.18a4,4,0,0,1-4,4,4,4,0,0,1-4-4h-8.18a4,4,0,0,1-4,4,4,4,0,0,1-4-4h-8.18a4,4,0,0,1-4,4,4,4,0,0,1-4-4h-8.17a4,4,0,0,1-4,4,4,4,0,0,1-4-4h-8.18a4,4,0,0,1-4,4,4,4,0,0,1-4-4H327.4a4,4,0,0,1-4,4,4,4,0,0,1-4-4h-8.18a4,4,0,0,1-4,4,4,4,0,0,1-4-4H295a4,4,0,0,1-8,0h-8.18a4,4,0,0,1-8,0h-8.18a4,4,0,0,1-8,0H246.5a4,4,0,0,1-8,0h-8.18a4,4,0,0,1-8,0h-8.18a4,4,0,0,1-4,4H210v8a4,4,0,0,1,0,8v8a4,4,0,0,1,0,8v8a4,4,0,0,1,0,8v8a4,4,0,0,1,0,8v8a4,4,0,0,1,0,8v8h.14a4,4,0,0,1,4,4h8.18a4,4,0,0,1,8,0h8.18a4,4,0,0,1,8,0h8.18a4,4,0,0,1,8,0h8.18a4,4,0,0,1,8,0H287a4,4,0,0,1,8,0h8.18a4,4,0,0,1,8,0h8.18a4,4,0,0,1,8,0h8.18a4,4,0,0,1,8,0h8.18a4,4,0,0,1,8,0h8.17a4,4,0,0,1,8,0h8.18a4,4,0,0,1,8,0h8.18a4,4,0,0,1,8,0h8.18a4,4,0,0,1,8,0h8.18a4,4,0,0,1,8,0h8.18a4,4,0,1,1,8,0H465a4,4,0,0,1,8,0h8.18a4,4,0,0,1,8,0h8.18a4,4,0,0,1,8,0h8.18a4,4,0,0,1,8,0h8.18a4,4,0,0,1,8,0h8.18a4,4,0,0,1,8,0h8.18a4,4,0,0,1,8,0h8.18a4,4,0,0,1,8,0h8.18a4,4,0,0,1,8,0h8.18a4,4,0,0,1,8,0h8.18a4,4,0,0,1,8,0H643a4,4,0,0,1,8,0h8.18a4,4,0,0,1,8,0h8.18a4,4,0,0,1,8,0h8.18a4,4,0,0,1,8,0h8.18a4,4,0,0,1,8,0h8.18a4,4,0,0,1,8,0h8.18a4,4,0,0,1,8,0h8.18a4,4,0,0,1,8,0h8.18a4,4,0,0,1,8,0h8.18a4,4,0,0,1,8,0h8.18a4,4,0,0,1,8,0H821a4,4,0,0,1,8,0h8.18a4,4,0,0,1,8,0h8.18a4,4,0,0,1,8,0h8.18a4,4,0,0,1,8,0h8.18a4,4,0,0,1,8,0h8.18a4,4,0,0,1,8,0h8.18a4,4,0,0,1,8,0h8.18a4,4,0,0,1,8,0h8.18a4,4,0,1,1,8,0h8.18a4,4,0,0,1,8,0h8.18a4,4,0,0,1,8,0H999a4,4,0,0,1,8,0h8.18a4,4,0,0,1,4-4c.15,0,.29,0,.43,0s.29,0,.44,0a4,4,0,0,1,4,4h7.31a4,4,0,0,1,8,0h8.18a4,4,0,0,1,8,0h8.18a4,4,0,0,1,8,0h8.17a4,4,0,0,1,8,0H1096a4,4,0,0,1,8,0h8.18a4,4,0,0,1,8,0h8.18a4,4,0,0,1,8,0h8.18a4,4,0,0,1,8,0h8.18a4,4,0,0,1,8,0h8.18a4,4,0,0,1,8,0h8.18a4,4,0,0,1,8,0h8.18a4,4,0,0,1,8,0H1225a4,4,0,0,1,4-4V84a4,4,0,0,1,0-8V68a4,4,0,0,1,0-8V52a4,4,0,0,1,0-8V36a4,4,0,0,1,0-8V20a4,4,0,0,1,0-8ZM420,84a4,4,0,1,1,4-4A4,4,0,0,1,420,84Zm0-16a4,4,0,1,1,4-4A4,4,0,0,1,420,68Zm0-16a4,4,0,1,1,4-4A4,4,0,0,1,420,52Zm0-16a4,4,0,1,1,4-4A4,4,0,0,1,420,36Zm0-16a4,4,0,1,1,4-4A4,4,0,0,1,420,20Zm600,64a4,4,0,1,1,4-4A4,4,0,0,1,1020,84Zm0-16a4,4,0,1,1,4-4A4,4,0,0,1,1020,68Zm0-16a4,4,0,1,1,4-4A4,4,0,0,1,1020,52Zm0-16a4,4,0,1,1,4-4A4,4,0,0,1,1020,36Zm0-16a4,4,0,1,1,4-4A4,4,0,0,1,1020,20Z"/><path class="cls-3" d="M1439.8,4a4,4,0,0,1-4-4h-8.18a4,4,0,0,1-8,0h-8.18a4,4,0,0,1-8,0h-8.18a4,4,0,0,1-8,0h-8.18a4,4,0,0,1-8,0h-8.18a4,4,0,0,1-8,0h-8.18a4,4,0,0,1-8,0h-8.18a4,4,0,0,1-8,0h-8.18a4,4,0,0,1-8,0h-8.18a4,4,0,0,1-8,0H1282a4,4,0,0,1-8,0h-8.18a4,4,0,0,1-8,0h-8.18a4,4,0,0,1-8,0h-8.18a4,4,0,0,1-4,4l-.23,0L1229,4v8a4,4,0,0,1,0,8v8a4,4,0,0,1,0,8v8a4,4,0,0,1,0,8v8a4,4,0,0,1,0,8v8a4,4,0,0,1,0,8v8l.23,0,.23,0a4,4,0,0,1,4,4h8.18a4,4,0,0,1,8,0h8.18a4,4,0,0,1,8,0H1274a4,4,0,0,1,8,0h8.18a4,4,0,0,1,8,0h8.18a4,4,0,0,1,8,0h8.18a4,4,0,0,1,8,0h8.18a4,4,0,0,1,8,0h8.18a4,4,0,0,1,8,0h8.18a4,4,0,0,1,8,0h8.18a4,4,0,0,1,8,0h8.18a4,4,0,0,1,8,0h8.18a4,4,0,0,1,8,0h8.18a4,4,0,0,1,4-4l.2,0V4Z"/></g></g></svg>