<svg width="81" height="15" viewBox="0 0 81 15" fill="none" xmlns="http://www.w3.org/2000/svg">
<path fill-rule="evenodd" clip-rule="evenodd" d="M62.5627 1.73659C62.5627 2.41378 62.022 2.95846 61.3341 2.95846C60.6619 2.95846 60.1207 2.41378 60.1207 1.73659C60.1207 1.04469 60.6619 0.5 61.3341 0.5C62.022 0.5 62.5627 1.04469 62.5627 1.73659ZM62.2996 11.3349H60.3693V4.00368H62.2996V11.3349ZM1.93044 4.71032C2.57392 4.06258 3.43678 3.78288 4.25575 3.78288C6.43481 3.78288 7.89729 5.60832 7.89729 7.6693C7.89729 9.73027 6.43481 11.5558 4.25575 11.5558C3.42215 11.5558 2.54468 11.2319 1.9012 10.54L1.85732 11.3349H0V0.764999H1.93044V4.71032ZM1.85732 7.6693C1.85732 8.83229 2.77867 9.74503 3.91939 9.74503C5.0601 9.74503 5.96681 8.83229 5.96681 7.6693C5.96681 6.50631 5.0601 5.5936 3.91939 5.5936C2.77867 5.5936 1.85732 6.50631 1.85732 7.6693ZM9.54023 4.00378H13.4889V5.79979H11.4707V11.335H9.54023V4.00378ZM20.3104 4.00366L20.2666 4.73973C19.6231 4.07726 18.7456 3.78284 17.9266 3.78284C15.7329 3.78284 14.2705 5.60829 14.2705 7.66926C14.2705 9.73024 15.7329 11.5557 17.9266 11.5557C18.7456 11.5557 19.6231 11.2319 20.2812 10.54L20.3104 11.3349H22.1824V4.00366H20.3104ZM18.263 9.74499C17.1223 9.74499 16.2009 8.83225 16.2009 7.66926C16.2009 6.50627 17.1223 5.59356 18.263 5.59356C19.4037 5.59356 20.3104 6.50627 20.3104 7.66926C20.3104 8.83225 19.4037 9.74499 18.263 9.74499ZM24.2933 11.335V4.00378H31.1084V11.335H29.1779V5.79979H26.2238V11.335H24.2933ZM38.7183 0.765015V4.71034C38.0602 4.0626 37.1974 3.78289 36.393 3.78289C34.1993 3.78289 32.7369 5.60834 32.7369 7.66931C32.7369 9.73029 34.1993 11.5558 36.393 11.5558C37.212 11.5558 38.0895 11.2319 38.7476 10.54L38.7768 11.3349H40.6488V0.765015H38.7183ZM36.7294 9.74505C35.5886 9.74505 34.6673 8.83231 34.6673 7.66931C34.6673 6.50632 35.5886 5.59362 36.7294 5.59362C37.8701 5.59362 38.7768 6.50632 38.7768 7.66931C38.7768 8.83231 37.8701 9.74505 36.7294 9.74505ZM48.2732 4.73973L48.317 4.00366H50.189V14.5H43.1692V12.704H48.2586V10.5694C47.6005 11.2466 46.7376 11.5557 45.9333 11.5557C43.7396 11.5557 42.2771 9.73024 42.2771 7.66926C42.2771 5.60829 43.7396 3.78284 45.9333 3.78284C46.7522 3.78284 47.6297 4.07726 48.2732 4.73973ZM44.2076 7.66926C44.2076 8.83225 45.1289 9.74499 46.2696 9.74499C47.4104 9.74499 48.317 8.83225 48.317 7.66926C48.317 6.50627 47.4104 5.59356 46.2696 5.59356C45.1289 5.59356 44.2076 6.50627 44.2076 7.66926ZM55.2691 11.5558C57.1118 11.5558 58.545 10.1868 58.545 8.33188V4.00378H56.6146V8.2141C56.6146 9.28872 56.1466 9.74512 55.2691 9.74512C54.3624 9.74512 53.9383 9.14155 53.9383 8.2141V4.00378H52.0078V8.33188C52.0078 10.1868 53.4264 11.5558 55.2691 11.5558ZM69.9241 0.765015V4.71034C69.2658 4.0626 68.4029 3.78289 67.5986 3.78289C65.4052 3.78289 63.9425 5.60834 63.9425 7.66931C63.9425 9.73029 65.4052 11.5558 67.5986 11.5558C68.418 11.5558 69.2953 11.2319 69.9536 10.54L69.9826 11.3349H71.8544V0.765015H69.9241ZM67.9353 9.74505C66.7942 9.74505 65.8734 8.83231 65.8734 7.66931C65.8734 6.50632 66.7942 5.59362 67.9353 5.59362C69.0757 5.59362 69.9826 6.50632 69.9826 7.66931C69.9826 8.83231 69.0757 9.74505 67.9353 9.74505ZM77.3289 3.78284C79.4933 3.78284 80.9855 5.31386 81 7.58094V8.30229H75.4571C75.7352 9.40637 76.7146 9.75969 77.4025 9.75969C78.4794 9.75969 79.0492 9.33361 79.4986 8.99763L79.5228 8.97948L80.6784 10.3044C80.659 10.3193 80.6384 10.3354 80.6165 10.3524C80.1419 10.7216 79.0699 11.5557 77.49 11.5557C75.1355 11.5557 73.4827 9.92163 73.4827 7.6398C73.4827 5.24025 75.2815 3.78284 77.3289 3.78284ZM79.0111 6.88905C78.8355 6.13826 78.2213 5.56412 77.3144 5.56412C76.3785 5.56412 75.7352 6.09409 75.5011 6.88905H79.0111Z" fill="white"/>
<path d="M40.6488 14.5001V12.7041H0V14.5001H40.6488Z" fill="#FFDC00"/>
</svg>
