<svg width="91" height="9" viewBox="0 0 91 9" fill="none" xmlns="http://www.w3.org/2000/svg">
<path d="M3.42902 8.88018H0V0.119771H3.3942C4.31093 0.119771 5.10291 0.295151 5.77015 0.645909C6.44029 0.993816 6.95667 1.49571 7.3193 2.1516C7.68483 2.80464 7.86759 3.58743 7.86759 4.49998C7.86759 5.41252 7.68628 6.19673 7.32365 6.85262C6.96102 7.50566 6.44754 8.00756 5.7832 8.35832C5.11887 8.70623 4.33414 8.88018 3.42902 8.88018ZM2.41946 6.86118H3.34199C3.78294 6.86118 4.15863 6.79131 4.46904 6.65158C4.78235 6.51185 5.02023 6.27088 5.18269 5.92868C5.34805 5.58647 5.43073 5.11024 5.43073 4.49998C5.43073 3.88971 5.3466 3.41348 5.17834 3.07128C5.01298 2.72907 4.76929 2.4881 4.44728 2.34837C4.12817 2.20864 3.73653 2.13877 3.27236 2.13877H2.41946V6.86118Z" fill="#ECBB2E"/>
<path d="M11.5903 0.119771V8.88018H9.17084V0.119771H11.5903Z" fill="#ECBB2E"/>
<path d="M18.7083 3.01139C18.6706 2.86025 18.6111 2.72765 18.5299 2.61358C18.4486 2.49666 18.3471 2.39828 18.2253 2.31843C18.1063 2.23573 17.9671 2.17442 17.8075 2.13449C17.6509 2.09172 17.4783 2.07033 17.2897 2.07033C16.8835 2.07033 16.5369 2.16586 16.2497 2.35693C15.9654 2.54799 15.7478 2.82318 15.5969 3.18249C15.449 3.54181 15.375 3.97526 15.375 4.48287C15.375 4.99617 15.4461 5.43533 15.5882 5.80035C15.7304 6.16537 15.9422 6.44483 16.2236 6.63875C16.505 6.83266 16.8545 6.92962 17.2723 6.92962C17.6407 6.92962 17.9468 6.87686 18.1905 6.77135C18.437 6.66584 18.6213 6.51612 18.7431 6.32221C18.8649 6.12829 18.9259 5.90016 18.9259 5.6378L19.3436 5.68058H17.3071V3.98667H21.2583V5.20149C21.2583 5.99997 21.0857 6.68295 20.7405 7.25044C20.3981 7.81507 19.9253 8.24853 19.3219 8.55081C18.7213 8.85024 18.0324 8.99995 17.2549 8.99995C16.3875 8.99995 15.6259 8.81887 14.9703 8.4567C14.3147 8.09454 13.8026 7.57838 13.4342 6.90823C13.0687 6.23808 12.8859 5.44104 12.8859 4.51709C12.8859 3.79276 12.9976 3.15112 13.221 2.59219C13.4473 2.03326 13.7606 1.5613 14.1609 1.17632C14.5613 0.788494 15.024 0.496195 15.5491 0.299428C16.0742 0.0998093 16.637 0 17.2375 0C17.7655 0 18.2557 0.0741442 18.7083 0.222433C19.1638 0.367869 19.5655 0.576042 19.9137 0.846954C20.2647 1.11501 20.5475 1.43298 20.7622 1.80085C20.9769 2.16871 21.1074 2.57223 21.1539 3.01139H18.7083Z" fill="#ECBB2E"/>
<path d="M24.9897 0.119771V8.88018H22.5702V0.119771H24.9897Z" fill="#ECBB2E"/>
<path d="M26.0765 2.03611V0.119771H33.8222V2.03611H31.1417V8.88018H28.757V2.03611H26.0765Z" fill="#ECBB2E"/>
<path d="M36.1067 8.88018H33.4958L36.4374 0.119771H39.7446L42.6863 8.88018H40.0753L38.1258 2.53231H38.0562L36.1067 8.88018ZM35.6193 5.42393H40.5279V7.20338H35.6193V5.42393Z" fill="#ECBB2E"/>
<path d="M43.7284 8.88018V0.119771H46.1479V6.96384H49.7509V8.88018H43.7284Z" fill="#ECBB2E"/>
<path d="M50.9128 8.88018V0.119771H54.7595C55.421 0.119771 55.9997 0.248098 56.4958 0.50475C56.9919 0.761403 57.3777 1.12214 57.6533 1.58697C57.9289 2.05179 58.0667 2.59504 58.0667 3.21671C58.0667 3.84409 57.9245 4.38733 57.6402 4.84646C57.3588 5.30558 56.9628 5.65919 56.4523 5.90729C55.9446 6.15538 55.3513 6.27943 54.6725 6.27943H52.3749V4.43153H54.1851C54.4694 4.43153 54.7116 4.38306 54.9118 4.2861C55.1149 4.18629 55.2701 4.04513 55.3774 3.86262C55.4877 3.68011 55.5428 3.46481 55.5428 3.21671C55.5428 2.96576 55.4877 2.75189 55.3774 2.57508C55.2701 2.39542 55.1149 2.25854 54.9118 2.16444C54.7116 2.06748 54.4694 2.019 54.1851 2.019H53.3322V8.88018H50.9128Z" fill="white"/>
<path d="M59.1382 8.88018V0.119771H62.985C63.6464 0.119771 64.2252 0.238117 64.7212 0.474807C65.2173 0.711498 65.6032 1.05228 65.8788 1.49714C66.1544 1.942 66.2922 2.47527 66.2922 3.09694C66.2922 3.72431 66.15 4.2533 65.8657 4.68391C65.5843 5.11452 65.1883 5.43961 64.6777 5.65919C64.17 5.87877 63.5768 5.98856 62.8979 5.98856H60.6003V4.14066H62.4106C62.6949 4.14066 62.9371 4.10644 63.1373 4.038C63.3404 3.96671 63.4956 3.85407 63.6029 3.70007C63.7131 3.54608 63.7683 3.34504 63.7683 3.09694C63.7683 2.84599 63.7131 2.6421 63.6029 2.48525C63.4956 2.32556 63.3404 2.20864 63.1373 2.13449C62.9371 2.0575 62.6949 2.019 62.4106 2.019H61.5577V8.88018H59.1382ZM64.3601 4.85929L66.5881 8.88018H63.9597L61.784 4.85929H64.3601Z" fill="white"/>
<path d="M67.5073 8.88018V0.119771H73.9302V2.03611H69.9267V3.54181H73.5994V5.45815H69.9267V6.96384H73.9127V8.88018H67.5073Z" fill="white"/>
<path d="M80.118 2.8574C80.0948 2.57223 79.986 2.3498 79.7916 2.1901C79.6002 2.03041 79.3086 1.95056 78.917 1.95056C78.6675 1.95056 78.463 1.9805 78.3034 2.04039C78.1468 2.09742 78.0307 2.17584 77.9553 2.27565C77.8799 2.37546 77.8407 2.48953 77.8378 2.61786C77.832 2.72337 77.8509 2.8189 77.8944 2.90445C77.9408 2.98715 78.0133 3.06272 78.1119 3.13116C78.2106 3.19675 78.3368 3.25664 78.4905 3.31082C78.6443 3.365 78.827 3.41348 79.0388 3.45626L79.7699 3.61025C80.2631 3.71291 80.6852 3.84836 81.0362 4.01661C81.3872 4.18486 81.6744 4.38306 81.8978 4.61119C82.1212 4.83648 82.2851 5.09028 82.3895 5.37259C82.4968 5.65491 82.552 5.9629 82.5549 6.29654C82.552 6.87259 82.4055 7.36023 82.1154 7.75946C81.8253 8.1587 81.4104 8.46241 80.8708 8.67058C80.3341 8.87875 79.6887 8.98284 78.9344 8.98284C78.1598 8.98284 77.4839 8.8702 76.9066 8.64491C76.3322 8.41963 75.8854 8.07315 75.5663 7.60547C75.2501 7.13494 75.0905 6.53323 75.0876 5.80035H77.3852C77.3997 6.06841 77.4679 6.29369 77.5898 6.4762C77.7116 6.65871 77.8828 6.79702 78.1032 6.89112C78.3266 6.98523 78.5921 7.03228 78.8996 7.03228C79.1578 7.03228 79.3739 7.00091 79.548 6.93818C79.722 6.87544 79.854 6.78846 79.9439 6.67724C80.0339 6.56603 80.0803 6.43913 80.0832 6.29654C80.0803 6.16251 80.0353 6.04559 79.9483 5.94578C79.8642 5.84312 79.7249 5.75187 79.5305 5.67202C79.3362 5.58932 79.0736 5.51233 78.7429 5.44103L77.8552 5.25282C77.0661 5.08457 76.4439 4.80368 75.9884 4.41015C75.5358 4.01376 75.311 3.47337 75.3139 2.78896C75.311 2.23288 75.4619 1.74666 75.7665 1.33032C76.074 0.911117 76.499 0.584597 77.0415 0.350758C77.5869 0.116919 78.212 0 78.917 0C79.6364 0 80.2587 0.118345 80.7838 0.355036C81.3089 0.591727 81.7136 0.925375 81.9979 1.35598C82.2851 1.78374 82.4301 2.28421 82.433 2.8574H80.118Z" fill="white"/>
<path d="M88.4631 2.8574C88.4399 2.57223 88.3311 2.3498 88.1368 2.1901C87.9453 2.03041 87.6537 1.95056 87.2621 1.95056C87.0126 1.95056 86.8081 1.9805 86.6485 2.04039C86.4919 2.09742 86.3758 2.17584 86.3004 2.27565C86.225 2.37546 86.1858 2.48953 86.1829 2.61786C86.1771 2.72337 86.196 2.8189 86.2395 2.90445C86.2859 2.98715 86.3584 3.06272 86.4571 3.13116C86.5557 3.19675 86.6819 3.25664 86.8357 3.31082C86.9894 3.365 87.1722 3.41348 87.384 3.45626L88.115 3.61025C88.6082 3.71291 89.0303 3.84836 89.3813 4.01661C89.7323 4.18486 90.0195 4.38306 90.2429 4.61119C90.4663 4.83648 90.6302 5.09028 90.7346 5.37259C90.842 5.65491 90.8971 5.9629 90.9 6.29654C90.8971 6.87259 90.7506 7.36023 90.4605 7.75946C90.1704 8.1587 89.7555 8.46241 89.216 8.67058C88.6793 8.87875 88.0338 8.98284 87.2795 8.98284C86.5049 8.98284 85.829 8.8702 85.2517 8.64491C84.6773 8.41963 84.2305 8.07315 83.9114 7.60547C83.5952 7.13494 83.4357 6.53323 83.4328 5.80035H85.7304C85.7449 6.06841 85.813 6.29369 85.9349 6.4762C86.0567 6.65871 86.2279 6.79702 86.4484 6.89112C86.6717 6.98523 86.9372 7.03228 87.2447 7.03228C87.5029 7.03228 87.719 7.00091 87.8931 6.93818C88.0671 6.87544 88.1991 6.78846 88.2891 6.67724C88.379 6.56603 88.4254 6.43913 88.4283 6.29654C88.4254 6.16251 88.3805 6.04559 88.2934 5.94578C88.2093 5.84312 88.07 5.75187 87.8757 5.67202C87.6813 5.58932 87.4188 5.51233 87.088 5.44103L86.2003 5.25282C85.4113 5.08457 84.789 4.80368 84.3335 4.41015C83.881 4.01376 83.6561 3.47337 83.659 2.78896C83.6561 2.23288 83.807 1.74666 84.1116 1.33032C84.4191 0.911117 84.8441 0.584597 85.3866 0.350758C85.932 0.116919 86.5572 0 87.2621 0C87.9816 0 88.6038 0.118345 89.1289 0.355036C89.654 0.591727 90.0587 0.925375 90.343 1.35598C90.6302 1.78374 90.7753 2.28421 90.7782 2.8574H88.4631Z" fill="white"/>
</svg>
