<svg xmlns="http://www.w3.org/2000/svg" viewBox="0 0 75 51.06"><defs><style>.cls-1{fill:#3fa9f5;}.cls-2{fill:#ff7bac;}</style></defs><title>Asset 1</title><g id="Layer_2" data-name="Layer 2"><g id="Layer_1-2" data-name="Layer 1"><rect class="cls-1" y="49.02" width="75" height="2.04"/><polygon class="cls-2" points="52.09 43.12 58.54 43.12 53.56 32.13 52.09 43.12"/><path class="cls-2" d="M17.9,9.09C18,8.55,18,8,18.07,7.55H15.2L13.33,21.46l.36-.09C15.42,20.91,16.75,19.65,17.9,9.09Z"/><path class="cls-2" d="M48.86,7.55,45.73,30.86l-5.8,1.54,2-15L35.76,33.51l-4.57,1.22L28.67,22.62,26.9,35.86l-1.87.5,3.38-25.2,4-1.05,3.75,17.76L44,7.55H24.42c0,.25,0,.47-.08.73-1.15,8.62-5.11,13.59-10.65,15.07l-6.77,1.8L9.28,7.55H4.16V43.12H50.28l2.6-19.34,3.78-1,6.77,14.86,2.34-17.29,1.87-.49L64.51,43.12h6.33V7.55Z"/><rect class="cls-1" width="75" height="2.04"/></g></g></svg>