<svg xmlns="http://www.w3.org/2000/svg" viewBox="0 0 943.47 531.31"><defs><style>.cls-1{fill:#ff7bac;}.cls-2{fill:#3db461;}</style></defs><title>Asset 16</title><g id="Layer_2" data-name="Layer 2"><g id="Layer_1-2" data-name="Layer 1"><path class="cls-1" d="M492.38,136.14c-.72,3.56-2.28,5.29-5.22,6.07C480.5,144,479,137.48,479,124.7c0-14.58,2.21-22.13,10-24.18,6.06-1.62,8,1.64,8,7.82,0,1.08-.06,2.29-.18,3.53l-6.07,1.61c.19-2.57.31-4.58.31-6.14,0-4.26-.78-5-2.4-4.59-2.23.6-2.76,3.08-2.76,20.6,0,14.34.11,17,2.46,16.38,1.08-.28,2-2.08,2.28-7.86v-8.64l-2.52.67v-2.16l8.16-2.17.9.72v18.9l-1.8.48Z"/><path class="cls-1" d="M531.5,117.83l-23.64,6.28L501.67,138l-2.64.7,20.35-45.9,5.82-1.55,19.86,35.22-7.62,2Zm-22.5,3.7,21.42-5.7L519.92,97Z"/><path class="cls-1" d="M581.54,97.8c4.56-.25,9.48.6,9.54,5.74v1.75a21.63,21.63,0,0,0,1.38,8.57l-7.08,1.88a16.41,16.41,0,0,1-1.38-7.25v-3.3c0-6.78-6.42-5.86-9.18-5.18l-18.13,4.82v18.54l-7.08,1.88V84.75l28.81-7.66c4.68-1.24,14.22-2.16,14.22,7.2C592.64,91.55,586.76,95.63,581.54,97.8Zm-4-18.31L556.69,85v17.64l20.77-5.52c4.38-1.17,7.74-3.56,7.74-10.88C585.2,80.45,582.08,78.28,577.52,79.49Z"/><path class="cls-1" d="M594.79,72.74l6.78-1.8,4.92,18.31,4.32-20.77L613,67.9l-5.28,25.23v16.68l-6.54,1.73V94.87Z"/><path class="cls-1" d="M630,103.87V63.37l6.54-1.73V79.88l5.34-1.42V60.22l6.55-1.74V99l-6.55,1.73V80.61L636.55,82v20.1Z"/><path class="cls-1" d="M684.26,77.33c0,6.78-3.18,13.33-14,16.22C660.61,96.1,655,93.1,655,85.84V56.74l6.78-1.8V85.12c0,5.09,2.52,7.84,9.67,5.95,7.68-2,10.68-6.8,10.68-12.86V49.53l2.16-.58Z"/><path class="cls-1" d="M709.16,83.19c-11.35,3-20.65.45-19.93-7.54l6.54-1.74c-.54,6.92,4.2,9.56,13.93,7,6.84-1.82,12.54-5.56,12.54-11.85,0-4-1.74-6-13.92-4.16-6.49.76-18.43,3-18.43-6,0-7.38,8.52-14.08,19.69-17,12.84-3.41,19.68.35,19,8l-6.54,1.73c.36-2.31-.48-10.73-13-7.39-8,2.12-12.49,6.31-12.49,10.75,0,6.48,9,4.11,16.45,3.31,10.92-1.58,16.14.33,16.14,7C729.14,74.76,717.44,81,709.16,83.19Z"/><path class="cls-1" d="M728.59,37.17l47-12.51v2.16L755.78,32.1V70.44l-7.15,1.9V34l-20,5.33Z"/><path class="cls-1" d="M822.68,47l11.46-37.9,2.52-.67L823.28,52.49l-6,1.6L806,24.15,795.43,59.89l-5.64,1.5L776.35,24.47l7.44-2,11.1,31.85,11-37.73,4.92-1.31Z"/><path class="cls-1" d="M840.55,47.9V7.4l6.78-1.8V46.1Z"/><path class="cls-1" d="M852,4.37,868.39,0V2.16l-4.86,1.29V41.79L857,43.53V5.19l-5,1.34Z"/><path class="cls-1" d="M575.29,179.75c8.79-.4,18.15,1.57,18.15,11.27v2.74c0,5.71.46,11.18,2.74,16.28l-13.59,3.62c-2.28-4.76-2.74-9-2.74-13.78v-6.27c0-12.79-12.78-10.88-18.61-9.56l-39.73,10.57v35.27l-13.58,3.62V156.44l60.51-16.08c8.79-2.34,28.31-4.45,28.31,13.48C596.75,167.65,585.33,175.48,575.29,179.75Zm-8.57-34.83-45.21,12v33.57l45.1-12c8.68-2.31,15.87-6.62,15.87-21C582.48,146.33,575.74,142.52,566.72,144.92Z"/><path class="cls-1" d="M627.57,178.41l-16.21,4.31L606,207.43l-4.33,1.16,17.23-81.65,10.17-2.7L645.38,197l-12.9,3.43Zm-15.18-.3,14.27-3.8-6.85-30.6Z"/><path class="cls-1" d="M695.61,183.61V130.52l-14.38,56.91-9.13,2.43-14.73-47v50.92l-4.11,1.09V117.81l9.24-2.46L680.43,173l16.67-66.88,10.5-2.79v77.06Z"/><path class="cls-1" d="M761.94,166.66c-24.66,6.55-46.58,2.79-45.21-12.41l12.68-3.37c-1,13.29,10.5,17.53,33.67,11.37,16.1-4.28,30.37-11.62,30.37-25.66,0-7.53-4.11-11.12-33-5.16-14.84,3-42.24,9.75-42.24-8.29,0-15.41,20.2-28.66,44.64-35.16,28.54-7.58,44.52-1.22,43.27,13.28l-12.68,3.36c.69-4.29-1.71-20.2-31.62-12.25-19.64,5.22-30.37,15.15-30.37,23.6,0,12,21.12,5.8,37.9,2.48,26.15-5.12,37.56-1.88,37.56,11.25C806.92,150.25,778.84,162.17,761.94,166.66Z"/><path class="cls-2" d="M34.27,218.53l-28.78-78,.22,69.13L.33,208,0,105.87l10.61,3.3,28.78,79.06L39.17,118l5.38,1.68.33,102.11Z"/><path class="cls-2" d="M109.06,210.94,69.44,198.63,58.18,226l-6.13-1.9,36.29-90.73,13.91,4.32L138,250.77l-17.94-5.58ZM71.52,193.53l35.57,11.06-17.5-54.7Zm27.56-64.27-7-2.18,13.09-13.77,12.41,3.86Z"/><path class="cls-2" d="M150.86,254.76l-.33-102.11,70.85,22c21.38,6.64,51,32,51.14,66.21.12,34.8-30,42.35-51.55,35.66Zm17.47-91.13.3,91.22,51.72,16.07c11.07,3.44,33.63,7.28,33.49-34.47-.12-38.43-20.48-52.61-33.78-56.75Z"/><path class="cls-2" d="M330,279.61,290.38,267.3l-11.27,27.32-6.12-1.9L309.28,202l13.9,4.32,35.76,113.12L341,313.86ZM292.45,262.2,328,273.26l-17.5-54.71Z"/><path class="cls-2" d="M367,321.94l-.33-102.11L383,224.9,383.3,327Z"/><path class="cls-2" d="M430.09,341.55l-.33-102.11,33,10.26,0,5.45L446.07,250l.14,42.81,15.25,4.74v5.44l-15.24-4.74.15,48.41Z"/><path class="cls-2" d="M474.63,355.39l-.33-102.11,71.45,22.21,0,5.44L491.36,264l.13,41.15L542.32,321l0,5.44-50.83-15.79.15,44.62,54.86,17.05,0,5.45Z"/><path class="cls-2" d="M641.6,359.53c11.37,6,23.64,15.21,23.84,28.26v4.39A71.56,71.56,0,0,0,669,415.79l-17.64-5.48a56.23,56.23,0,0,1-3.5-20.29l0-8.32c0-17.09-16-24-22.93-26.32l-45.14-14,.15,46.75-17.64-5.48-.33-102.11,71.75,22.3c11.66,3.62,35.44,15.09,35.52,38.69C669.23,359.8,654.6,361.6,641.6,359.53Zm-10.17-52-51.88-16.12.15,44.48L631.42,352c10.91,3.39,19.27,2.21,19.21-16.24C650.58,321.07,642.79,311.09,631.43,307.55Z"/><path class="cls-2" d="M686.45,421.22l-.34-102.11,100.16,31.13,0,5.45L703.77,330l.14,41.15,78.92,24.53,0,5.44-78.93-24.53.15,44.63L787,447l0,5.45Z"/><path class="cls-2" d="M872.25,479l-66.17-96.88.25,76.39L801,456.81l-.33-102.11,10.61,3.3,66.18,98.54-.26-78.05,5.38,1.67.34,102.11Z"/><path class="cls-2" d="M943.46,473.6c.06,16.64-5.43,26.72-21.13,21.84-19.58-6.09-24.12-24.88-24.23-57.1-.12-36.76,5.36-52.59,24.64-46.59,15.1,4.69,20.07,17.42,20.12,33.6a86.89,86.89,0,0,1-.42,8.79l-15.1-4.69c.43-6.22.71-11.42.7-15.5,0-11.5-2-15.74-6-17-5.53-1.72-6.86,3.76-6.71,47.93.11,36.16,1,43.25,6.86,45.06,4.34,1.34,6.57-1.74,6.53-14.75,0-3.78-.18-8.52-.65-14.25l15.1,4.69A70.51,70.51,0,0,1,943.46,473.6Z"/><path class="cls-2" d="M319.15,435.7l-.34-102.11,33,10.27,0,5.45-16.74-5.21.14,42.81,15.24,4.74,0,5.45-15.25-4.74.16,48.41Z"/><path class="cls-2" d="M365.63,450.15,365.3,348l100.16,31.13v5.44L383,359l.13,41.15L462,424.65l0,5.44-78.93-24.53.15,44.63,83,25.78,0,5.45Z"/><path class="cls-2" d="M482.08,486.34l-.33-102.11,99.85,31,0,5.44L499.4,395.16l.14,42.81,80.72,25.09,0,5.44-80.72-25.08.16,48.4Z"/><path class="cls-2" d="M593,520.81l-.33-102.11L626,429.06l0,5.45-17-5.3.14,41.15,13.45,4.18,0,5.45-13.46-4.18.15,44.62,17.49,5.44,0,5.44Z"/></g></g></svg>