<svg xmlns="http://www.w3.org/2000/svg" viewBox="0 0 1252.2 473.87"><defs><style>.cls-1{fill:#fff;}</style></defs><title>Asset 16</title><g id="Layer_2" data-name="Layer 2"><g id="Layer_1-2" data-name="Layer 1"><path class="cls-1" d="M151.92,284.79v-81L165,200.31v81Z"/><path class="cls-1" d="M220.32,266.6l-37.92-48v58.07l-4.32,1.15v-81l8.52-2.27,37.92,49.2V184.49l4.32-1.15v81Z"/><path class="cls-1" d="M267.24,254.85c-17.76,4.72-29.52-2.23-28.08-18.21l12.6-3.35c-1.2,13.64,4.56,20.14,16.44,17,8.88-2.36,14.88-9.35,14.88-18.71,0-8.16-2.28-12.71-17.52-12.86-9-1-25.68-.13-25.68-16.57,0-12.72,10.8-25.31,28.2-29.94,19.2-5.1,28.08,3.69,26.76,18.92l-12.6,3.35c.72-4.75.36-21.81-15.36-17.63-8.88,2.36-14.52,7.58-14.52,16.7,0,13.32,11.64,11.06,22.56,12.6,13.44-.09,21.6,4.34,21.6,17.18C296.52,238.67,282.24,250.86,267.24,254.85Z"/><path class="cls-1" d="M344.76,200.88l-23.28,6.19v32.64l-13.68,3.64v-81l38.76-10.3c9.24-2.46,24.36-2,24.36,16.8S355.68,198,344.76,200.88Zm0-44L321.48,163v39.72l23.16-6.16c7.8-2.07,11.88-9.39,11.88-23.79C356.52,160.32,352.8,154.71,344.76,156.84Z"/><path class="cls-1" d="M381.48,223.76v-81l13.8-3.67v81Z"/><path class="cls-1" d="M469.92,162c8.64-.5,18.24,1.27,18.48,11.52v4c0,6,.36,11.79,2.52,17.21L477,198.36a34.65,34.65,0,0,1-2.64-14.53v-6.6c0-13.44-11.4-12.09-16.56-11l-31.32,8.33v37.2l-13.92,3.7v-81l51.6-13.72c9.36-2.49,27-3.94,27,14.54C491.16,149.84,480,157.73,469.92,162Zm-7.56-36.39-35.88,9.54v35.16l35.64-9.48c8.4-2.23,14.4-7.19,14.4-21.35C476.52,127.93,471.12,123.25,462.36,125.58Z"/><path class="cls-1" d="M565.44,150.37l-52.68,14-13.33,28-5.28,1.4L538.56,101l11.76-3.12,43.44,69.44-15.48,4.12Zm-50.16,8.78L563,146.45l-23.4-38.3Z"/><path class="cls-1" d="M580.8,89.77l78.84-21v4.32l-32.28,8.58v76.68l-13.92,3.7V85.41L580.8,94.09Z"/><path class="cls-1" d="M669.11,147.29v-81l13.81-3.67v81Z"/><path class="cls-1" d="M766.68,79.59c0,28.56-14,46.21-36.36,52.15-21,5.58-35.05-3.4-35.05-30.64s12.48-45.8,36.61-52.21C754.44,42.89,766.68,53.31,766.68,79.59Zm-14.4,3.11c0-29.52-8.4-32.68-20.76-29.4-11.77,3.13-21.85,10.61-21.85,44.45,0,27.48,6.6,33.4,21.49,29.45C741.84,124.36,752.28,116.9,752.28,82.7Z"/><path class="cls-1" d="M827.88,105.08l-45.49-47.3v59.39l-4.32,1.15v-81l8.52-2.27,45.49,48.51V23l4.32-1.15v81Z"/><path class="cls-1" d="M877.79,67.33,856,73.14l-6.84,26.3-4.8,1.27,22-86.83L877.07,11l21,75.41-13.92,3.7Zm-20.64.93,19.44-5.17L867.23,29.7Z"/><path class="cls-1" d="M918.47,0V76.68L932.27,73v4.32l-26.88,7.14v-81Z"/><path class="cls-1" d="M0,436.54v-81l14.88-4c14.64-3.89,21.72,7.31,21.72,33.7,0,28.32-8.16,43.69-22.32,47.46Zm13.08-80.15v72.36l.72-.2c5.4-1.43,9-4.91,9-38.75,0-29.76-2.76-35.26-9-33.6Z"/><path class="cls-1" d="M48.6,423.62v-81L106,327.38v4.32L62.28,343.31V376l40.8-10.85v4.32l-40.8,10.85v35.4l44-11.71v4.32Z"/><path class="cls-1" d="M155.28,396c-24.24,6.45-45,1.89-43.56-14.1l13.08-3.47c-1.08,13.84,9.84,18.74,31.68,12.93,15.25-4,28.45-11.64,28.45-25.32,0-7.92-3.84-11.94-31.21-6.94-14.28,2.35-40.68,8.17-40.68-10.19,0-15.6,19.2-29.22,43.2-35.6,27.85-7.4,43.09-.3,41.77,14.94l-13.2,3.5c.72-4.51-1.32-21.36-29.65-13.83-18.36,4.88-28.44,14.28-28.44,23.16,0,12.72,20,7.15,36.36,4.61,24.73-4.29,35.89-.66,35.89,12.9C199,379,172.57,391.39,155.28,396Z"/><path class="cls-1" d="M211.92,380.2v-81l14.16-3.77v81Z"/><path class="cls-1" d="M295,347.45c-3.84,8.7-12.48,14.71-22.92,17.49-19,5-32.52-4.31-32.52-30.47,0-27.84,13.92-47,37.2-53.21,19.2-5.11,30.72,2.27,29,19.16L293,303.8c.12-1.35.12-2.43.12-3.63,0-15.84-8.88-16.6-17.64-14.27-10.32,2.74-21.6,10.42-21.6,44.5,0,29.64,9.12,32.61,19.56,29.84,8.52-2.27,18.12-9,19.32-24.1V323.3l-20.64,5.49v-4.32l32.52-8.65,1.8,1.45v37.79l-3.6,1Z"/><path class="cls-1" d="M344.88,344.86,322,296.11V351l-4.32,1.15v-81l8.52-2.26,22.92,49.58V262.74l4.32-1.15v81Z"/><path class="cls-1" d="M386.64,252.76,419.52,244v4.32l-9.72,2.58V327.6l-13.08,3.47V254.4l-10.08,2.68Z"/><path class="cls-1" d="M464.4,288.6l-31.8,8.46L423.48,324l-4.92,1.31L448,236.45l11.16-3,28.44,73.43-14.4,3.83Zm-30.12,3.45,28.56-7.59L448.92,249Z"/><path class="cls-1" d="M512.16,219.39v76.67L586,276.44v4.32l-88.08,23.42v-81Z"/><path class="cls-1" d="M594.84,278.4v-81l13.68-3.64v40.08L623.16,230l29-47.8,5-1.34-23.88,39.46,26.28,40.89-16.08,4.28-20.88-31-14.16,3.77v36.6Z"/><path class="cls-1" d="M677.76,257.08c-11.4,3-16.68-3.49-16.68-16.09,0-1.68.12-3.39.24-5.22l12.12-3.22c-.24,2.7-.36,5.13-.36,7.41,0,8.76,1.92,13.53,5.52,12.57,4-1.05,4.56-7.69,4.56-13.81,0-8.28-1.08-13.15-7.2-17.28-5-3.46-14.4-6.25-14.4-21.25,0-10.56,4.56-22.45,16.92-25.74,11.16-3,15.72,4.46,15.72,16.7,0,1.68-.12,3.39-.24,5.22l-12.12,3.23a61.11,61.11,0,0,0,.48-7.93c0-6.36-1-13.67-5-12.58-1.92.51-4.2,2.68-4.2,11.8,0,13.79,5.28,14.19,12.24,18.58,5,3.22,10.8,8.29,10.8,20.53C696.12,241.52,691.08,253.54,677.76,257.08Z"/><path class="cls-1" d="M747.36,213.38l-12.24,3.25-4.32,25.63-4.56,1.21,14.4-84.83,10.56-2.8,13.44,77.42-13.32,3.54ZM736,211.85,746.64,209l-5-30.58Z"/><path class="cls-1" d="M864.12,206.81l-82.92-43v65L776.88,230V149l8.52-2.26,82.92,44.31V124.7l4.32-1.15v81Z"/><path class="cls-1" d="M888.72,200.27v-81l14.88-4c14.64-3.89,21.72,7.31,21.72,33.71,0,28.31-8.16,43.68-22.32,47.45Zm13.08-80.15v72.36l.72-.19c5.4-1.44,9-4.92,9-38.76,0-29.75-2.76-35.26-9-33.6Z"/><path class="cls-1" d="M997.8,171.27V119.08l-11.16,55.16-9.84,2.62-11.64-47.79V180l-4.32,1.15v-81l9.72-2.58,14.88,61,13.92-68.62,10.92-2.9v81Z"/><path class="cls-1" d="M1091.76,104.54c0,28.55-14,46.21-36.36,52.14-21,5.58-35-3.4-35-30.64s12.48-45.8,36.6-52.21C1079.52,67.83,1091.76,78.26,1091.76,104.54Zm-14.4,3.1c0-29.51-8.4-32.68-20.76-29.39-11.76,3.12-21.84,10.6-21.84,44.44,0,27.48,6.6,33.4,21.48,29.45C1066.92,149.3,1077.36,141.84,1077.36,107.64Z"/><path class="cls-1" d="M1145.28,123.79l40.32-83.44,5.28-1.4-44.4,92.8-11.76,3.12-43.44-69.44,15.48-4.12Z"/><path class="cls-1" d="M1197.36,118.22v-81L1211,33.59v81Z"/><path class="cls-1" d="M1225.08,110.85v-81l26.76-7.11v4.32l-13.68,3.64V63.34l10.8-2.88v4.32l-10.8,2.88v35.39l14-3.73v4.32Z"/><path class="cls-1" d="M278.52,473.87v-81l26.76-7.12v4.32l-13.68,3.64v32.64l10.8-2.87v4.32l-10.8,2.87v35.4l14-3.73v4.32Z"/><path class="cls-1" d="M343.44,441.85l21.72-72,4.68-1.24-25.32,87.73L334,459.13l-25.2-74.3,13.92-3.7Z"/><path class="cls-1" d="M378.36,447.32v-81l65-17.3v4.32L392.16,367v32.64l48.36-12.86v4.32l-48.36,12.86v35.39l51.6-13.71v4.32Z"/><path class="cls-1" d="M536.28,405.34l-75.48-44v64.08l-4.32,1.14v-81l8.52-2.27,75.48,45.21V323.22l4.32-1.14v81Z"/><path class="cls-1" d="M563.76,398V317l14.16-3.77v81Z"/><path class="cls-1" d="M660.6,372.29l-60.48-45.6v61.68l-4.33,1.15v-81l8.53-2.27,60.48,46.92v-63l4.32-1.14v81Z"/><path class="cls-1" d="M729.84,343.68c-3.24,8.42-10.44,13.7-19.8,16.18-17.53,4.66-28.45-5.63-28.45-31.67,0-28.08,11.64-46.3,32.89-51.94,16.56-4.41,25.92,2,25.92,16.27,0,1.2-.12,2.43-.24,3.78l-12.6,3.35c.12-1.71.24-3.3.24-4.74,0-14.88-7-16-14.4-14.06-8.76,2.33-17.52,9.34-17.52,43.66,0,29.4,6.84,33,15.84,30.59,6.72-1.79,14.16-7.49,15.6-21.43V319.15l-16.68,4.44v-4.32l28.44-7.56,1.8,1.44V351l-3.6.95Z"/><path class="cls-1" d="M766.31,344.9c-11.4,3-16.68-3.48-16.68-16.08,0-1.68.12-3.39.24-5.23L762,320.37c-.24,2.71-.36,5.14-.36,7.42,0,8.76,1.92,13.53,5.52,12.57,4-1.05,4.56-7.69,4.56-13.81,0-8.28-1.08-13.15-7.2-17.29-5-3.46-14.4-6.25-14.4-21.25,0-10.56,4.56-22.45,16.92-25.74,11.17-3,15.73,4.46,15.73,16.7,0,1.68-.12,3.4-.24,5.23l-12.12,3.22a62.84,62.84,0,0,0,.48-7.93c0-6.36-1-13.66-5-12.58-1.92.51-4.2,2.68-4.2,11.8,0,13.8,5.28,14.2,12.25,18.58,5,3.22,10.8,8.29,10.8,20.53C784.68,329.34,779.64,341.36,766.31,344.9Z"/><path class="cls-1" d="M835.91,301.2l-12.24,3.25-4.32,25.63-4.56,1.21,14.4-84.82,10.56-2.81,13.44,77.43-13.32,3.54Zm-11.4-1.53,10.68-2.84-5-30.58Z"/><path class="cls-1" d="M854.15,239.83,887,231.09v4.32L877.31,238v76.67l-13.08,3.48V241.47l-10.08,2.68Z"/><path class="cls-1" d="M937.07,298.79l-16.8,4.46v-81l14.64-3.9c11.88-3.16,19.2-.06,19.2,13.86,0,12.36-7.92,19.38-16.56,23.12,9.6-1.11,18.36,1.36,18.36,16.12C955.91,283.58,952.43,294.7,937.07,298.79ZM934,222.94l-.6.16v31.56l.36-.1c4.32-1.15,6.6-4.51,6.6-17.59C940.31,223.53,937.91,221.89,934,222.94Zm-.36,36-.24.07v36.48l.84-.23c3.84-1,7.8-4.71,7.8-20C942,259,937.43,257.89,933.59,258.91Z"/><path class="cls-1" d="M968.39,290.46v-81l80.41-21.37v4.32L982.55,210v32.64l63.37-16.85v4.32L982.55,247v35.4l66.61-17.71V269Z"/><path class="cls-1" d="M1151.4,241.81V174.25L1113.23,252l-8.76,2.33-38.28-51.5v61.68l-4.32,1.15v-81l9.72-2.58,43,57.93,38.53-79.6,12.36-3.28v81Z"/><path class="cls-1" d="M1185.59,218.2c4.2-1.12,7.68,1.44,7.68,5.63s-3.48,8.49-7.68,9.61-7.56-1.35-7.56-5.55A10.64,10.64,0,0,1,1185.59,218.2Z"/></g></g></svg>