<svg xmlns="http://www.w3.org/2000/svg" viewBox="0 0 205.27 94.97"><defs><style>.cls-1{fill:#2600b1;}</style></defs><title>Asset 3</title><g id="Layer_2" data-name="Layer 2"><g id="Layer_1-2" data-name="Layer 1"><path class="cls-1" d="M1.25,61.93l-.08-8.09,2.27-.61c1.9-.52,2.76.73,2.78,3.18,0,2.8-1.07,4.47-2.8,4.94Zm1.9-8,.06,6.77.12,0c.55-.15.84-.52.81-3.94,0-2.38-.18-3-.88-2.83Z"/><path class="cls-1" d="M26.68,55.07,26.6,47,30.12,46v.66l-1.56.42,0,2.9,1.19-.32v.66l-1.19.32,0,3.22,1.62-.44v.66Z"/><path class="cls-1" d="M52.57,48.18a1.7,1.7,0,0,1-2.37-1.75,2.83,2.83,0,0,1,0-.41l1.82-.49c0,.21,0,.41,0,.63,0,.77.18,1.46.63,1.33s.43-.55.43-1a1.41,1.41,0,0,0-1-1.49c-.72-.35-1.84-.65-1.85-2.22a2.88,2.88,0,0,1,2.26-2.9c1.59-.43,2.25.43,2.26,1.67,0,.12,0,.24,0,.36l-1.82.49a4.4,4.4,0,0,0,0-.8c0-.57-.12-1.15-.52-1S52,41.07,52,41.6c0,1,.46.88,1.77,1.65A2.06,2.06,0,0,1,55,45.1,3.23,3.23,0,0,1,52.57,48.18Z"/><path class="cls-1" d="M75.34,41.92l-.08-8.1,2-.53.08,8.1Z"/><path class="cls-1" d="M100.21,34.64c.29-.08.42-.47.4-2.63v-.29l-.38.1v-.66l2.07-.56.27.26,0,3.69-.49.13-.69-.6a1.75,1.75,0,0,1-1.34,1.26c-1.93.52-2.37-1.39-2.39-3.27,0-2.35.62-4.58,2.69-5.14,1.59-.43,2.18.6,2.19,1.87,0,.14,0,.29,0,.44l-1.81.49a9.21,9.21,0,0,0,.05-1.09c0-.87-.19-1.11-.47-1s-.58.92-.54,4.21C99.8,34.31,99.89,34.73,100.21,34.64Z"/><path class="cls-1" d="M126.47,28.1l-2.79-4.4,0,5.14-.6.16-.08-8.09,1.36-.37,2.8,4.62,0-5.36.6-.16.08,8.09Z"/><path class="cls-1" d="M148.54,22.14l-.08-8.1,3.52-.95v.66l-1.56.42,0,2.9,1.19-.32v.66l-1.19.32,0,3.22,1.62-.44v.66Z"/><path class="cls-1" d="M175,10.9c1.11-.25,2.11.07,2.12,1.3v.42a9.3,9.3,0,0,0,.13,1.76l-2,.53a4.56,4.56,0,0,1-.12-1.26v-.6c0-1.55-.48-1.69-.79-1.6h0l0,3.71-2,.53-.08-8.1L174.62,7c1.27-.34,2.52-.23,2.53,1.38C177.16,9.65,176.35,10.39,175,10.9Zm-.67-3.18h0l0,3.06c.64-.19.75-.86.74-1.87C175.06,8.12,175,7.54,174.32,7.72Z"/><path class="cls-1" d="M199.69,8.43a1.7,1.7,0,0,1-2.37-1.76,2.8,2.8,0,0,1,0-.4l1.82-.49c0,.21,0,.41,0,.63,0,.77.18,1.45.63,1.33s.43-.55.43-1a1.43,1.43,0,0,0-1-1.49c-.72-.34-1.84-.64-1.85-2.21a2.87,2.87,0,0,1,2.26-2.9c1.59-.43,2.25.43,2.26,1.66,0,.12,0,.25,0,.37L200,2.63a4.53,4.53,0,0,0,.05-.81c0-.56-.12-1.14-.52-1s-.46.53-.45,1.06c0,1,.46.88,1.77,1.65a2,2,0,0,1,1.23,1.85A3.23,3.23,0,0,1,199.69,8.43Z"/><path class="cls-1" d="M10.59,92.17,10.44,76.1,7.47,93l-2.76.75L1.3,79l.15,15.66L.25,95,0,70l2.72-.73L7.08,88.15l3.71-21,3.05-.83.25,24.93Z"/><path class="cls-1" d="M36.78,72.2C36.86,81,33,86.34,26.72,88c-5.88,1.59-9.85-1.26-9.93-9.65s3.37-14,10.12-15.84C33.23,60.83,36.7,64.12,36.78,72.2Zm-4,.87C32.65,64,30.28,63,26.82,63.89c-3.29.89-6.1,3.13-6,13.55.09,8.46,2,10.33,6.13,9.2C29.94,85.83,32.84,83.6,32.74,73.07Z"/><path class="cls-1" d="M51.86,78.46,62.93,53l1.48-.4L52.22,80.92l-3.29.89L36.52,60.16,40.86,59Z"/><path class="cls-1" d="M66.47,77.07l-.25-24.93,3.83-1L70.3,76Z"/><path class="cls-1" d="M74.23,75,74,50l7.5-2v1.33l-3.83,1,.1,10,3-.82v1.33l-3,.82.11,10.89,3.93-1.06v1.33Z"/><path class="cls-1" d="M110.18,65.26,93.06,50.85l.19,19L92,70.16l-.25-24.93,2.39-.65L111.3,59.4,111.11,40l1.21-.33.25,24.94Z"/><path class="cls-1" d="M116.63,63.52l-.24-24.94,3.66-1,.24,24.94Z"/><path class="cls-1" d="M138.61,54.28a9.15,9.15,0,0,1-6.39,5.25C126.91,61,123.08,58,123,49.94c-.08-8.57,3.77-14.38,10.28-16.15,5.38-1.45,8.64.89,8.22,6.08l-3.57,1c0-.41,0-.74,0-1.11-.05-4.88-2.55-5.17-5-4.5-2.89.78-6,3.07-5.93,13.56.09,9.13,2.66,10.1,5.58,9.31,2.39-.65,5.06-2.67,5.36-7.3l0-3.95-5.78,1.56,0-1.33,9.11-2.46.51.45.11,11.64-1,.27Z"/><path class="cls-1" d="M146.06,55.56l-.24-24.93,4-1.08.11,11.23,19.45-5.26-.11-11.23,4-1.08.25,24.94-4,1.08-.13-12.38-19.45,5.26.12,12.37Z"/><path class="cls-1" d="M176.43,22.36l17.77-4.8v1.33l-6.92,1.87.24,23.6-3.84,1-.23-23.61-7,1.9Z"/><path class="cls-1" d="M200.19,41.16C197,42,195.5,40,195.46,36.1c0-.51,0-1,0-1.6l3.4-.92c-.06.83-.09,1.58-.08,2.28,0,2.7.58,4.18,1.59,3.91s1.25-2.34,1.24-4.23c0-2.55-.35-4.05-2.08-5.36-1.43-1.1-4.06-2-4.11-6.63,0-3.25,1.22-6.89,4.68-7.82,3.12-.85,4.42,1.47,4.46,5.24,0,.51,0,1-.05,1.6l-3.39.92a21,21,0,0,0,.11-2.44c0-2-.32-4.21-1.46-3.9-.53.14-1.17.8-1.14,3.6,0,4.25,1.52,4.41,3.49,5.8,1.43,1,3.06,2.62,3.1,6.39C205.3,36.48,203.92,40.15,200.19,41.16Z"/></g></g></svg>