<svg xmlns="http://www.w3.org/2000/svg" viewBox="0 0 117.49 245.65"><defs><style>.cls-1{fill:#3db461;}</style></defs><title>Asset 2</title><g id="Layer_2" data-name="Layer 2"><g id="Layer_1-2" data-name="Layer 1"><rect class="cls-1" x="81.18" y="9.24" width="3.41" height="240.55" transform="translate(127.09 276.78) rotate(-164.09)"/><rect class="cls-1" x="32.9" y="-4.14" width="3.41" height="240.55" transform="translate(36.05 237.31) rotate(-164.09)"/><polygon class="cls-1" points="63.2 17.06 64.13 13.79 108.32 40.24 107.39 43.52 63.2 17.06"/><polygon class="cls-1" points="55.73 43.28 56.66 40 100.85 66.46 99.92 69.74 55.73 43.28"/><polygon class="cls-1" points="48.25 69.5 49.19 66.22 93.38 92.68 92.44 95.95 48.25 69.5"/><polygon class="cls-1" points="40.78 95.71 41.71 92.44 85.91 118.89 84.97 122.17 40.78 95.71"/><polygon class="cls-1" points="33.31 121.93 34.24 118.65 78.44 145.11 77.5 148.39 33.31 121.93"/><polygon class="cls-1" points="25.84 148.15 26.77 144.87 70.96 171.33 70.03 174.61 25.84 148.15"/><polygon class="cls-1" points="18.36 174.37 19.3 171.09 63.49 197.55 62.56 200.82 18.36 174.37"/><polygon class="cls-1" points="10.89 200.58 11.83 197.31 56.02 223.76 55.08 227.04 10.89 200.58"/></g></g></svg>