<svg xmlns="http://www.w3.org/2000/svg" viewBox="0 0 104.77 471.25"><defs><style>.cls-1{fill:none;stroke:#2600b1;stroke-miterlimit:10;}.cls-2{fill:#2600b1;}</style></defs><title>Asset 17</title><g id="Layer_2" data-name="Layer 2"><g id="Layer_1-2" data-name="Layer 1"><path class="cls-1" d="M103.35,117.7c.78-34.26.92-95.31.92-112.83C80.36,3.06,22.07,2.81,1,4.34.72,25.26.32,91.29.59,109.59c7.67,14,46,15.11,59.35,15.43C71.14,125.29,98.15,126,103.35,117.7Z"/><path class="cls-1" d="M104.27,4.87c0-2.27-.55-3-4.19-3.4C94.85.9,28.43-.39,4.9,1.47,1,1.78,1,2.93,1,4.34"/><path class="cls-1" d="M64.54,99.93c-21.91.43-30.12-2.33-30.7,2.8-.62,5.53,7.43,6.67,31,6.54,22.15-.11,28.45-1.82,28.22-6.33C92.74,97.61,80.39,99.62,64.54,99.93Z"/><circle class="cls-1" cx="62.43" cy="53.18" r="4.65"/><circle class="cls-1" cx="63.35" cy="53.18" r="7.25"/><circle class="cls-1" cx="62.43" cy="53.18" r="2.23"/><circle class="cls-1" cx="63.35" cy="53.18" r="8.22"/><circle class="cls-1" cx="63.55" cy="53.33" r="14.32"/><ellipse class="cls-1" cx="63.47" cy="53.18" rx="17.05" ry="17.67"/><ellipse class="cls-1" cx="63.34" cy="53.18" rx="18.53" ry="19.34"/><path class="cls-1" d="M96.84,53.18c-.3,22-14,39.34-34.51,36.35-18-2.62-35.46-16.62-34.51-36.35S45,18.94,62.33,16.83C82.87,14.33,97.15,31.3,96.84,53.18Z"/><path class="cls-1" d="M1.18,133l.67,17s1.32,1.89,11,2.17,70.42.19,78.26-.38,11.25-1.79,11.25-1.79l.71-17Z"/><path class="cls-1" d="M25.2,152.21l-1.8,1.67v5.92l2.84,2.11s9.72,1.28,27.5,1.14c14.4-.12,20.31-.89,23.82-1.42l3-2v-6.06L78.78,152"/><path class="cls-1" d="M32.17,162.42v3a16.8,16.8,0,0,0,8.14,2.14c5,.1,21.35.44,25.11.24a22.62,22.62,0,0,0,7.6-2.09l-.09-3.5"/><polyline class="cls-1" points="40.31 167.61 40.31 470.75 62.31 470.75 64.94 167.94"/><line class="cls-1" x1="56.57" y1="132.98" x2="56.57" y2="152.13"/><line class="cls-1" x1="54.42" y1="132.98" x2="54.43" y2="152.13"/><line class="cls-1" x1="52.23" y1="132.98" x2="52.24" y2="152.14"/><line class="cls-1" x1="49.88" y1="132.98" x2="49.88" y2="152.15"/><line class="cls-1" x1="47.39" y1="132.98" x2="47.4" y2="152.15"/><line class="cls-1" x1="45.15" y1="132.98" x2="45.17" y2="152.17"/><line class="cls-1" x1="42.9" y1="132.98" x2="42.9" y2="152.17"/><line class="cls-1" x1="40.66" y1="132.98" x2="40.72" y2="152.21"/><line class="cls-1" x1="38.55" y1="133.09" x2="38.55" y2="152.24"/><line class="cls-1" x1="36.18" y1="132.98" x2="36.38" y2="152.2"/><line class="cls-1" x1="33.93" y1="132.98" x2="34.07" y2="152.21"/><line class="cls-1" x1="31.69" y1="132.98" x2="31.92" y2="152.21"/><line class="cls-1" x1="29.45" y1="132.98" x2="29.77" y2="152.23"/><line class="cls-1" x1="27.52" y1="132.98" x2="27.74" y2="152.23"/><line class="cls-1" x1="25.68" y1="132.98" x2="25.85" y2="152.21"/><line class="cls-1" x1="23.71" y1="132.98" x2="23.88" y2="152.21"/><line class="cls-1" x1="21.71" y1="132.98" x2="21.88" y2="152.21"/><line class="cls-1" x1="19.91" y1="132.98" x2="20.08" y2="152.21"/><line class="cls-1" x1="18.46" y1="132.98" x2="18.63" y2="152.21"/><line class="cls-1" x1="16.72" y1="132.98" x2="16.97" y2="152.18"/><line class="cls-1" x1="15.41" y1="132.98" x2="15.74" y2="152.17"/><line class="cls-1" x1="13.94" y1="132.98" x2="14.19" y2="152.14"/><line class="cls-1" x1="12.45" y1="132.98" x2="12.72" y2="152.11"/><line class="cls-1" x1="10.87" y1="132.98" x2="11.17" y2="152.04"/><line class="cls-1" x1="9.7" y1="132.98" x2="9.94" y2="151.96"/><line class="cls-1" x1="8.32" y1="132.98" x2="8.62" y2="151.85"/><line class="cls-1" x1="7.11" y1="132.98" x2="7.44" y2="151.71"/><line class="cls-1" x1="6.27" y1="132.98" x2="6.5" y2="151.57"/><line class="cls-1" x1="5.48" y1="132.98" x2="5.6" y2="151.4"/><line class="cls-1" x1="4.6" y1="132.98" x2="4.71" y2="151.2"/><line class="cls-1" x1="3.62" y1="132.98" x2="3.82" y2="150.95"/><line class="cls-1" x1="2.74" y1="132.98" x2="2.95" y2="150.63"/><line class="cls-1" x1="1.87" y1="132.98" x2="2.29" y2="150.29"/><line class="cls-1" x1="58.88" y1="132.98" x2="58.88" y2="152.12"/><line class="cls-1" x1="61.19" y1="132.98" x2="61.19" y2="152.11"/><line class="cls-1" x1="63.5" y1="132.98" x2="63.5" y2="152.1"/><line class="cls-1" x1="65.81" y1="132.98" x2="65.81" y2="152.09"/><line class="cls-1" x1="68.12" y1="132.98" x2="68.12" y2="152.09"/><line class="cls-1" x1="70.32" y1="132.98" x2="70.32" y2="152.08"/><line class="cls-1" x1="72.37" y1="132.98" x2="72.37" y2="152.07"/><line class="cls-1" x1="74.41" y1="132.98" x2="74.41" y2="152.06"/><line class="cls-1" x1="76.67" y1="132.98" x2="76.67" y2="152.05"/><line class="cls-1" x1="78.67" y1="132.98" x2="78.67" y2="152.05"/><line class="cls-1" x1="80.58" y1="132.98" x2="80.58" y2="152.02"/><line class="cls-1" x1="82.59" y1="132.98" x2="82.59" y2="151.99"/><line class="cls-1" x1="84.36" y1="132.98" x2="84.36" y2="151.96"/><line class="cls-1" x1="86.13" y1="132.98" x2="86.13" y2="151.92"/><line class="cls-1" x1="87.64" y1="132.98" x2="87.64" y2="151.88"/><line class="cls-1" x1="89.42" y1="132.98" x2="89.42" y2="151.82"/><line class="cls-1" x1="90.59" y1="132.98" x2="90.59" y2="151.76"/><line class="cls-1" x1="91.91" y1="132.98" x2="91.91" y2="151.67"/><line class="cls-1" x1="93.23" y1="132.98" x2="93.23" y2="151.55"/><line class="cls-1" x1="94.17" y1="132.98" x2="94.17" y2="151.45"/><line class="cls-1" x1="95.19" y1="132.98" x2="95.19" y2="151.34"/><line class="cls-1" x1="96.4" y1="132.98" x2="96.4" y2="151.18"/><line class="cls-1" x1="97.49" y1="132.98" x2="97.49" y2="151.01"/><line class="cls-1" x1="98.4" y1="132.98" x2="98.4" y2="150.86"/><line class="cls-1" x1="99.19" y1="132.98" x2="99.19" y2="150.71"/><line class="cls-1" x1="99.98" y1="132.98" x2="99.77" y2="150.59"/><line class="cls-1" x1="100.43" y1="132.98" x2="100.34" y2="150.45"/><line class="cls-1" x1="101.11" y1="132.98" x2="100.88" y2="150.34"/><line class="cls-1" x1="101.75" y1="132.98" x2="101.37" y2="150.22"/><line class="cls-1" x1="102.43" y1="132.98" x2="101.86" y2="150.08"/><path class="cls-1" d="M23.4,153.88c8-.3,49.24-.46,57.18.09"/><path class="cls-1" d="M23.4,159.8c8.37,1,54.1,1.49,57.18-.15"/><line class="cls-1" x1="50.85" y1="153.6" x2="50.85" y2="160.73"/><line class="cls-1" x1="48.62" y1="153.61" x2="48.62" y2="160.71"/><line class="cls-1" x1="46.25" y1="153.62" x2="46.25" y2="160.68"/><line class="cls-1" x1="43.84" y1="153.63" x2="43.84" y2="160.65"/><line class="cls-1" x1="41.78" y1="153.6" x2="41.78" y2="160.61"/><line class="cls-1" x1="39.62" y1="153.66" x2="39.62" y2="160.56"/><line class="cls-1" x1="37.49" y1="153.66" x2="37.49" y2="160.51"/><line class="cls-1" x1="35.6" y1="153.68" x2="35.6" y2="160.46"/><line class="cls-1" x1="33.62" y1="153.7" x2="33.63" y2="160.4"/><line class="cls-1" x1="32.05" y1="153.71" x2="32.05" y2="160.34"/><line class="cls-1" x1="30.56" y1="153.73" x2="30.56" y2="160.28"/><line class="cls-1" x1="29.28" y1="153.75" x2="29.26" y2="160.22"/><line class="cls-1" x1="28.38" y1="153.75" x2="28.38" y2="160.18"/><line class="cls-1" x1="27.26" y1="153.78" x2="27.26" y2="160.12"/><line class="cls-1" x1="26.33" y1="153.8" x2="26.33" y2="160.06"/><line class="cls-1" x1="25.27" y1="153.82" x2="25.27" y2="159.98"/><line class="cls-1" x1="24.52" y1="153.84" x2="24.52" y2="159.92"/><line class="cls-1" x1="23.96" y1="153.86" x2="23.96" y2="159.87"/><line class="cls-1" x1="53.83" y1="153.6" x2="53.83" y2="160.74"/><line class="cls-1" x1="56.19" y1="153.6" x2="56.19" y2="160.75"/><line class="cls-1" x1="58.51" y1="153.61" x2="58.51" y2="160.74"/><line class="cls-1" x1="60.75" y1="153.62" x2="60.75" y2="160.73"/><line class="cls-1" x1="62.54" y1="153.63" x2="62.54" y2="160.71"/><line class="cls-1" x1="64.38" y1="153.64" x2="64.38" y2="160.69"/><line class="cls-1" x1="65.91" y1="153.65" x2="65.91" y2="160.66"/><line class="cls-1" x1="67.57" y1="153.66" x2="67.57" y2="160.63"/><line class="cls-1" x1="69.07" y1="153.68" x2="69.07" y2="160.59"/><line class="cls-1" x1="70.5" y1="153.69" x2="70.5" y2="160.55"/><line class="cls-1" x1="71.74" y1="153.71" x2="71.74" y2="160.51"/><line class="cls-1" x1="72.92" y1="153.73" x2="72.92" y2="160.46"/><line class="cls-1" x1="73.93" y1="153.74" x2="73.93" y2="160.41"/><line class="cls-1" x1="74.85" y1="153.76" x2="74.85" y2="160.36"/><line class="cls-1" x1="75.77" y1="153.78" x2="75.77" y2="160.31"/><line class="cls-1" x1="76.67" y1="153.81" x2="76.67" y2="160.24"/><line class="cls-1" x1="77.69" y1="153.84" x2="77.69" y2="160.16"/><line class="cls-1" x1="78.57" y1="153.87" x2="78.57" y2="160.07"/><line class="cls-1" x1="79.36" y1="153.9" x2="79.36" y2="159.97"/><line class="cls-1" x1="80.02" y1="153.93" x2="80.02" y2="159.86"/><circle class="cls-2" cx="62.6" cy="102.92" r="0.66"/><circle class="cls-2" cx="64.8" cy="103.05" r="0.66"/><circle class="cls-2" cx="67" cy="102.99" r="0.66"/><circle class="cls-2" cx="69.14" cy="102.99" r="0.66"/><circle class="cls-2" cx="71.28" cy="102.95" r="0.66"/><circle class="cls-2" cx="73.34" cy="102.85" r="0.66"/><ellipse class="cls-2" cx="75.32" cy="102.76" rx="0.6" ry="0.66"/><ellipse class="cls-2" cx="77.29" cy="102.68" rx="0.61" ry="0.66"/><ellipse class="cls-2" cx="79.2" cy="102.58" rx="0.6" ry="0.66"/><ellipse class="cls-2" cx="80.98" cy="102.33" rx="0.57" ry="0.66"/><ellipse class="cls-2" cx="82.8" cy="102.2" rx="0.54" ry="0.66"/><ellipse class="cls-2" cx="84.55" cy="101.92" rx="0.53" ry="0.66"/><ellipse class="cls-2" cx="86.08" cy="101.67" rx="0.46" ry="0.66"/><ellipse class="cls-2" cx="87.66" cy="101.37" rx="0.47" ry="0.66"/><ellipse class="cls-2" cx="88.91" cy="100.93" rx="0.38" ry="0.66"/><ellipse class="cls-2" cx="90.03" cy="100.55" rx="0.3" ry="0.66"/><circle class="cls-2" cx="63.58" cy="101.15" r="0.66"/><circle class="cls-2" cx="65.77" cy="101.27" r="0.66"/><circle class="cls-2" cx="67.98" cy="101.21" r="0.66"/><circle class="cls-2" cx="70.11" cy="101.21" r="0.66"/><circle class="cls-2" cx="72.26" cy="101.17" r="0.66"/><circle class="cls-2" cx="74.32" cy="101.08" r="0.66"/><ellipse class="cls-2" cx="76.29" cy="100.98" rx="0.6" ry="0.66"/><ellipse class="cls-2" cx="78.27" cy="100.9" rx="0.61" ry="0.66"/><ellipse class="cls-2" cx="80.17" cy="100.8" rx="0.6" ry="0.66"/><ellipse class="cls-2" cx="81.96" cy="100.55" rx="0.57" ry="0.66"/><ellipse class="cls-2" cx="83.78" cy="100.42" rx="0.54" ry="0.66"/><ellipse class="cls-2" cx="85.47" cy="100.14" rx="0.46" ry="0.66"/><ellipse class="cls-2" cx="62.52" cy="106.52" rx="0.65" ry="0.66" transform="translate(-53.18 149.75) rotate(-80.08)"/><ellipse class="cls-2" cx="64.73" cy="106.65" rx="0.65" ry="0.66" transform="translate(-51.48 152.04) rotate(-80.08)"/><ellipse class="cls-2" cx="66.96" cy="106.6" rx="0.65" ry="0.66" transform="translate(-49.59 154.19) rotate(-80.08)"/><ellipse class="cls-2" cx="69.11" cy="106.61" rx="0.65" ry="0.66" transform="translate(-47.82 156.31) rotate(-80.08)"/><ellipse class="cls-2" cx="71.27" cy="106.59" rx="0.65" ry="0.66" transform="translate(-46.01 158.42) rotate(-80.08)"/><ellipse class="cls-2" cx="73.34" cy="106.5" rx="0.65" ry="0.66" transform="translate(-44.2 160.39) rotate(-80.08)"/><ellipse class="cls-2" cx="75.33" cy="106.42" rx="0.61" ry="0.65" transform="translate(-2.12 1.54) rotate(-1.15)"/><ellipse class="cls-2" cx="77.32" cy="106.34" rx="0.62" ry="0.65" transform="translate(-2.88 2.15) rotate(-1.57)"/><ellipse class="cls-2" cx="79.25" cy="106.25" rx="0.61" ry="0.65" transform="translate(-2.11 1.61) rotate(-1.15)"/><ellipse class="cls-2" cx="81.05" cy="106.01" rx="0.58" ry="0.65" transform="translate(-1.18 0.92) rotate(-0.64)"/><ellipse class="cls-2" cx="82.88" cy="105.89" rx="0.54" ry="0.65" transform="translate(-0.67 0.53) rotate(-0.36)"/><ellipse class="cls-2" cx="84.64" cy="105.62" rx="0.53" ry="0.65" transform="translate(-0.6 0.48) rotate(-0.33)"/><ellipse class="cls-2" cx="86.18" cy="105.38" rx="0.47" ry="0.65" transform="translate(-0.27 0.22) rotate(-0.15)"/><ellipse class="cls-2" cx="87.78" cy="105.08" rx="0.47" ry="0.65" transform="translate(-0.29 0.25) rotate(-0.16)"/><ellipse class="cls-2" cx="89.03" cy="104.65" rx="0.38" ry="0.65"/><ellipse class="cls-2" cx="90.3" cy="104.23" rx="0.38" ry="0.65"/><ellipse class="cls-2" cx="91.26" cy="103.55" rx="0.3" ry="0.65"/><ellipse class="cls-2" cx="92.08" cy="102.85" rx="0.26" ry="0.65"/><ellipse class="cls-2" cx="90.84" cy="105.54" rx="0.38" ry="0.65"/><ellipse class="cls-2" cx="91.79" cy="104.86" rx="0.3" ry="0.65"/><ellipse class="cls-2" cx="92.61" cy="104.17" rx="0.26" ry="0.65"/><ellipse class="cls-2" cx="63.56" cy="108.36" rx="0.66" ry="0.65" transform="translate(-61.93 114.16) rotate(-62.25)"/><ellipse class="cls-2" cx="65.75" cy="108.46" rx="0.66" ry="0.65" transform="translate(-60.85 116.16) rotate(-62.25)"/><ellipse class="cls-2" cx="67.96" cy="108.38" rx="0.66" ry="0.65" transform="translate(-59.59 118.07) rotate(-62.25)"/><ellipse class="cls-2" cx="70.09" cy="108.35" rx="0.66" ry="0.65" transform="translate(-58.43 119.94) rotate(-62.25)"/><ellipse class="cls-2" cx="72.24" cy="108.3" rx="0.66" ry="0.65" transform="translate(-57.24 121.81) rotate(-62.25)"/><ellipse class="cls-2" cx="74.29" cy="108.18" rx="0.66" ry="0.65" transform="translate(-56.03 123.57) rotate(-62.25)"/><ellipse class="cls-2" cx="76.27" cy="108.06" rx="0.66" ry="0.6" transform="translate(-34.52 180.3) rotate(-87.89)"/><ellipse class="cls-2" cx="78.24" cy="107.96" rx="0.66" ry="0.61" transform="translate(-33.32 180.97) rotate(-87.27)"/><ellipse class="cls-2" cx="80.15" cy="107.84" rx="0.66" ry="0.6" transform="translate(-30.56 183.97) rotate(-87.89)"/><ellipse class="cls-2" cx="81.94" cy="107.57" rx="0.66" ry="0.57" transform="translate(-27.39 187.15) rotate(-88.75)"/><ellipse class="cls-2" cx="83.76" cy="107.42" rx="0.66" ry="0.54" transform="translate(-24.71 189.81) rotate(-89.28)"/><ellipse class="cls-2" cx="85.51" cy="107.12" rx="0.66" ry="0.53" transform="translate(-22.57 191.41) rotate(-89.35)"/><ellipse class="cls-2" cx="87.04" cy="106.85" rx="0.66" ry="0.46" transform="translate(-20.25 193.36) rotate(-89.72)"/><ellipse class="cls-2" cx="88.62" cy="106.53" rx="0.66" ry="0.47" transform="translate(-18.39 194.57) rotate(-89.69)"/><ellipse class="cls-2" cx="89.86" cy="106.08" rx="0.66" ry="0.38" transform="translate(-16.32 195.81) rotate(-89.93)"/><ellipse class="cls-2" cx="63.66" cy="104.85" rx="0.66" ry="0.65" transform="translate(-57.29 125.28) rotate(-68.33)"/><ellipse class="cls-2" cx="65.84" cy="104.96" rx="0.66" ry="0.65" transform="translate(-56.01 127.38) rotate(-68.33)"/><ellipse class="cls-2" cx="68.04" cy="104.88" rx="0.66" ry="0.65" transform="translate(-54.55 129.38) rotate(-68.33)"/><ellipse class="cls-2" cx="70.17" cy="104.86" rx="0.66" ry="0.65" transform="translate(-53.19 131.34) rotate(-68.33)"/><ellipse class="cls-2" cx="72.31" cy="104.81" rx="0.66" ry="0.65" transform="translate(-51.8 133.3) rotate(-68.33)"/><ellipse class="cls-2" cx="74.36" cy="104.7" rx="0.66" ry="0.65" transform="translate(-50.4 135.13) rotate(-68.33)"/><ellipse class="cls-2" cx="76.33" cy="104.59" rx="0.66" ry="0.6" transform="translate(-30.44 177.84) rotate(-88.33)"/><ellipse class="cls-2" cx="78.3" cy="104.49" rx="0.66" ry="0.61" transform="translate(-29.05 178.83) rotate(-87.86)"/><ellipse class="cls-2" cx="80.2" cy="104.38" rx="0.66" ry="0.6" transform="translate(-26.47 181.51) rotate(-88.34)"/><ellipse class="cls-2" cx="81.98" cy="104.12" rx="0.66" ry="0.57" transform="matrix(0.02, -1, 1, 0.02, -23.56, 184.25)"/><ellipse class="cls-2" cx="83.79" cy="103.97" rx="0.66" ry="0.53" transform="translate(-21.05 186.66) rotate(-89.4)"/><ellipse class="cls-2" cx="85.54" cy="103.68" rx="0.66" ry="0.53" transform="translate(-18.95 188.23) rotate(-89.45)"/><ellipse class="cls-2" cx="87.06" cy="103.42" rx="0.66" ry="0.46" transform="matrix(0, -1, 1, 0, -16.76, 190.01)"/><ellipse class="cls-2" cx="88.59" cy="103.1" rx="0.66" ry="0.42" transform="translate(-14.95 191.17) rotate(-89.72)"/><ellipse class="cls-2" cx="89.88" cy="102.65" rx="0.66" ry="0.38" transform="translate(-12.92 192.36) rotate(-89.9)"/><ellipse class="cls-2" cx="91.06" cy="102.02" rx="0.66" ry="0.38" transform="translate(-11.12 192.91) rotate(-89.9)"/><circle class="cls-2" cx="60.25" cy="103.05" r="0.66"/><circle class="cls-2" cx="58.05" cy="102.99" r="0.66"/><circle class="cls-2" cx="55.91" cy="102.99" r="0.66"/><circle class="cls-2" cx="53.77" cy="102.95" r="0.66"/><circle class="cls-2" cx="51.71" cy="102.85" r="0.66"/><ellipse class="cls-2" cx="49.73" cy="102.76" rx="0.6" ry="0.66"/><ellipse class="cls-2" cx="47.76" cy="102.68" rx="0.61" ry="0.66"/><ellipse class="cls-2" cx="45.85" cy="102.58" rx="0.6" ry="0.66"/><ellipse class="cls-2" cx="44.07" cy="102.33" rx="0.57" ry="0.66"/><ellipse class="cls-2" cx="42.25" cy="102.2" rx="0.54" ry="0.66"/><ellipse class="cls-2" cx="40.49" cy="101.92" rx="0.53" ry="0.66"/><ellipse class="cls-2" cx="38.97" cy="101.67" rx="0.46" ry="0.66"/><ellipse class="cls-2" cx="37.39" cy="101.37" rx="0.47" ry="0.66"/><ellipse class="cls-2" cx="36.14" cy="100.93" rx="0.38" ry="0.66"/><circle class="cls-2" cx="61.47" cy="101.15" r="0.66"/><circle class="cls-2" cx="59.27" cy="101.27" r="0.66"/><circle class="cls-2" cx="57.07" cy="101.21" r="0.66"/><circle class="cls-2" cx="54.93" cy="101.21" r="0.66"/><circle class="cls-2" cx="52.79" cy="101.17" r="0.66"/><circle class="cls-2" cx="50.73" cy="101.08" r="0.66"/><ellipse class="cls-2" cx="48.76" cy="100.98" rx="0.6" ry="0.66"/><ellipse class="cls-2" cx="46.78" cy="100.9" rx="0.61" ry="0.66"/><ellipse class="cls-2" cx="44.87" cy="100.8" rx="0.6" ry="0.66"/><ellipse class="cls-2" cx="43.09" cy="100.55" rx="0.57" ry="0.66"/><ellipse class="cls-2" cx="41.27" cy="100.42" rx="0.54" ry="0.66"/><ellipse class="cls-2" cx="60.31" cy="106.65" rx="0.66" ry="0.65" transform="translate(-17.48 11.99) rotate(-9.92)"/><ellipse class="cls-2" cx="58.09" cy="106.6" rx="0.66" ry="0.65" transform="translate(-17.5 11.61) rotate(-9.92)"/><ellipse class="cls-2" cx="55.94" cy="106.61" rx="0.66" ry="0.65" transform="translate(-17.54 11.24) rotate(-9.92)"/><ellipse class="cls-2" cx="53.78" cy="106.59" rx="0.66" ry="0.65" transform="translate(-17.56 10.86) rotate(-9.92)"/><ellipse class="cls-2" cx="51.71" cy="106.5" rx="0.66" ry="0.65" transform="matrix(0.99, -0.17, 0.17, 0.99, -17.58, 10.5)"/><ellipse class="cls-2" cx="49.71" cy="106.42" rx="0.65" ry="0.61" transform="translate(-57.68 153.98) rotate(-88.85)"/><ellipse class="cls-2" cx="47.73" cy="106.34" rx="0.65" ry="0.62" transform="translate(-59.88 151.15) rotate(-88.43)"/><ellipse class="cls-2" cx="45.8" cy="106.25" rx="0.65" ry="0.61" transform="translate(-61.35 149.91) rotate(-88.85)"/><ellipse class="cls-2" cx="44" cy="106.01" rx="0.65" ry="0.58" transform="translate(-62.49 148.82) rotate(-89.36)"/><ellipse class="cls-2" cx="42.17" cy="105.89" rx="0.65" ry="0.54" transform="translate(-63.98 147.39) rotate(-89.64)"/><ellipse class="cls-2" cx="40.4" cy="105.62" rx="0.65" ry="0.53" transform="translate(-65.45 145.42) rotate(-89.67)"/><ellipse class="cls-2" cx="38.87" cy="105.38" rx="0.65" ry="0.47" transform="translate(-66.61 143.97) rotate(-89.85)"/><ellipse class="cls-2" cx="37.27" cy="105.08" rx="0.65" ry="0.47" transform="translate(-67.91 142.06) rotate(-89.84)"/><ellipse class="cls-2" cx="36.01" cy="104.65" rx="0.38" ry="0.65"/><ellipse class="cls-2" cx="34.74" cy="104.23" rx="0.38" ry="0.65"/><ellipse class="cls-2" cx="61.49" cy="108.36" rx="0.65" ry="0.66" transform="translate(-43.38 41.09) rotate(-27.75)"/><ellipse class="cls-2" cx="59.3" cy="108.46" rx="0.65" ry="0.66" transform="translate(-43.67 40.07) rotate(-27.75)"/><ellipse class="cls-2" cx="57.09" cy="108.38" rx="0.65" ry="0.66" transform="translate(-43.89 39.04) rotate(-27.75)"/><ellipse class="cls-2" cx="54.96" cy="108.35" rx="0.65" ry="0.66" transform="translate(-44.12 38.04) rotate(-27.75)"/><ellipse class="cls-2" cx="52.81" cy="108.3" rx="0.65" ry="0.66" transform="translate(-44.35 37.04) rotate(-27.75)"/><ellipse class="cls-2" cx="50.75" cy="108.18" rx="0.65" ry="0.66" transform="translate(-44.53 36.07) rotate(-27.75)"/><ellipse class="cls-2" cx="48.78" cy="108.06" rx="0.6" ry="0.66" transform="translate(-3.95 1.87) rotate(-2.11)"/><ellipse class="cls-2" cx="46.8" cy="107.96" rx="0.61" ry="0.66" transform="translate(-5.09 2.35) rotate(-2.73)"/><ellipse class="cls-2" cx="44.9" cy="107.84" rx="0.6" ry="0.66" transform="translate(-3.93 1.72) rotate(-2.11)"/><ellipse class="cls-2" cx="43.11" cy="107.57" rx="0.57" ry="0.66" transform="translate(-2.33 0.96) rotate(-1.25)"/><ellipse class="cls-2" cx="41.29" cy="107.42" rx="0.54" ry="0.66" transform="translate(-1.35 0.53) rotate(-0.72)"/><ellipse class="cls-2" cx="39.54" cy="107.12" rx="0.53" ry="0.66" transform="translate(-1.21 0.45) rotate(-0.65)"/><ellipse class="cls-2" cx="38.01" cy="106.85" rx="0.46" ry="0.66" transform="translate(-0.53 0.19) rotate(-0.28)"/><ellipse class="cls-2" cx="61.39" cy="104.85" rx="0.65" ry="0.66" transform="translate(-34.38 30.09) rotate(-21.67)"/><ellipse class="cls-2" cx="59.2" cy="104.96" rx="0.65" ry="0.66" transform="translate(-34.58 29.29) rotate(-21.67)"/><ellipse class="cls-2" cx="57" cy="104.88" rx="0.65" ry="0.66" transform="translate(-34.71 28.47) rotate(-21.67)"/><ellipse class="cls-2" cx="54.88" cy="104.86" rx="0.65" ry="0.66" transform="translate(-34.85 27.68) rotate(-21.67)"/><ellipse class="cls-2" cx="52.74" cy="104.81" rx="0.65" ry="0.66" transform="translate(-34.98 26.89) rotate(-21.67)"/><ellipse class="cls-2" cx="50.69" cy="104.7" rx="0.65" ry="0.66" transform="translate(-35.09 26.12) rotate(-21.67)"/><ellipse class="cls-2" cx="48.72" cy="104.59" rx="0.6" ry="0.66" transform="matrix(1, -0.03, 0.03, 1, -3.02, 1.46)"/><ellipse class="cls-2" cx="46.75" cy="104.49" rx="0.61" ry="0.66" transform="translate(-3.87 1.82) rotate(-2.14)"/><ellipse class="cls-2" cx="44.85" cy="104.38" rx="0.6" ry="0.66" transform="translate(-3.01 1.35) rotate(-1.66)"/><ellipse class="cls-2" cx="43.07" cy="104.12" rx="0.57" ry="0.66" transform="translate(-1.82 0.77) rotate(-1.01)"/><ellipse class="cls-2" cx="41.26" cy="103.97" rx="0.53" ry="0.66" transform="translate(-1.09 0.44) rotate(-0.6)"/><ellipse class="cls-2" cx="39.51" cy="103.68" rx="0.53" ry="0.66" transform="translate(-0.99 0.38) rotate(-0.55)"/><ellipse class="cls-2" cx="37.99" cy="103.42" rx="0.46" ry="0.66" transform="translate(-0.47 0.18) rotate(-0.26)"/><ellipse class="cls-2" cx="36.46" cy="103.1" rx="0.42" ry="0.66" transform="translate(-0.51 0.18) rotate(-0.28)"/><ellipse class="cls-2" cx="35.17" cy="102.65" rx="0.38" ry="0.66" transform="translate(-0.17 0.06) rotate(-0.1)"/><path class="cls-2" d="M90.91,100.74c.13,0,.23-.16.28-.38a4.39,4.39,0,0,0-.58-.24C90.62,100.46,90.75,100.74,90.91,100.74Z"/><path class="cls-2" d="M86.9,100.55c.26,0,.47-.29.47-.66a.84.84,0,0,0-.14-.46l-.61-.05a.75.75,0,0,0-.18.51C86.44,100.26,86.65,100.55,86.9,100.55Z"/><path class="cls-2" d="M88.24,100.14c.17,0,.32-.23.35-.53l-.72-.11C87.88,99.86,88,100.14,88.24,100.14Z"/><path class="cls-2" d="M92.53,102.33c0,.36.1.65.22.65s.19-.22.21-.53a2.4,2.4,0,0,0-.27-.75A1,1,0,0,0,92.53,102.33Z"/><path class="cls-2" d="M92,101.92c.17,0,.31-.29.31-.66a.49.49,0,0,0,0-.12,2.73,2.73,0,0,0-.48-.41,1,1,0,0,0-.14.54C91.66,101.63,91.8,101.93,92,101.92Z"/><path class="cls-2" d="M35,101.21c.17,0,.31-.3.31-.66,0-.06,0-.11,0-.16a2.71,2.71,0,0,0-.58.4C34.78,101,34.89,101.21,35,101.21Z"/><path class="cls-2" d="M39.12,100.14c0,.37.21.66.46.66s.46-.29.46-.66a.7.7,0,0,0-.26-.59l-.42,0A.72.72,0,0,0,39.12,100.14Z"/><path class="cls-2" d="M38.15,100.55c.25,0,.46-.29.46-.66a1.17,1.17,0,0,0,0-.27c-.31,0-.59,0-.87.09a1.1,1.1,0,0,0,0,.18C37.68,100.26,37.89,100.55,38.15,100.55Z"/><path class="cls-2" d="M34.09,103.55c0-.34-.12-.61-.27-.65a4.32,4.32,0,0,0,.08,1.26A.87.87,0,0,0,34.09,103.55Z"/><path class="cls-2" d="M36.43,105.87c-.26,0-.47.29-.47.65,0,0,0,.1,0,.15.23.13.48.26.75.38a.78.78,0,0,0,.18-.52C36.9,106.17,36.69,105.87,36.43,105.87Z"/><path class="cls-2" d="M35.19,105.42c-.16,0-.3.16-.35.4a4.36,4.36,0,0,0,.68.57,1.06,1.06,0,0,0,0-.31C35.57,105.72,35.4,105.42,35.19,105.42Z"/><path class="cls-2" d="M34.37,102a.89.89,0,0,0-.17-.56,3.16,3.16,0,0,0-.35,1.16.24.24,0,0,0,.14.05C34.2,102.68,34.37,102.39,34.37,102Z"/><line class="cls-1" x1="103.03" y1="133.09" x2="103.35" y2="117.82"/><line class="cls-1" x1="0.58" y1="109.57" x2="1.18" y2="133.09"/></g></g></svg>