<?xml version="1.0" encoding="UTF-8"?>
<svg width="16px" height="16px" viewBox="0 0 16 16" version="1.1" xmlns="http://www.w3.org/2000/svg" xmlns:xlink="http://www.w3.org/1999/xlink">
    <!-- Generator: Sketch 52.6 (67491) - http://www.bohemiancoding.com/sketch -->
    <title>plus-circle</title>
    <desc>Created with Sketch.</desc>
    <g id="Page-1" stroke="none" stroke-width="1" fill="none" fill-rule="evenodd">
        <path d="M7.99998093,0.250032783 C9.39581109,0.250032783 10.6874745,0.598990443 11.8749717,1.29690529 C13.0624689,1.99482013 14.0051751,2.93752638 14.7030899,4.12502354 C15.4010048,5.31252071 15.7499624,6.60418414 15.7499624,8.00001431 C15.7499624,9.39584447 15.4010048,10.6875079 14.7030899,11.8750051 C14.0051751,13.0625022 13.0624689,14.0052085 11.8749717,14.7031233 C10.6874745,15.4010382 9.39581109,15.7499958 7.99998093,15.7499958 C6.60415076,15.7499958 5.31248733,15.4010382 4.12499017,14.7031233 C2.937493,14.0052085 1.99478675,13.0625022 1.29687191,11.8750051 C0.598957064,10.6875079 0.249999404,9.39584447 0.249999404,8.00001431 C0.249999404,6.60418414 0.598957064,5.31252071 1.29687191,4.12502354 C1.99478675,2.93752638 2.937493,1.99482013 4.12499017,1.29690529 C5.31248733,0.598990443 6.60415076,0.250032783 7.99998093,0.250032783 Z M12.4999702,8.87501222 L12.4999702,7.12501639 C12.4999702,7.02085013 12.4635118,6.93230836 12.3905955,6.85939202 C12.3176791,6.78647569 12.2291374,6.75001729 12.1249711,6.75001729 L9.24997795,6.75001729 L9.24997795,3.87502414 C9.24997795,3.77085788 9.21351954,3.68231611 9.14060321,3.60939977 C9.06768687,3.53648344 8.9791451,3.50002503 8.87497884,3.50002503 L7.12498301,3.50002503 C7.02081675,3.50002503 6.93227498,3.53648344 6.85935865,3.60939977 C6.78644231,3.68231611 6.74998391,3.77085788 6.74998391,3.87502414 L6.74998391,6.75001729 L3.87499076,6.75001729 C3.7708245,6.75001729 3.68228273,6.78647569 3.60936639,6.85939202 C3.53645006,6.93230836 3.49999166,7.02085013 3.49999166,7.12501639 L3.49999166,8.87501222 C3.49999166,8.97917848 3.53645006,9.06772025 3.60936639,9.14063659 C3.68228273,9.21355292 3.7708245,9.25001132 3.87499076,9.25001132 L6.74998391,9.25001132 L6.74998391,12.1250045 C6.74998391,12.2291707 6.78644231,12.3177125 6.85935865,12.3906288 C6.93227498,12.4635452 7.02081675,12.5000036 7.12498301,12.5000036 L8.87497884,12.5000036 C8.9791451,12.5000036 9.06768687,12.4635452 9.14060321,12.3906288 C9.21351954,12.3177125 9.24997795,12.2291707 9.24997795,12.1250045 L9.24997795,9.25001132 L12.1249711,9.25001132 C12.2291374,9.25001132 12.3176791,9.21355292 12.3905955,9.14063659 C12.4635118,9.06772025 12.4999702,8.97917848 12.4999702,8.87501222 Z" id="plus-circle" fill="#FFFFFF"></path>
    </g>
</svg>