<svg xmlns="http://www.w3.org/2000/svg" viewBox="0 0 2227.41 1984.27"><defs><style>.cls-1{fill:#3db461;}.cls-2,.cls-3,.cls-4{fill:none;stroke-miterlimit:10;}.cls-2,.cls-3{stroke:#fff;}.cls-2,.cls-4{stroke-width:2px;}.cls-4{stroke:#2600b1;}.cls-5,.cls-6,.cls-7{fill:#2600b1;}.cls-6{font-size:72px;}.cls-6,.cls-7{font-family:HelveticaNeue, Helvetica Neue;}.cls-7{font-size:36px;}</style></defs><title>Asset 7</title><g id="Layer_2" data-name="Layer 2"><g id="Layer_1-2" data-name="Layer 1"><g id="T-Shirts"><path class="cls-1" d="M821.45,0,412.08,155.89,0,646.88,291.48,929,444.24,804.32l1.55,1179.95H1775.38V807.43L1926.58,915l300.83-286.8L1817.47,157.45,1399.73,0s-57.67,85.73-286,82.62S821.45,0,821.45,0Z"/><path class="cls-2" d="M1399.73,0c0,119.27-106.69,238.88-295.3,235.76S819.89,104.45,821.45,0"/><path class="cls-3" d="M412.08,155.89c103.24,136.9,88.38,478.84,32.16,648.43"/><path class="cls-2" d="M1817.47,157.45c-84.2,126.85-129.41,205.55-42.09,650"/><line class="cls-3" x1="1898.46" y1="894.98" x2="2202.91" y2="600.04"/><line class="cls-3" x1="320.97" y1="904.94" x2="21.47" y2="621.3"/><path class="cls-3" d="M830.8,60.21c202.26,84,435.7,62.37,559.81,0"/><path class="cls-3" d="M1429.13,11.09c-20.5,135.29-129.51,260.48-308.41,262.6S789.29,149.53,792.35,11.09"/><line class="cls-3" x1="445.75" y1="1948.42" x2="1775.38" y2="1948.42"/></g><g id="Cylindric_T_2_lighter_1968" data-name="Cylindric T 2 lighter 1968"><rect class="cls-4" x="691.03" y="655.94" width="145.74" height="240.84"/><path class="cls-4" d="M786.45,901.1a3,3,0,0,0-2.08-.85H743.44a3,3,0,0,0-2.09.85l-2.91,2.84h50.92Z"/><path class="cls-4" d="M691,896.79v6.77a1.82,1.82,0,0,0,1.82,1.83h42.64a3.53,3.53,0,0,0,2.48-1l3.38-3.3a3,3,0,0,1,2.09-.85h40.93a3,3,0,0,1,2.08.85l3.38,3.3a3.57,3.57,0,0,0,2.48,1H835a1.83,1.83,0,0,0,1.83-1.83v-6.77Z"/><line class="cls-4" x1="691.03" y1="664.25" x2="836.78" y2="664.25"/><path class="cls-5" d="M763.91,817a41.66,41.66,0,0,1-41.63-41.63V718.12a41.63,41.63,0,0,1,83.26-.09v57.31A41.69,41.69,0,0,1,763.91,817Zm0-139.71A40.91,40.91,0,0,0,723,718.12v57.22a40.87,40.87,0,0,0,81.73,0V718.12A40.92,40.92,0,0,0,763.91,677.26Z"/><path class="cls-5" d="M763.91,812.49a37.39,37.39,0,0,1-37.35-37.35V718.31a37.35,37.35,0,0,1,74.69,0v56.83A37.38,37.38,0,0,1,763.91,812.49Zm0-127.69a33.56,33.56,0,0,0-33.53,33.51v56.83a33.52,33.52,0,0,0,67,1V718.31A33.56,33.56,0,0,0,763.91,684.8Z"/></g><g id="DMN_Logo" data-name="DMN Logo"><path class="cls-5" d="M1453,1699.24v-27.19l8.38-2.22c7-1.87,10.11,2.26,10.11,10.48,0,9.42-4.11,15.11-10.52,16.81Zm7.25-26.9v22.76l.44-.12c2-.54,3.1-1.83,3.1-13.31,0-8-.52-10.13-3.1-9.45Z"/><path class="cls-5" d="M1494.31,1677.07v-15l-4.92,16.29-5.4,1.44-5-13v14.33l-2.22.59v-27.18l4.68-1.25,7.37,18.79,6.56-22.49,5.8-1.54v27.18Z"/><path class="cls-5" d="M1519.76,1660.24l-10.11-14.59v17.27l-2.21.59v-27.18l5-1.34,10.15,15.3v-18l2.22-.59v27.19Z"/><polygon class="cls-5" points="1446.6 1655.55 1446.57 1651.77 1531.58 1628.96 1531.61 1632.74 1446.6 1655.55"/><polygon class="cls-5" points="1446.6 1702.68 1446.57 1698.9 1531.58 1676.09 1531.61 1679.87 1446.6 1702.68"/></g><text class="cls-6" transform="translate(689.97 574.26)">T2</text><text class="cls-7" transform="translate(689.97 987.09)">Cylindric lighter 1:1<tspan x="0" y="43.2">1968</tspan></text></g></g></svg>