<svg xmlns="http://www.w3.org/2000/svg" viewBox="0 0 2230.16 1986.47"><defs><style>.cls-1{fill:#0e0e33;stroke:#0e0e33;}.cls-1,.cls-2,.cls-3,.cls-8,.cls-9{stroke-miterlimit:10;}.cls-1,.cls-2,.cls-8,.cls-9{stroke-width:2px;}.cls-2,.cls-3,.cls-8{fill:none;}.cls-2,.cls-3{stroke:#fff;}.cls-4,.cls-5,.cls-6,.cls-9{fill:#ff7bac;}.cls-5{font-size:72px;}.cls-5,.cls-6{font-family:HelveticaNeue, Helvetica Neue;}.cls-6{font-size:36px;}.cls-7{letter-spacing:-0.02em;}.cls-8,.cls-9{stroke:#ff7bac;}</style></defs><title>Asset 8</title><g id="Layer_2" data-name="Layer 2"><g id="Layer_1-2" data-name="Layer 1"><g id="T-Shirts"><path class="cls-1" d="M822.81,1.21,413.45,157.09,1.36,648.08,292.85,930.21,445.6,805.51l1.56,1180H1776.75V808.63l151.19,107.55,300.84-286.8-410-470.73L1401.1,1.21s-57.68,85.73-286,82.62S822.81,1.21,822.81,1.21Z"/><path class="cls-2" d="M1401.1,1.21c0,119.27-106.7,238.88-295.3,235.76S821.25,105.65,822.81,1.21"/><path class="cls-3" d="M413.45,157.09C516.69,294,501.82,635.93,445.6,805.51"/><path class="cls-2" d="M1818.83,158.65c-84.19,126.85-129.41,205.55-42.08,650"/><line class="cls-3" x1="1899.83" y1="896.18" x2="2204.27" y2="601.24"/><line class="cls-3" x1="322.34" y1="906.14" x2="22.84" y2="622.5"/><path class="cls-3" d="M832.16,61.41c202.26,84.05,435.7,62.37,559.82,0"/><path class="cls-3" d="M1430.5,12.29C1410,147.58,1301,272.77,1122.09,274.89S790.65,150.73,793.71,12.29"/><line class="cls-3" x1="447.11" y1="1949.62" x2="1776.75" y2="1949.62"/></g><g id="DMN_Logo" data-name="DMN Logo"><path class="cls-4" d="M1454.38,1700.44v-27.19l8.38-2.22c7-1.87,10.11,2.26,10.11,10.48,0,9.42-4.11,15.11-10.51,16.81Zm7.25-26.9v22.76l.45-.12c2-.54,3.1-1.83,3.1-13.31,0-8-.53-10.13-3.1-9.45Z"/><path class="cls-4" d="M1495.67,1678.27v-15l-4.91,16.29-5.4,1.44-5-13v14.33l-2.21.59v-27.18l4.67-1.25,7.37,18.79,6.57-22.49,5.8-1.54v27.18Z"/><path class="cls-4" d="M1521.13,1661.44,1511,1646.85v17.27l-2.22.59v-27.18l5-1.34,10.15,15.3v-18l2.21-.59v27.19Z"/><polygon class="cls-4" points="1447.96 1656.75 1447.93 1652.96 1532.94 1630.16 1532.97 1633.94 1447.96 1656.75"/><polygon class="cls-4" points="1447.96 1703.88 1447.93 1700.1 1532.94 1677.29 1532.97 1681.07 1447.96 1703.88"/></g><text class="cls-5" transform="translate(691.34 575.46)">TP1</text><text class="cls-6" transform="translate(690.77 1374.6)">Pocket transistor radio <tspan x="0" y="43.2">and </tspan><tspan class="cls-7" x="70.7" y="43.2">r</tspan><tspan x="82.04" y="43.2">eco</tspan><tspan class="cls-7" x="141.37" y="43.2">r</tspan><tspan x="152.71" y="43.2">d player 1:1</tspan><tspan x="0" y="86.4">1959</tspan></text><g id="TP_1_radio_phono_combination_1959" data-name="TP 1 radio phono combination 1959"><rect class="cls-8" x="691.33" y="657.35" width="416.14" height="635.34" rx="10.18" ry="10.18"/><path class="cls-4" d="M691.37,814.69h7.88a4.86,4.86,0,0,1,4.86,4.86V946a4.85,4.85,0,0,1-4.86,4.86h-7.92V814.69Z"/><path class="cls-4" d="M1107.47,950.85h-7.92a4.85,4.85,0,0,1-4.86-4.86V819.55a4.86,4.86,0,0,1,4.86-4.86h7.92V950.85Z"/><path class="cls-4" d="M685.93,835.37h5.41v27.16h-5.41a6.35,6.35,0,0,1-6.36-6.35h0V841.72a6.35,6.35,0,0,1,6.36-6.35Z"/><path class="cls-4" d="M685.93,905.11h5.41v27.16h-5.41a6.35,6.35,0,0,1-6.36-6.35h0V911.45A6.36,6.36,0,0,1,685.93,905.11Z"/><rect class="cls-9" x="713.19" y="1031.13" width="31.78" height="10.04"/><rect class="cls-8" x="713.19" y="1041.18" width="31.78" height="10.04"/><rect class="cls-4" x="725.87" y="942.2" width="5.56" height="88.94"/><line class="cls-8" x1="704.11" y1="884.43" x2="1094.68" y2="884.43"/><rect class="cls-8" x="713.19" y="1122" width="141.96" height="83.97"/><circle class="cls-8" cx="974.62" cy="1165.69" r="106.49"/><path class="cls-8" d="M1042.86,753.42a107.62,107.62,0,0,1,1.2,16,105.49,105.49,0,0,1-1.28,16.47"/><circle class="cls-8" cx="974.62" cy="1165.69" r="100.62"/><circle class="cls-8" cx="974.62" cy="1165.69" r="82.74"/><circle class="cls-8" cx="974.62" cy="1165.69" r="52.91"/><circle class="cls-4" cx="974.62" cy="1165.69" r="2.19"/><circle class="cls-4" cx="805.77" cy="769.48" r="4.09"/><circle class="cls-4" cx="805.77" cy="754.27" r="4.09"/><circle class="cls-4" cx="805.77" cy="739.06" r="4.09"/><circle class="cls-4" cx="820.31" cy="743.52" r="4.09"/><circle class="cls-4" cx="831.54" cy="754.76" r="4.09"/><circle class="cls-4" cx="819.49" cy="726.5" r="4.09"/><circle class="cls-4" cx="820.31" cy="710.97" r="4.09"/><circle class="cls-4" cx="835.18" cy="716.82" r="4.09"/><circle class="cls-4" cx="847.91" cy="727.07" r="4.09"/><circle class="cls-4" cx="858.81" cy="716.65" r="4.09"/><circle class="cls-4" cx="884.25" cy="724.99" r="4.09"/><circle class="cls-4" cx="874.78" cy="711.36" r="4.09"/><circle class="cls-4" cx="857.81" cy="739.06" r="4.09"/><circle class="cls-4" cx="875.5" cy="741.04" r="4.09"/><circle class="cls-4" cx="894.99" cy="754.76" r="4.09"/><circle class="cls-4" cx="868.34" cy="727.94" r="4.09"/><circle class="cls-4" cx="891.32" cy="738.84" r="4.09"/><circle class="cls-4" cx="864.26" cy="754.27" r="4.09"/><circle class="cls-4" cx="879.58" cy="755.26" r="4.09"/><circle class="cls-4" cx="832.1" cy="733.27" r="4.09"/><circle class="cls-4" cx="842.18" cy="743.52" r="4.09"/><circle class="cls-4" cx="848.13" cy="756.08" r="4.09"/><circle class="cls-4" cx="805.77" cy="723.85" r="4.09"/><circle class="cls-4" cx="805.77" cy="708.64" r="4.09"/><circle class="cls-4" cx="805.77" cy="693.43" r="4.09"/><circle class="cls-4" cx="820.14" cy="695.43" r="4.09"/><circle class="cls-4" cx="834.19" cy="700.07" r="4.09"/><circle class="cls-4" cx="850.36" cy="690.98" r="4.09"/><circle class="cls-4" cx="836.01" cy="684.29" r="4.09"/><circle class="cls-4" cx="847.08" cy="706.88" r="4.09"/><circle class="cls-4" cx="863.27" cy="700.46" r="4.09"/><circle class="cls-4" cx="805.77" cy="860.73" r="4.09"/><circle class="cls-4" cx="805.77" cy="845.52" r="4.09"/><circle class="cls-4" cx="805.77" cy="830.32" r="4.09"/><circle class="cls-4" cx="805.77" cy="815.11" r="4.09"/><circle class="cls-4" cx="805.77" cy="799.89" r="4.09"/><circle class="cls-4" cx="805.77" cy="784.69" r="4.09"/><circle class="cls-4" cx="805.77" cy="678.22" r="4.09"/><circle class="cls-4" cx="820.97" cy="680.2" r="4.09"/><circle class="cls-4" cx="832.07" cy="784.69" r="4.09"/><circle class="cls-4" cx="820.75" cy="795.83" r="4.09"/><circle class="cls-4" cx="849.1" cy="783.99" r="4.09"/><circle class="cls-4" cx="864.63" cy="784.95" r="4.09"/><circle class="cls-4" cx="858.66" cy="799.77" r="4.09"/><circle class="cls-4" cx="848.31" cy="812.42" r="4.09"/><circle class="cls-4" cx="858.64" cy="823.4" r="4.09"/><circle class="cls-4" cx="850.1" cy="848.78" r="4.09"/><circle class="cls-4" cx="863.8" cy="839.42" r="4.09"/><circle class="cls-4" cx="836.24" cy="822.23" r="4.09"/><circle class="cls-4" cx="834.12" cy="839.89" r="4.09"/><circle class="cls-4" cx="820.24" cy="859.28" r="4.09"/><circle class="cls-4" cx="847.27" cy="832.85" r="4.09"/><circle class="cls-4" cx="836.18" cy="855.73" r="4.09"/><circle class="cls-4" cx="820.98" cy="828.55" r="4.09"/><circle class="cls-4" cx="819.87" cy="843.87" r="4.09"/><circle class="cls-4" cx="842.23" cy="796.56" r="4.09"/><circle class="cls-4" cx="831.91" cy="806.56" r="4.09"/><circle class="cls-4" cx="819.3" cy="812.41" r="4.09"/><circle class="cls-4" cx="880.16" cy="784.91" r="4.09"/><circle class="cls-4" cx="875.42" cy="798.92" r="4.09"/><circle class="cls-4" cx="884.38" cy="815.15" r="4.09"/><circle class="cls-4" cx="891.18" cy="800.86" r="4.09"/><circle class="cls-4" cx="868.5" cy="811.75" r="4.09"/><circle class="cls-4" cx="874.79" cy="827.99" r="4.09"/><circle class="cls-4" cx="895.39" cy="785.85" r="4.09"/><circle class="cls-4" cx="790.2" cy="796.19" r="4.09"/><circle class="cls-4" cx="778.95" cy="784.97" r="4.09"/><circle class="cls-4" cx="791.04" cy="813.22" r="4.09"/><circle class="cls-4" cx="790.23" cy="828.75" r="4.09"/><circle class="cls-4" cx="775.36" cy="822.91" r="4.09"/><circle class="cls-4" cx="762.63" cy="812.68" r="4.09"/><circle class="cls-4" cx="751.73" cy="823.1" r="4.09"/><circle class="cls-4" cx="726.27" cy="814.78" r="4.09"/><circle class="cls-4" cx="735.77" cy="828.4" r="4.09"/><circle class="cls-4" cx="752.7" cy="800.69" r="4.09"/><circle class="cls-4" cx="735.02" cy="798.72" r="4.09"/><circle class="cls-4" cx="715.51" cy="785.02" r="4.09"/><circle class="cls-4" cx="742.18" cy="811.82" r="4.09"/><circle class="cls-4" cx="719.2" cy="800.94" r="4.09"/><circle class="cls-4" cx="746.24" cy="785.49" r="4.09"/><circle class="cls-4" cx="730.92" cy="784.51" r="4.09"/><circle class="cls-4" cx="778.43" cy="806.45" r="4.09"/><circle class="cls-4" cx="768.33" cy="796.22" r="4.09"/><circle class="cls-4" cx="762.38" cy="783.66" r="4.09"/><circle class="cls-4" cx="790.41" cy="844.28" r="4.09"/><circle class="cls-4" cx="776.37" cy="839.66" r="4.09"/><circle class="cls-4" cx="760.21" cy="848.76" r="4.09"/><circle class="cls-4" cx="774.56" cy="855.44" r="4.09"/><circle class="cls-4" cx="763.47" cy="832.86" r="4.09"/><circle class="cls-4" cx="747.28" cy="839.29" r="4.09"/><circle class="cls-4" cx="789.6" cy="859.51" r="4.09"/><circle class="cls-4" cx="779.18" cy="754.77" r="4.09"/><circle class="cls-4" cx="790.29" cy="743.41" r="4.09"/><circle class="cls-4" cx="762.17" cy="755.78" r="4.09"/><circle class="cls-4" cx="746.63" cy="755.12" r="4.09"/><circle class="cls-4" cx="752.31" cy="740.19" r="4.09"/><circle class="cls-4" cx="762.41" cy="727.36" r="4.09"/><circle class="cls-4" cx="751.88" cy="716.57" r="4.09"/><circle class="cls-4" cx="759.95" cy="691.03" r="4.09"/><circle class="cls-4" cx="746.42" cy="700.66" r="4.09"/><circle class="cls-4" cx="774.3" cy="717.31" r="4.09"/><circle class="cls-4" cx="776.09" cy="699.61" r="4.09"/><circle class="cls-4" cx="789.59" cy="679.96" r="4.09"/><circle class="cls-4" cx="763.07" cy="706.9" r="4.09"/><circle class="cls-4" cx="773.72" cy="683.81" r="4.09"/><circle class="cls-4" cx="789.44" cy="710.7" r="4.09"/><circle class="cls-4" cx="790.26" cy="695.37" r="4.09"/><circle class="cls-4" cx="768.81" cy="743.09" r="4.09"/><circle class="cls-4" cx="778.93" cy="732.9" r="4.09"/><circle class="cls-4" cx="791.43" cy="726.82" r="4.09"/><circle class="cls-4" cx="731.1" cy="755.47" r="4.09"/><circle class="cls-4" cx="735.57" cy="741.36" r="4.09"/><circle class="cls-4" cx="726.31" cy="725.3" r="4.09"/><circle class="cls-4" cx="719.78" cy="739.72" r="4.09"/><circle class="cls-4" cx="742.25" cy="728.4" r="4.09"/><circle class="cls-4" cx="735.65" cy="712.29" r="4.09"/><circle class="cls-4" cx="715.86" cy="754.8" r="4.09"/><circle class="cls-4" cx="792" cy="762.45" r="4.09"/><circle class="cls-4" cx="775.35" cy="769.48" r="4.09"/><circle class="cls-4" cx="760.14" cy="769.48" r="4.09"/><circle class="cls-4" cx="744.94" cy="769.48" r="4.09"/><circle class="cls-4" cx="729.72" cy="769.48" r="4.09"/><circle class="cls-4" cx="897.03" cy="769.48" r="4.09"/><circle class="cls-4" cx="881.81" cy="769.48" r="4.09"/><circle class="cls-4" cx="866.61" cy="769.48" r="4.09"/><circle class="cls-4" cx="851.4" cy="769.48" r="4.09"/><circle class="cls-4" cx="836.18" cy="769.48" r="4.09"/><circle class="cls-4" cx="818.49" cy="762.14" r="4.09"/><circle class="cls-4" cx="792" cy="777.64" r="4.09"/><circle class="cls-4" cx="818.49" cy="777.34" r="4.09"/><circle class="cls-4" cx="714.51" cy="769.48" r="4.09"/><line class="cls-8" x1="1050.05" y1="769.69" x2="1066.65" y2="769.69"/><line class="cls-8" x1="1029.88" y1="769.69" x2="1043.44" y2="769.69"/><path class="cls-4" d="M1020.2,771.47l.92-.11a2.07,2.07,0,0,0,.54,1.12,1.32,1.32,0,0,0,.93.34,1.48,1.48,0,0,0,1.1-.45,1.52,1.52,0,0,0,.44-1.11,1.44,1.44,0,0,0-.41-1,1.47,1.47,0,0,0-1-.4,3.4,3.4,0,0,0-.64.09l.1-.8h.15a1.89,1.89,0,0,0,1-.31,1,1,0,0,0,.47-.94,1.18,1.18,0,0,0-.34-.85,1.25,1.25,0,0,0-.88-.32,1.29,1.29,0,0,0-.9.33,1.64,1.64,0,0,0-.45,1l-.93-.15a2.38,2.38,0,0,1,.77-1.44,2.2,2.2,0,0,1,1.48-.5,2.36,2.36,0,0,1,1.14.26,2,2,0,0,1,.79.71,2,2,0,0,1,.27,1,1.62,1.62,0,0,1-.26.88,1.75,1.75,0,0,1-.77.63,1.84,1.84,0,0,1,1,.64,2,2,0,0,1,.37,1.21,2.18,2.18,0,0,1-.72,1.66,2.5,2.5,0,0,1-1.8.69A2.34,2.34,0,0,1,1021,773,2.24,2.24,0,0,1,1020.2,771.47Z"/><rect class="cls-8" x="1013.19" y="753.44" width="59.84" height="32.51"/><line class="cls-8" x1="1038.26" y1="755.25" x2="1043.11" y2="755.21"/><line class="cls-8" x1="1038.73" y1="758.59" x2="1043.58" y2="758.55"/><line class="cls-8" x1="1038.83" y1="780.76" x2="1043.68" y2="780.72"/><line class="cls-8" x1="1038.87" y1="762.38" x2="1043.72" y2="762.34"/><line class="cls-8" x1="1039.06" y1="777.31" x2="1043.92" y2="777.26"/><line class="cls-8" x1="1038.73" y1="766.16" x2="1043.58" y2="766.12"/><line class="cls-8" x1="1038.96" y1="773.47" x2="1043.82" y2="773.43"/><line class="cls-8" x1="1038.26" y1="784.42" x2="1043.11" y2="784.38"/><path class="cls-8" d="M1107.25,784.42h2.31s4.6-5.19,3.89-25.52-6-44.07-6-44.07"/><path class="cls-8" d="M1104.84,661.47c-11.42-29.66-22.37-45.42-69.64-65.24s-115.59-35.05-144.79-35.4-100.73,10.61-132.92,27.26-58.15,39.46-64,74.06"/><path class="cls-8" d="M708.79,657.35c6.9-10.14,21.8-46.73,85.33-62.53s98.59-18.59,150.28-5.14A722.68,722.68,0,0,1,1057,628.81c24.61,10.8,32.4,28.33,32.4,28.33"/><path class="cls-8" d="M691.33,711.36c-2.68,18.81-8.52,42.77-7.47,56.72s2.23,19.17,7.47,19.17"/></g></g></g></svg>