<svg xmlns="http://www.w3.org/2000/svg" viewBox="0 0 2227.41 1984.27"><defs><style>.cls-1{fill:#3fa9f5;}.cls-2,.cls-3,.cls-8{fill:none;stroke-miterlimit:10;}.cls-2,.cls-3{stroke:#fff;}.cls-2,.cls-8{stroke-width:2px;}.cls-4,.cls-5,.cls-6{fill:#2600b1;}.cls-5{font-size:72px;}.cls-5,.cls-6{font-family:HelveticaNeue, Helvetica Neue;}.cls-6{font-size:36px;}.cls-7{letter-spacing:-0.02em;}.cls-8{stroke:#2600b1;}</style></defs><title>Asset 6</title><g id="Layer_2" data-name="Layer 2"><g id="Layer_1-2" data-name="Layer 1"><g id="T-Shirts"><path class="cls-1" d="M821.45,0,412.08,155.89,0,646.88,291.48,929,444.24,804.32l1.55,1179.95H1775.38V807.43L1926.58,915l300.83-286.8L1817.47,157.45,1399.73,0s-57.67,85.73-286,82.62S821.45,0,821.45,0Z"/><path class="cls-2" d="M1399.73,0c0,119.27-106.69,238.88-295.3,235.76S819.89,104.45,821.45,0"/><path class="cls-3" d="M412.08,155.89c103.24,136.9,88.38,478.84,32.16,648.43"/><path class="cls-2" d="M1817.47,157.45c-84.2,126.85-129.41,205.55-42.09,650"/><line class="cls-3" x1="1898.46" y1="894.98" x2="2202.91" y2="600.04"/><line class="cls-3" x1="320.97" y1="904.94" x2="21.47" y2="621.3"/><path class="cls-3" d="M830.8,60.21c202.26,84,435.7,62.37,559.81,0"/><path class="cls-3" d="M1429.13,11.09c-20.5,135.29-129.51,260.48-308.41,262.6S789.29,149.53,792.35,11.09"/><line class="cls-3" x1="445.75" y1="1948.42" x2="1775.38" y2="1948.42"/></g><g id="DMN_Logo" data-name="DMN Logo"><path class="cls-4" d="M1453,1699.24v-27.19l8.38-2.22c7-1.87,10.11,2.26,10.11,10.48,0,9.42-4.11,15.11-10.52,16.81Zm7.25-26.9v22.76l.44-.12c2-.54,3.1-1.83,3.1-13.31,0-8-.52-10.13-3.1-9.45Z"/><path class="cls-4" d="M1494.31,1677.07v-15l-4.92,16.29-5.4,1.44-5-13v14.33l-2.22.59v-27.18l4.68-1.25,7.37,18.79,6.56-22.49,5.8-1.54v27.18Z"/><path class="cls-4" d="M1519.76,1660.24l-10.11-14.59v17.27l-2.21.59v-27.18l5-1.34,10.15,15.3v-18l2.22-.59v27.19Z"/><polygon class="cls-4" points="1446.6 1655.55 1446.57 1651.77 1531.58 1628.96 1531.61 1632.74 1446.6 1655.55"/><polygon class="cls-4" points="1446.6 1702.68 1446.57 1698.9 1531.58 1676.09 1531.61 1679.87 1446.6 1702.68"/></g><text class="cls-5" transform="translate(684.77 574.26)">F65</text><text class="cls-6" transform="translate(687.14 1311.57)">Elect<tspan class="cls-7" x="79.99" y="0">r</tspan><tspan x="91.33" y="0">onic flash 1:1</tspan><tspan x="0" y="43.2">1962</tspan></text><rect class="cls-8" x="689.97" y="784.23" width="310.33" height="445.43" rx="6.5" ry="6.5"/><rect class="cls-4" x="1000.3" y="873.55" width="2.63" height="14.04"/><rect class="cls-4" x="1002.94" y="870" width="4.38" height="21.14"/><rect class="cls-4" x="687.34" y="873.55" width="2.63" height="14.04" transform="translate(1377.31 1761.14) rotate(-180)"/><rect class="cls-4" x="682.96" y="870" width="4.38" height="21.14" transform="translate(1370.3 1761.14) rotate(-180)"/><rect class="cls-4" x="705.66" y="799.36" width="3.21" height="12.29"/><rect class="cls-4" x="981.41" y="799.36" width="3.21" height="12.29"/><rect class="cls-4" x="705.66" y="1202.15" width="3.21" height="12.29"/><rect class="cls-4" x="981.41" y="1202.15" width="3.21" height="12.29"/><rect class="cls-4" x="735.54" y="781.61" width="22.17" height="2.61"/><rect class="cls-8" x="775.03" y="773.26" width="35.24" height="10.97"/><rect class="cls-8" x="749.7" y="656.17" width="250.6" height="117.09" rx="4.15" ry="4.15"/><rect class="cls-8" x="757.16" y="663.74" width="235.68" height="101.95"/><rect class="cls-8" x="787.92" y="670.63" width="172.54" height="88.18"/><rect class="cls-8" x="791.78" y="683.41" width="164.2" height="63.15" rx="6.82" ry="6.82"/><rect class="cls-8" x="798.09" y="689.61" width="151.57" height="50.76" rx="4.92" ry="4.92"/><rect class="cls-8" x="804.45" y="695.92" width="138.86" height="38.13" rx="3.85" ry="3.85"/><rect class="cls-8" x="810.88" y="702.36" width="125.99" height="25.26" rx="3.13" ry="3.13"/><line class="cls-8" x1="810.26" y1="671.18" x2="810.26" y2="696.21"/><line class="cls-8" x1="936.87" y1="671.18" x2="936.87" y2="696.21"/><line class="cls-8" x1="810.26" y1="733.86" x2="810.26" y2="758.88"/><line class="cls-8" x1="936.87" y1="733.86" x2="936.87" y2="758.88"/><rect class="cls-8" x="756.94" y="663.74" width="20.73" height="101.95"/><rect class="cls-4" x="759.8" y="669.96" width="5.24" height="5.24"/><rect class="cls-4" x="767.97" y="669.96" width="5.24" height="5.24"/><rect class="cls-4" x="759.8" y="678.38" width="5.24" height="5.24"/><rect class="cls-4" x="767.97" y="678.38" width="5.24" height="5.24"/><rect class="cls-4" x="759.8" y="686.81" width="5.24" height="5.24"/><rect class="cls-4" x="767.97" y="686.81" width="5.24" height="5.24"/><rect class="cls-4" x="759.8" y="695.24" width="5.24" height="5.24"/><rect class="cls-4" x="767.97" y="695.24" width="5.24" height="5.24"/><rect class="cls-4" x="759.8" y="703.67" width="5.24" height="5.24"/><rect class="cls-4" x="767.97" y="703.67" width="5.24" height="5.24"/><rect class="cls-4" x="759.8" y="712.09" width="5.24" height="5.24"/><rect class="cls-4" x="767.97" y="712.09" width="5.24" height="5.24"/><rect class="cls-4" x="759.8" y="720.52" width="5.24" height="5.24"/><rect class="cls-4" x="767.97" y="720.52" width="5.24" height="5.24"/><rect class="cls-4" x="759.8" y="728.95" width="5.24" height="5.24"/><rect class="cls-4" x="767.97" y="728.95" width="5.24" height="5.24"/><rect class="cls-4" x="759.8" y="737.38" width="5.24" height="5.24"/><rect class="cls-4" x="767.97" y="737.38" width="5.24" height="5.24"/><rect class="cls-4" x="759.8" y="745.8" width="5.24" height="5.24"/><rect class="cls-4" x="767.97" y="745.8" width="5.24" height="5.24"/><rect class="cls-4" x="759.8" y="754.23" width="5.24" height="5.24"/><rect class="cls-4" x="767.97" y="754.23" width="5.24" height="5.24"/><rect class="cls-8" x="972.11" y="663.74" width="20.73" height="101.95" transform="translate(1964.96 1429.43) rotate(-180)"/><rect class="cls-4" x="984.74" y="669.96" width="5.24" height="5.24" transform="translate(1974.73 1345.16) rotate(-180)"/><rect class="cls-4" x="976.57" y="669.96" width="5.24" height="5.24" transform="translate(1958.39 1345.16) rotate(-180)"/><rect class="cls-4" x="984.74" y="678.38" width="5.24" height="5.24" transform="translate(1974.73 1362.01) rotate(-180)"/><rect class="cls-4" x="976.57" y="678.38" width="5.24" height="5.24" transform="translate(1958.39 1362.01) rotate(-180)"/><rect class="cls-4" x="984.74" y="686.81" width="5.24" height="5.24" transform="translate(1974.73 1378.87) rotate(-180)"/><rect class="cls-4" x="976.57" y="686.81" width="5.24" height="5.24" transform="translate(1958.39 1378.87) rotate(-180)"/><rect class="cls-4" x="984.74" y="695.24" width="5.24" height="5.24" transform="translate(1974.73 1395.72) rotate(-180)"/><rect class="cls-4" x="976.57" y="695.24" width="5.24" height="5.24" transform="translate(1958.39 1395.72) rotate(-180)"/><rect class="cls-4" x="984.74" y="703.67" width="5.24" height="5.24" transform="translate(1974.73 1412.58) rotate(-180)"/><rect class="cls-4" x="976.57" y="703.67" width="5.24" height="5.24" transform="translate(1958.39 1412.58) rotate(-180)"/><rect class="cls-4" x="984.74" y="712.09" width="5.24" height="5.24" transform="translate(1974.73 1429.43) rotate(-180)"/><rect class="cls-4" x="976.57" y="712.09" width="5.24" height="5.24" transform="translate(1958.39 1429.43) rotate(-180)"/><rect class="cls-4" x="984.74" y="720.52" width="5.24" height="5.24" transform="translate(1974.73 1446.28) rotate(-180)"/><rect class="cls-4" x="976.57" y="720.52" width="5.24" height="5.24" transform="translate(1958.39 1446.28) rotate(-180)"/><rect class="cls-4" x="984.74" y="728.95" width="5.24" height="5.24" transform="translate(1974.73 1463.14) rotate(-180)"/><rect class="cls-4" x="976.57" y="728.95" width="5.24" height="5.24" transform="translate(1958.39 1463.14) rotate(-180)"/><rect class="cls-4" x="984.74" y="737.38" width="5.24" height="5.24" transform="translate(1974.73 1479.99) rotate(-180)"/><rect class="cls-4" x="976.57" y="737.38" width="5.24" height="5.24" transform="translate(1958.39 1479.99) rotate(-180)"/><rect class="cls-4" x="984.74" y="745.8" width="5.24" height="5.24" transform="translate(1974.73 1496.85) rotate(-180)"/><rect class="cls-4" x="976.57" y="745.8" width="5.24" height="5.24" transform="translate(1958.39 1496.85) rotate(-180)"/><rect class="cls-4" x="984.74" y="754.23" width="5.24" height="5.24" transform="translate(1974.73 1513.7) rotate(-180)"/><rect class="cls-4" x="976.57" y="754.23" width="5.24" height="5.24" transform="translate(1958.39 1513.7) rotate(-180)"/><polygon class="cls-8" points="1050.88 720.63 1000.3 725.23 1000.3 700.43 1050.88 705.03 1050.88 720.63"/><path class="cls-8" d="M1050.88,707.85c20.7,3.58,32.21,24.53,32.21,41.67,0,18.91-10.48,53.94-37.07,80.52s-45.72,39.63-45.72,39.63"/><path class="cls-8" d="M1050.88,718.33c10.48,3.32,19.68,16.1,17.89,35s-12.52,45.25-32.21,64.17c-14.34,13.77-36.26,32.21-36.26,32.21"/><path class="cls-8" d="M720,748a43.82,43.82,0,0,1,3.1-16.43V724a4.69,4.69,0,0,0-4.69-4.69H706.8a4.69,4.69,0,0,0-4.69,4.69v7.56a45,45,0,0,1,0,32.86v19.77h21V764.46A43.82,43.82,0,0,1,720,748Z"/><path class="cls-8" d="M706.8,719.35c1.13-22.21,14-51.34,37.69-63.63s60-8,69.69.45"/><path class="cls-8" d="M717.64,719.35c3.15-21.64,15.14-44.78,31.71-52.49"/><path class="cls-8" d="M850.41,773.26a31.69,31.69,0,0,1,1.26,11.32"/><path class="cls-8" d="M837.49,773.26A21,21,0,0,1,839.64,784"/></g></g></svg>